<?xml version="1.0" encoding="utf-8" ?><svg xmlns="http://www.w3.org/2000/svg" xmlns:xlink="http://www.w3.org/1999/xlink" width="1024" height="1024" viewBox="0 0 1024 1024"><path d="M621.891 273.696C624.598 270.608 627.608 267.641 630.475 264.695C690.635 202.879 694.343 267.392 693.375 318.041C704.629 331.057 713.485 348.542 722.644 363.161C726.703 369.64 739.672 386.471 741.603 392.858C741.098 396.339 737.85 397.811 734.89 400.107C739.467 406.746 738.217 407.431 733.016 412.967C733.088 414.264 733.311 417.77 733.023 418.864C729.389 432.671 712.265 444.834 701.249 451.82C710.968 462.838 713.593 468.165 719.601 481.156C728.527 481.329 737.453 481.447 746.38 481.507C753.136 481.574 759.342 481.348 766.067 482.395C778.81 484.379 777.312 491.903 776.78 502.189C776.581 506.023 776.385 510.241 776.185 514.102L773.792 557.896L770.45 626.956C769.838 640.657 769.278 654.418 768.47 668.112C768.327 670.545 765.687 671.877 765.601 674.504C765.345 682.405 765.209 690.396 764.986 698.287C764.401 716.668 764.002 735.055 763.789 753.445C763.877 754.327 763.765 755.599 764.396 756.133C767.063 758.395 778.084 760.497 777.838 765.092C777.379 773.639 757.337 775.969 751.301 777.108C717.672 783.452 683.54 783.915 649.48 785.367C642.036 785.694 632.014 789.021 624.454 790.523C610.983 793.064 597.404 794.997 583.759 796.318C526.196 801.287 468.426 803.443 410.653 802.779C381.08 802.848 351.511 801.976 321.994 800.164C289.687 798.405 255.05 796.051 223.405 788.653C218.815 787.579 210.718 785.188 209.497 780.08C210.904 774.375 225.642 771.804 230.661 770.227C230.288 764.778 230.523 756.31 230.515 750.692L230.451 714.257L230.783 600.986C225.056 600.87 219.33 600.718 213.605 600.53C212.701 590.807 212.951 580.776 213.573 571.039C228.979 570.592 244.394 570.523 259.803 570.833C254.742 560.269 229.809 481.187 233.065 473.974C234.148 471.575 237.114 469.662 239.559 468.972C244.414 467.602 255.104 469.049 260.739 469.032C271.026 469.001 327.882 466.332 332.935 471.1C336.199 474.18 354.153 543.109 355.47 551.769L365.567 551.534C365.377 542.67 365.505 533.067 365.432 524.285C365.103 484.392 365.505 488.828 399.647 488.897C397.002 469.43 407.774 469.848 420.768 464.049C431.587 459.221 437.109 455.947 448.728 452.608C455.368 439.874 463.837 443.303 476.476 440.745C479.917 442.202 482.52 443.216 486.061 444.385C479.69 435.324 474.894 436.115 470.096 422.336L472.236 417.764C464.646 411.952 463.322 409.668 467.986 401.069C467.625 400.903 467.266 400.732 466.909 400.555C465.03 399.615 463.816 398.952 463.161 396.936C463.79 391.002 497.983 331.728 503.196 322.834C503.082 322.226 502.98 321.615 502.891 321.002C500.208 302.79 498.663 265.352 509.327 250.797C523.652 231.246 558.639 264.993 570.281 274.974C590.55 271.201 601.479 270.276 621.891 273.696ZM689.518 682.509C688.937 704.178 688.593 725.853 688.488 747.529C696.071 748.632 706.97 749.062 715.051 749.978C721.044 750.658 738.496 753.374 743.275 753.116C743.283 749.074 743.061 744.825 742.821 740.785C741.519 718.837 741.583 696.915 740.99 674.947C724.388 677.669 706.311 679.949 689.518 682.509ZM647.399 747.502C650.069 747.703 656.569 747.983 658.886 746.941L659.153 745.654C658.426 731.91 658.243 718.304 657.699 704.56C657.453 698.358 657.696 692.658 656.967 686.453C648.671 698.311 650.332 709.67 651.415 723.528C649.892 724.715 648.497 725.838 646.869 726.893C648.103 733.508 649.557 741.032 647.399 747.502ZM608.093 742.215L611.849 738.557C619.08 732.711 614.156 730.511 608.177 727.671C608.032 732.715 607.962 737.144 608.093 742.215Z"/><path fill="#9C9A9A" d="M659.153 745.654C660.744 756.81 654.757 784.178 678.17 771.917C680.612 770.639 680.396 760.894 680.436 758.165C688.807 757.046 688.685 755.816 688.488 747.529C696.071 748.632 706.97 749.062 715.051 749.978C721.044 750.658 738.496 753.374 743.275 753.116C742.502 760.79 743.077 769.532 754.002 768.747C758.086 768.454 761.019 766.199 763.475 763.006C763.462 759.816 763.567 756.627 763.789 753.445C763.877 754.327 763.765 755.599 764.396 756.133C767.063 758.395 778.084 760.497 777.838 765.092C777.379 773.639 757.337 775.969 751.301 777.108C717.672 783.452 683.54 783.915 649.48 785.367C642.036 785.694 632.014 789.021 624.454 790.523C610.983 793.064 597.404 794.997 583.759 796.318C526.196 801.287 468.426 803.443 410.653 802.779C381.08 802.848 351.511 801.976 321.994 800.164C289.687 798.405 255.05 796.051 223.405 788.653C218.815 787.579 210.718 785.188 209.497 780.08C210.904 774.375 225.642 771.804 230.661 770.227C230.554 774.694 230.712 779.825 230.741 784.345C241.275 785.729 254.877 785.406 265.795 785.704L330.212 787.494C380.745 788.837 431.591 791.269 482.128 789.756C502.472 789.147 522.807 788.253 543.141 787.383C554.277 786.869 565.415 786.416 576.556 786.024C586.719 785.698 597.259 785.691 607.282 784.215C608.526 776.513 608.401 770.235 608.49 762.435C625.322 766.974 635.914 758.632 647.399 747.502C650.069 747.703 656.569 747.983 658.886 746.941L659.153 745.654Z"/><path fill="#DEAF84" d="M235.011 601.329L452.993 602.559L452.957 736.209L453.014 769.964C453.018 772.32 453.144 783.804 452.766 785.701C380.633 784.778 307.684 781.798 235.437 780.401L235.414 716.552C234.747 705.016 235.185 688.815 235.161 676.989L235.011 601.329Z"/><path fill="#AC7D52" d="M235.011 601.329L452.993 602.559L452.957 736.209L453.014 769.964C453.018 772.32 453.144 783.804 452.766 785.701C452.194 782.388 452.403 771.686 452.41 767.861L452.467 734.796L452.535 615.039C418.878 613.451 382.899 614.433 348.89 613.893L288.254 612.983C271.101 612.617 252.581 611.879 235.512 612.528C235.852 640.424 235.412 668.414 235.647 696.318C235.701 702.816 235.879 710.104 235.414 716.552C234.747 705.016 235.185 688.815 235.161 676.989L235.011 601.329Z"/><path fill="#AC7D52" d="M584.236 600.765C590.649 600.611 597.156 600.59 603.577 600.516L603.429 779.944C561.201 782.544 517.267 783.634 474.875 785.04L457.502 785.479L457.508 602.59L584.236 600.765Z"/><defs><linearGradient id="gradient_0" gradientUnits="userSpaceOnUse" x1="590.33118" y1="435.96863" x2="581.31561" y2="339.97604"><stop offset="0" stop-color="#432F2D"/><stop offset="1" stop-color="#705860"/></linearGradient></defs><path fill="url(#gradient_0)" d="M624.964 338.006C647.845 342.018 659.219 353.715 675.476 369.014C684.397 377.41 694.329 385.982 704.638 392.594C714.673 397.603 717.969 398.594 729.015 400.763C730.802 402.602 732.228 403.968 733.735 406.065C731.471 408.016 725.045 412.637 726.251 416.863C726.549 417.905 724.752 418.941 724.163 419.567C715.016 425.44 691.986 428.754 681.34 428.507C666.799 428.636 659.616 428.284 645.366 426.299C640.684 425.127 636.932 423.974 632.363 422.5C624.753 419.61 617.64 415.55 611.28 410.468C599.568 401.251 591.341 390.05 575.326 387.741C555.03 384.815 540.608 405.347 524.672 417.473C515.375 422.097 507.509 425.843 496.872 426.631C488.631 427.469 482.996 425.701 475.455 422.83L478.457 416.55C475.155 413.884 472.761 411.9 469.734 408.954C476.971 393.126 492.732 382.163 502.193 367.167C507.348 358.996 515.105 350.299 522.7 344.395C523.932 345.487 525.219 346.515 526.556 347.476C533.764 352.693 544.25 356.413 553.332 355.131C557.418 354.554 558.545 353.031 560.715 349.855C571.203 352.37 573.122 351.192 582.85 347.61L588.29 352.455C602.268 353.092 616.472 350.114 624.964 338.006Z"/><path fill="#362625" d="M704.638 392.594C714.673 397.603 717.969 398.594 729.015 400.763C730.802 402.602 732.228 403.968 733.735 406.065C731.471 408.016 725.045 412.637 726.251 416.863C726.549 417.905 724.752 418.941 724.163 419.567C715.016 425.44 691.986 428.754 681.34 428.507C692.445 415.963 699.678 409.207 704.638 392.594Z"/><path fill="#634A4F" d="M632.363 422.5C631.127 417.397 630.416 414.557 633.142 409.512C639.709 397.359 672.138 400.682 663.022 418.04C659.226 425.268 649.43 423.058 645.366 426.299C640.684 425.127 636.932 423.974 632.363 422.5Z"/><path fill="#634A4F" d="M496.872 426.631C481.778 412.564 499.996 403.27 513.868 407.267C519.195 408.802 522.249 412.575 524.672 417.473C515.375 422.097 507.509 425.843 496.872 426.631Z"/><path d="M608.904 360.528C631.588 361.883 635.758 392.034 613.792 401.294C610.374 401.764 606.892 401.226 603.775 399.747C590.929 393.502 591.551 370.847 602.629 363.223C604.417 361.992 606.844 361.228 608.904 360.528Z"/><path fill="#FEFDF8" d="M607.705 366.003C624.528 364.191 626.47 386.675 618.109 393.359L617.571 393.041L617.696 391.381C619.517 377.095 614.247 372.074 600.403 373.971C602.294 369.207 603.495 368.451 607.705 366.003Z"/><path fill="#FEFDF8" d="M608.986 377.754C610.239 377.299 611.641 377.564 612.642 378.444C613.644 379.324 614.087 380.679 613.798 381.981C613.509 383.282 612.534 384.323 611.254 384.697C609.361 385.249 607.37 384.199 606.758 382.324C606.145 380.449 607.131 378.426 608.986 377.754Z"/><path d="M532.967 361.506C553.269 362.313 558.074 393.942 535.764 401.843C527.523 401.143 521.602 397.454 518.781 389.311C516.81 383.605 517.196 377.349 519.853 371.929C522.866 365.903 526.962 363.505 532.967 361.506Z"/><path fill="#FEFDF8" d="M532.758 366.481C536.75 367.037 542.492 369.448 544.188 373.403C542.048 374.579 534.786 372.29 530.914 376.195C527.458 379.68 527.21 383.472 526.888 388.122C527.384 390.921 528.08 393.501 528.791 396.244C520.471 385.39 518.72 373.117 532.758 366.481Z"/><path fill="#FEFDF8" d="M533.061 378.757C534.833 377.888 536.974 378.613 537.854 380.38C538.734 382.147 538.023 384.292 536.262 385.184C534.485 386.083 532.315 385.364 531.427 383.581C530.539 381.799 531.272 379.633 533.061 378.757Z"/><path fill="#DEAF84" d="M502.669 332.882C512.472 317.313 523.224 304.286 538.862 294.187C592.305 259.676 660.708 277.181 695.219 329.068C704.474 339.658 711.347 355.085 718.829 367.152C723.524 374.723 729.944 382.271 734.489 389.745L737.233 392.891C734.744 394.293 732.171 395.379 729.562 396.534C720.528 394.821 713.765 393.017 706.029 387.872C687.289 377.986 673.345 358.069 655.942 346.011C646.743 337.953 635.878 337.037 625.744 333.222C612.543 328.251 617.101 323.859 599.975 328.857C591.498 333.166 591.71 335.345 585.016 340.589C575.464 348.072 562.838 349.183 555.263 338.845C548.356 333.439 542.033 329.205 532.593 330.054C529.943 330.293 525.724 331.293 524.016 333.504C522.754 335.14 521.463 339.066 520.472 340.266C517.748 343.566 512.763 346.355 509.963 349.72C497.313 364.921 485.545 385.69 468.574 396.337C474.447 383.171 484.865 364.552 492.124 351.761C494.547 346.252 499.484 338.029 502.669 332.882Z"/><path fill="#FEFDF8" d="M599.975 328.857L599.769 327.682C602.104 324.601 612.821 320.638 616.813 320.265C651.986 316.978 675.773 350.642 701.912 368.557C704.047 370.021 705.815 371.792 707.963 373.098L708.04 373.609C707.875 376.963 707.921 385.619 706.029 387.872C687.289 377.986 673.345 358.069 655.942 346.011C646.743 337.953 635.878 337.037 625.744 333.222C612.543 328.251 617.101 323.859 599.975 328.857Z"/><path fill="#FEFDF8" d="M508.608 335.631C523.726 323.786 537.476 314.956 552.992 333.435C554.321 335.018 555.29 336.742 555.263 338.845C548.356 333.439 542.033 329.205 532.593 330.054C529.943 330.293 525.724 331.293 524.016 333.504C522.754 335.14 521.463 339.066 520.472 340.266C517.748 343.566 512.763 346.355 509.963 349.72C497.313 364.921 485.545 385.69 468.574 396.337C474.447 383.171 484.865 364.552 492.124 351.761C494.547 346.252 499.484 338.029 502.669 332.882C504.578 333.776 506.685 334.826 508.608 335.631Z"/><path fill="#CDBEA3" d="M492.124 351.761C494.547 346.252 499.484 338.029 502.669 332.882C504.578 333.776 506.685 334.826 508.608 335.631C505.515 338.781 494.638 350.58 492.124 351.761Z"/><path fill="#AC7D52" d="M695.219 329.068C704.474 339.658 711.347 355.085 718.829 367.152C723.524 374.723 729.944 382.271 734.489 389.745L737.233 392.891C734.744 394.293 732.171 395.379 729.562 396.534C720.528 394.821 713.765 393.017 706.029 387.872C707.921 385.619 707.875 376.963 708.04 373.609L707.963 373.098C706.899 362.876 704.555 352.83 700.985 343.193C699.307 338.794 696.016 333.463 695.219 329.068Z"/><path fill="#CDBEA3" d="M708.04 373.609C715.373 378.665 726.35 386.665 734.489 389.745L737.233 392.891C734.744 394.293 732.171 395.379 729.562 396.534C720.528 394.821 713.765 393.017 706.029 387.872C707.921 385.619 707.875 376.963 708.04 373.609Z"/><path fill="#CAC9CA" d="M461.734 493.261C465.576 493.103 469.55 493.317 473.406 493.288C487.554 493.181 501.631 493.144 515.775 493.523C517.587 495.566 518.336 496.755 519.785 499.002C519.819 499.501 519.843 500 519.858 500.5C520.439 518.964 519.796 537.708 519.877 556.19C519.89 559.22 520.009 566.798 517.979 568.943C511.885 571.866 490.301 570.68 482.48 570.674L424.25 570.655L373.998 570.544L370.547 566.676C369.642 558.668 370.065 542.016 370.089 533.426C370.114 524.417 369.436 505.951 370.623 497.698C372.439 495.535 372.825 495.153 375.115 493.509C384.205 493.423 393.295 493.416 402.385 493.489C410.454 498.448 421.572 500.169 429.116 493.323C439.988 493.429 450.862 493.408 461.734 493.261Z"/><path d="M400.977 502.197C413.532 501.023 430.914 502.313 444.053 502.114C458.502 502.304 472.77 501.188 487.195 502.342C507.239 503.945 516.608 526.555 505.739 542.593C500.975 549.622 494.561 551.606 486.707 552.969C469.083 553.243 451.088 553.115 433.41 552.994C420.325 552.141 395.593 556.784 385.234 547.197C367.536 530.819 377.115 504.603 400.977 502.197Z"/><path fill="#E04A46" d="M401.104 506.666C409.912 506.022 419.091 506.869 427.716 506.698C455.256 506.15 457.738 545.467 431.125 548.489C413.952 548.605 384.831 553.674 381.056 531.312C380.087 525.559 381.48 519.659 384.918 514.946C389.357 508.896 394.242 507.612 401.104 506.666Z"/><path fill="#FEFDF8" d="M387.828 513.545L388.7 513.167C390.546 513.943 392.165 516.344 393.734 518.006C406.347 516.676 410.313 528.748 403.542 536.01C401.971 537.716 399.757 538.685 397.438 538.683C389.944 538.668 387.397 532.606 387.633 525.975C386.375 524.951 385.271 524.406 383.866 523.626L383.304 523.344C382.485 520.257 385.949 515.741 387.828 513.545Z"/><path fill="#D95B56" d="M387.828 513.545L388.7 513.167C390.546 513.943 392.165 516.344 393.734 518.006C389.8 520.471 389.217 521.549 387.633 525.975C386.375 524.951 385.271 524.406 383.866 523.626L383.304 523.344C382.485 520.257 385.949 515.741 387.828 513.545Z"/><path fill="#F5856D" d="M387.828 513.545C387.947 516.27 385.392 521.588 383.866 523.626L383.304 523.344C382.485 520.257 385.949 515.741 387.828 513.545Z"/><path fill="#D95B56" d="M395.508 521.295C404.134 522.362 402.007 529.305 398.703 534.594C390.524 533.391 392.275 526.666 395.508 521.295Z"/><path fill="#FEFDF8" d="M410.074 518.011C413.174 517.912 420.052 517.565 422.752 518.559C423.438 519.811 423.375 519.177 422.988 520.518C420.113 522.396 415.264 520.901 414.126 523.945L414.874 525.382C417.537 527.54 419.286 525.674 421.87 528.294L421.758 530.052C419.59 530.595 417.06 530.545 414.791 530.619C414.692 533.881 415.404 537.307 412.444 539.014C407.673 538.01 409.676 521.818 410.074 518.011Z"/><path fill="#FEFDF8" d="M431.955 517.692C434.787 517.871 435.613 517.918 438.319 518.686C439.455 520.05 439.19 519.302 439.31 520.936C437.008 522.803 433.501 521.204 430.602 523.024C430.091 524.771 430.112 523.874 430.852 525.794C432.766 526.971 433.834 526.318 436.664 526.726C438.082 528.08 437.87 527.344 437.975 528.83C436.386 530.624 434.251 530.574 432.012 530.633C431.513 530.734 431.857 530.63 431.118 531.235C431.063 533.441 431.388 535.576 430.246 537.479C428.764 538.612 428.584 538.481 426.757 538.691L426.012 538.083C426.021 532.615 424.471 522.783 427.041 518.888C428.56 517.683 429.967 517.839 431.955 517.692Z"/><path fill="#5BAE62" d="M443.822 506.502C458.008 506.562 473.331 505.608 487.444 506.938C492.69 507.811 499.858 511.022 502.487 515.923C509.715 529.397 505.427 539.346 493.829 546.626C485.762 549.768 454.459 548.502 444.33 548.472C457.736 533.325 458.283 521.091 443.822 506.502Z"/><path fill="#FEFDF8" d="M464.773 517.488C479.078 517.404 481.845 530.491 470.31 538.528C466.096 538.481 462.086 537.576 459.51 533.921C457.97 531.735 457.398 529.011 457.928 526.389C458.825 521.812 461.234 519.927 464.773 517.488Z"/><path fill="#5BAE62" d="M465.515 521.313C474.88 521.905 473.176 528.473 469.689 534.527C460.725 534.275 462.006 527.056 465.515 521.313Z"/><path fill="#FEFDF8" d="M492.472 530.392C492.451 526.286 491.677 521.928 493.889 518.611L494.846 518.501C499.024 522.445 497.526 533.558 496.112 538.701C491.306 538.612 486.878 528.445 484.926 524.548C485.462 528.679 486.775 535.497 483.029 538.252C478.839 538.276 480.516 520.997 480.608 517.754C481.138 517.758 483.181 517.801 483.541 517.904C486.871 518.849 490.774 527.279 492.472 530.392Z"/><path fill="#CAC9CA" d="M242.224 473.072C258.807 472.878 275.393 472.876 291.977 473.067C302.841 473.107 319.049 472.858 329.666 473.856C332.376 479.4 335.977 492.711 337.764 499.088C342.532 516.514 347.136 533.984 351.575 551.496C349.307 551.837 346.789 552.077 344.491 552.348C339.945 552.754 335.302 553.26 330.773 553.816C309.306 556.454 287.676 557.993 266.203 560.461C261.474 546.545 256.91 528.834 252.855 514.588C249.444 502.605 244.274 484.993 242.224 473.072Z"/><path d="M259.548 475.748C272.148 475.823 284.748 475.822 297.347 475.745C306.764 475.66 318.976 475.166 328.096 476.245C331.907 485.076 335.081 497.68 337.635 507.25L348.776 549.232C343.509 550.552 335.026 551.148 329.38 551.622C310.261 553.654 287.149 556.645 268.234 557.274C264.435 545.686 260.748 530.785 257.419 518.834C254.397 507.984 247.846 487.098 246.742 476.706C251.453 475.98 254.822 475.896 259.548 475.748Z"/><path fill="#FEFDF8" d="M262.956 478.25C283.545 477.579 306.482 478.235 327.218 478.44C333.862 499.737 340.12 525.66 345.739 547.392C339.547 548.183 333.34 548.848 327.12 549.387L269.957 555.143C266.805 544.799 264.316 534.891 261.421 524.52C257.072 509.231 252.881 493.896 248.85 478.52L262.956 478.25Z"/><path fill="#52B6A1" d="M316.124 504.492C324.706 504.152 332.078 511.207 327.793 519.183C326.825 520.98 325.177 522.315 323.218 522.89C319.351 524.044 316.243 522.478 312.916 520.834C302.756 521.582 292.272 522.784 282.119 523.869L273.574 524.579C271.526 523.19 268.592 521.374 267.894 518.831C267.54 517.539 267.884 516.424 268.642 515.367C272.506 509.975 302.716 509.793 310.624 508.992C312.817 506.818 313.653 506.219 316.124 504.492Z"/><path fill="#FEFDF8" d="M317.283 507.441C325.072 507.47 329.087 514.411 322.475 520.087C313.231 520.16 309.915 513.9 317.283 507.441Z"/><path fill="#F5856D" d="M312.744 486.699C315.017 486.417 317.163 486.407 319.242 487.518C321.057 488.488 323.279 490.479 323.696 492.601C323.94 493.846 323.858 494.79 323.055 495.82C319.179 500.794 289.199 501.207 281.329 501.786C277.433 505.004 276.954 505.589 271.805 506.286C267.134 504.372 263.583 502.41 262.411 496.895C261.492 492.575 265.985 487.681 270.225 487.273C274.171 486.894 276.913 489.929 280.837 489.642C291.496 489.167 302.138 487.825 312.744 486.699Z"/><path fill="#FEFDF8" d="M270.027 489.923C278.698 490.702 281.395 497.064 274.553 503.167C266.039 501.905 262.382 495.593 270.027 489.923Z"/><path fill="#F6C849" d="M292.031 532.405C301.449 533.352 335.69 522.375 334.526 536.33C330.263 545.087 301.386 541.477 292.228 545.187C291.07 544.561 290.904 544.323 289.859 543.466C290.989 539.758 290.467 538.985 288.637 535.503C289.667 533.802 290.323 533.556 292.031 532.405Z"/><path fill="#EFD47E" d="M292.228 545.187C291.548 546.481 291.11 547.116 290.008 548.141C288.521 549.546 286.505 550.252 284.466 550.082C281.055 549.83 278.185 547.653 276.034 545.048C273.029 541.409 272.038 534.1 276.793 531.383C281.25 528.835 287.419 531.008 292.031 532.405C290.323 533.556 289.667 533.802 288.637 535.503C290.467 538.985 290.989 539.758 289.859 543.466C290.904 544.323 291.07 544.561 292.228 545.187Z"/><path fill="#FEFDF8" d="M289.859 543.466C275.25 551.524 272.629 527.869 288.637 535.503C290.467 538.985 290.989 539.758 289.859 543.466Z"/><path fill="#FEFDF8" d="M720.785 528.617C727.244 550.642 731.461 576.334 737.766 599.523C726.084 606.071 711.491 614.176 698.419 617.777C672.323 627.662 636.262 631.129 608.483 630.107L608.445 600.494C612.26 600.542 618.97 601.461 622.441 599.776C623.716 599.156 623.776 598.016 624.157 596.708C623.884 588.747 624.044 580.838 623.884 572.892C635.631 573.678 638.696 573.473 650.504 572.261C654.714 574.361 657.346 575.778 661.967 576.892C664.963 575.931 668.13 574.125 670.521 573.328C679.447 570.351 678.878 572.918 684.826 564.359C702.803 556.368 712.236 546.333 720.785 528.617Z"/><path fill="#CAC9CA" d="M720.785 528.617C727.244 550.642 731.461 576.334 737.766 599.523C726.084 606.071 711.491 614.176 698.419 617.777C708.517 601.861 710.293 586.338 703.078 568.698C694.169 573.622 673.428 585.708 664.265 584.983C652.085 584.018 636.522 584.626 624.491 583.675C624.586 587.505 624.794 593.077 624.157 596.708C623.884 588.747 624.044 580.838 623.884 572.892C635.631 573.678 638.696 573.473 650.504 572.261C654.714 574.361 657.346 575.778 661.967 576.892C664.963 575.931 668.13 574.125 670.521 573.328C679.447 570.351 678.878 572.918 684.826 564.359C702.803 556.368 712.236 546.333 720.785 528.617Z"/><path fill="#DEAF84" d="M602.089 409.133C623.637 426.946 638.997 432.53 667.385 433.564C689.821 433.445 702.53 433.25 724.08 425.341C701.624 454.874 668.613 461.28 633.886 466.088C605.368 470.035 562.722 470.102 535.105 461.305C515.549 455.245 493.428 447.254 480.406 430.439C481.113 430.574 481.823 430.7 482.534 430.817C501.137 433.875 517.361 428.282 532.391 417.458L537.51 412.918C537.399 416.777 536.89 420.322 538.664 423.718C541.273 425.471 552.93 431.982 550.15 435.528C546.662 436.584 544.261 436.074 540.912 434.683C540.005 435.667 539.422 436.032 539.244 437.317C541.417 441.645 550.938 439.606 554.59 438.422C564.03 442.963 571.273 442.357 580.517 437.897C583.707 439.74 589.595 436.301 592.264 434.354C603.498 426.159 604.879 421.991 602.089 409.133Z"/><path fill="#AC7D52" d="M667.385 433.564C689.821 433.445 702.53 433.25 724.08 425.341C701.624 454.874 668.613 461.28 633.886 466.088C605.368 470.035 562.722 470.102 535.105 461.305C540.412 460.529 547.677 462.428 553.171 462.895C595.752 466.51 641.855 458.476 677.608 434.005C674.375 434.034 670.465 434.242 667.385 433.564Z"/><path fill="#FEFDF8" d="M537.51 412.918C537.399 416.777 536.89 420.322 538.664 423.718C541.273 425.471 552.93 431.982 550.15 435.528C546.662 436.584 544.261 436.074 540.912 434.683C534.934 429.503 532.993 425.297 532.391 417.458L537.51 412.918Z"/><path fill="#252A33" d="M728.691 610.405C729.549 610.412 729.139 610.271 729.85 610.992C730.167 616.809 728.147 623.388 726.068 628.773C711.321 666.976 667.956 661.216 651.85 684.127C644.599 694.442 644.354 709.07 646.521 721.031C635.728 725.053 623.605 727.522 612.297 724.182C610.967 722.28 609.711 720.297 608.445 718.349C608.118 690.575 608.724 662.85 608.173 635.079C644.967 640.127 695.892 627.187 728.691 610.405Z"/><path fill="#FEFDF8" d="M674.2 462.914C682.729 460.451 688.495 457.921 696.642 454.431C698.497 456.441 700.382 458.656 702.197 460.723C706.299 466.419 708.929 469.994 711.825 476.467C719.52 490.182 721.608 506.343 717.649 521.563C713.197 538.256 701.956 550.238 687.119 558.605C686.707 558.837 686.292 559.065 685.874 559.287C686.312 553.337 686.548 550.69 685.627 544.834C681.743 527.664 674.078 520.396 661.348 509.329C663.33 506.212 664.919 502.862 666.08 499.355C666.725 497.367 668.121 492.594 665.297 491.762C662.584 494.232 659.28 503.193 657.495 507.049C654.833 506.48 652.641 506.309 649.953 506.054C648.42 506.933 646.548 508.682 645.169 509.383C637.228 513.42 633.022 513.942 632.289 523.819C623.414 527.944 614.303 531.542 605.005 534.596C602.175 531.097 599.241 528.625 595.803 525.769C598.12 522.027 613.509 499.918 595.034 500.602C591.226 500.743 586.807 510.853 584.883 514.746C585.678 507.222 586.886 493.289 589.122 486.625C591.288 484.269 593.332 482.666 595.794 480.636C603.837 487.488 606.998 496.04 612.206 505.209C635.736 498.517 657.78 480.383 674.2 462.914Z"/><path fill="#CAC9CA" d="M711.825 476.467C719.52 490.182 721.608 506.343 717.649 521.563C713.197 538.256 701.956 550.238 687.119 558.605C686.707 558.837 686.292 559.065 685.874 559.287C686.312 553.337 686.548 550.69 685.627 544.834C690.097 542.674 695.072 538.628 698.376 534.93C713.841 517.616 712.872 497.772 711.825 476.467Z"/><path fill="#CAC9CA" d="M674.2 462.914C682.729 460.451 688.495 457.921 696.642 454.431C698.497 456.441 700.382 458.656 702.197 460.723C695.041 464.34 688.657 467.618 681.143 470.504C675.865 472.531 668.457 474.167 663.743 476.825C660.478 478.667 656.072 484.176 652.725 486.823C640.54 496.462 626.713 504.887 611.909 509.746C607.196 503.704 600.733 490.835 596.919 487.08C594.037 486.803 592.034 486.636 589.122 486.625C591.288 484.269 593.332 482.666 595.794 480.636C603.837 487.488 606.998 496.04 612.206 505.209C635.736 498.517 657.78 480.383 674.2 462.914Z"/><path fill="#DEAF84" d="M217.518 575.502L454.494 575.518C454.469 583.009 454.37 590.499 454.199 597.988C428.104 598.38 402.632 597.756 376.614 597.59L217.517 596.475L217.518 575.502Z"/><path fill="#DEAF84" d="M742.314 602.332C739.672 576.991 728.529 548.084 724.593 522.543C723.073 512.68 725.921 502.8 723.015 493.026C722.34 490.755 721.413 488.173 722.449 486.024C724.109 485.299 724.913 485.563 726.713 485.76C733.055 485.956 753.477 485.068 756.686 488.547C759.149 491.216 756.872 521.88 756.614 527.059L754.255 576.808L752.204 621.2C751.906 627.686 751.766 637.663 751.097 643.751L738.065 641.974C733.764 641.522 730.975 641.099 726.745 640.213C733.981 626.666 734.579 621.03 735.574 606.05C738.63 604.692 739.519 604.186 742.314 602.332Z"/><path fill="#AC7D52" d="M742.314 602.332C739.672 576.991 728.529 548.084 724.593 522.543C723.073 512.68 725.921 502.8 723.015 493.026C722.34 490.755 721.413 488.173 722.449 486.024C724.109 485.299 724.913 485.563 726.713 485.76C732.498 512.901 738.794 538.669 743.021 566.248C747.652 596.467 749.53 612.663 738.065 641.974C733.764 641.522 730.975 641.099 726.745 640.213C733.981 626.666 734.579 621.03 735.574 606.05C738.63 604.692 739.519 604.186 742.314 602.332Z"/><path fill="#FEFDF8" d="M500.48 479.048C500.907 464.994 497.098 460.676 490.413 449.524L490.73 448.919C494.43 448.506 501.904 453.609 505.378 455.747C517.139 460.771 532.97 467.031 545.718 468.757L548.42 475.459C553.873 485.525 557.34 492.896 566.464 500.007C571.887 494.774 572.946 488.087 580.888 481.923L583.411 486.386C583.924 494.655 579.795 517.376 578.334 526.617C578.16 527.718 575.96 531.463 575.265 532.656C568.253 536.254 566.155 539.987 564.258 547.53C562.259 555.48 561.698 562.832 561.53 570.984L545.332 570.985C548.83 549.957 546.289 519.922 545.986 498.231C545.902 492.233 536.446 488.431 531.508 484.97C530.797 486.672 530.676 487.147 529.495 488.627C525.89 489.497 503.14 488.652 497.934 488.633C499.056 485.281 499.684 482.5 500.48 479.048Z"/><path fill="#CAC9CA" d="M500.48 479.048C508.998 479.846 516.798 480.715 525.013 483.279C526.079 483.612 530.741 484.983 531.508 484.97C530.797 486.672 530.676 487.147 529.495 488.627C525.89 489.497 503.14 488.652 497.934 488.633C499.056 485.281 499.684 482.5 500.48 479.048Z"/><path fill="#CAC9CA" d="M505.378 455.747C517.139 460.771 532.97 467.031 545.718 468.757L548.42 475.459C538.475 471.945 510.038 464.467 505.378 455.747Z"/><path fill="#CAC9CA" d="M580.888 481.923L583.411 486.386C579.095 489.061 577.656 491.519 574.511 495.151C572.296 497.709 570.082 501.824 566.464 500.007C571.887 494.774 572.946 488.087 580.888 481.923Z"/><path fill="#AC7D52" d="M458.512 575.509L619.563 575.931C619.6 580.031 620.121 591.902 618.731 595.138L617.625 595.546L458.486 597.972C458.705 590.316 458.638 583.174 458.512 575.509Z"/><path fill="#AC7D52" d="M761.582 486.938C768.192 487.179 772.665 486.58 772.556 494.712C772.458 502.07 771.963 509.254 771.559 516.588L769.641 552.667L763.862 667.328C756.417 667.992 744.885 670.059 737.098 671.19C718.346 673.879 699.61 676.668 680.889 679.557C678.62 679.92 673.556 680.965 671.805 679.913C669.383 673.836 683.966 670.921 687.802 669.464C694.997 666.733 701.943 662.092 709.358 660.167C724.713 656.18 740.476 654.642 755.418 649.019C757.512 618.586 758.248 586.278 759.756 555.602L761.592 519.625C762.158 508.771 763.171 497.698 761.582 486.938Z"/><path fill="#905732" d="M639.339 526.355C649.622 534.693 653.346 543.911 654.664 557.105L654.724 557.75C654.938 561.032 655.03 563.545 654.995 566.831C640.788 568.824 628.064 569.384 613.883 566.62C606.222 565.127 599.4 563.595 591.596 562.919C585.635 562.402 579.994 565.91 576.292 565.642L575.626 564.96C575.707 563.731 575.451 564.136 576.051 563.35C578.512 560.223 581.05 558.974 584.808 558.073L585.523 557.547C582.721 551.147 574.881 561.542 570.279 560.619C570.236 556.2 577.372 552.611 579.73 548.806L579.634 547.978C575.404 547.186 571.251 553.077 568.102 552.974C567.089 548.232 577.36 544.588 577.587 541.066C575.36 540.353 571.383 542.205 569.2 543.109C572.775 540.178 577.412 536.3 582.378 535.743C584.087 535.552 593.809 537.085 594.66 534.956C594.88 534.407 594.03 532.415 593.731 531.633L594.276 531.181C598.171 531.967 600.746 536.273 602.977 539.525C616.983 536.547 626.227 531.183 639.339 526.355Z"/><path fill="#764629" d="M654.724 557.75C654.938 561.032 655.03 563.545 654.995 566.831C640.788 568.824 628.064 569.384 613.883 566.62C606.222 565.127 599.4 563.595 591.596 562.919C585.635 562.402 579.994 565.91 576.292 565.642L575.626 564.96C575.707 563.731 575.451 564.136 576.051 563.35C578.512 560.223 581.05 558.974 584.808 558.073L585.523 557.547C587.578 559.088 592.457 558.254 595.454 558.645C610.81 560.647 625.257 562.226 640.773 560.089C645.204 559.478 650.553 558.244 654.724 557.75Z"/><path fill="#905732" d="M576.051 563.35C578.512 560.223 581.05 558.974 584.808 558.073C584.845 562.635 580.068 565.294 576.051 563.35Z"/><path fill="#FEFDF8" d="M543.012 408.238C565.356 384.847 580.415 388.471 602.089 409.133C604.879 421.991 603.498 426.159 592.264 434.354C589.595 436.301 583.707 439.74 580.517 437.897C582.442 436.517 582.751 436.373 584.179 434.549C584.477 432.863 584.663 433.582 583.771 432.283C580.061 431.432 574.871 436.454 570.974 436.646C566.53 436.864 557.577 437.16 555.024 432.927C554.687 426.904 564.446 426.477 566.298 422.432C573.67 406.33 551.589 406.801 543.012 408.238Z"/><path fill="#905732" d="M444.659 459.028C450.537 457.017 454.148 456.423 460.34 455.725C462.209 456.965 463.492 457.599 464.767 459.459C472.904 468.321 474.185 478.077 467.715 488.424L456.563 488.418C454.71 485.051 451.073 478.703 447.406 477.182L446.51 477.434C444.952 481.571 449.57 483.836 451.335 487.478C451.54 488.013 451.496 487.697 451.278 488.431C445.238 488.772 439.898 485.848 435.304 482.216L433.719 482.737C430.15 484.839 425.097 491.467 422.263 491.307L421.506 490.442C420.598 486.03 422.202 482.749 424.306 479.108C425.389 476.981 425.659 476.776 424.354 474.707L423.418 474.631C417.427 478.116 419.08 490.521 414.362 492.897C408.622 491.861 412.299 481.81 412.23 477.29L411.605 476.876C405.484 480.383 407.416 488.571 406.317 490.287C405.188 489.479 404.47 488.571 404.019 487.24C403.132 484.617 403.792 482.534 404.784 480.213C411.738 463.936 428.864 471.313 434.835 468.998L434.708 468.357C432.681 466.643 431.98 466.434 429.498 465.403C434.974 462.506 438.772 460.884 444.659 459.028Z"/><path fill="#AC7D52" d="M444.659 459.028C450.537 457.017 454.148 456.423 460.34 455.725C462.209 456.965 463.492 457.599 464.767 459.459C464.95 463.133 467.642 467.798 466.727 471.005C456.442 480.509 453.199 464.708 448.182 460.742C446.131 460.496 446.241 460.453 444.659 459.028Z"/><path fill="#764629" d="M424.306 479.108C427.29 483.38 429.078 481.727 433.719 482.737C430.15 484.839 425.097 491.467 422.263 491.307L421.506 490.442C420.598 486.03 422.202 482.749 424.306 479.108Z"/><path fill="#764629" d="M435.304 482.216C442.216 480.631 447.911 488.08 451.335 487.478C451.54 488.013 451.496 487.697 451.278 488.431C445.238 488.772 439.898 485.848 435.304 482.216Z"/><path fill="#9C9A9A" d="M521.816 493.517C527.533 493.485 541.22 491.353 541.251 499.623C541.293 511.135 544.621 562.968 539.541 570.051C536.742 570.857 526.242 570.565 522.803 570.534C523.63 567.307 524.739 559.464 524.528 556.391C523.645 543.532 526.655 503.412 521.816 493.517Z"/><path fill="#DEAF84" d="M627.543 274.826C636.541 265.308 658.683 240.7 674.723 245.245C678.077 246.196 680.769 252.741 682.153 256.005C688.171 274.671 689.244 293.525 688.963 312.955C687.32 311.249 679.54 303.012 678.075 302.215C676.352 299.879 678.278 287.707 678.396 283.772C679.696 240.637 661.249 252.464 640.231 278.639C636.162 277.258 631.692 276.04 627.543 274.826Z"/><path fill="#AC7D52" d="M682.153 256.005C688.171 274.671 689.244 293.525 688.963 312.955C687.32 311.249 679.54 303.012 678.075 302.215C683.804 297.835 681.678 264.23 682.107 256.743L682.153 256.005Z"/><path fill="#FEFDF8" d="M643.519 469.395C650.919 468.253 657.816 467.137 665.153 465.674C654.523 479.708 629.84 492.588 614.141 499.904C610.122 492.201 607.676 487.776 602.431 480.647L599.094 477.495L603.825 473.089C617.793 472.395 629.553 471.149 643.519 469.395Z"/><path fill="#CAC9CA" d="M603.825 473.089C617.793 472.395 629.553 471.149 643.519 469.395C644.321 471.369 644.77 473.091 646.314 474.483C647.945 474.629 648.42 474.605 650.002 474.522L650.498 474.85C639.513 477.843 629.591 478.51 618.293 479.339C613.292 479.706 607.28 479.76 602.431 480.647L599.094 477.495L603.825 473.089Z"/><path fill="#FEFDF8" d="M659.588 557.477C658.007 545.582 654.205 531.905 644.032 524.358C642.174 522.98 639.444 522.061 637.323 520.694L637.338 519.453C639.113 516.958 639.659 517.502 641.745 516.122C649.499 510.994 657.486 529.978 662.28 527.672C663.134 522.445 651.906 516.354 650.208 511.589L650.768 511.013C653.241 510.629 655.879 512.304 657.965 513.54C671.33 521.463 678.138 533.976 681.363 548.584C678.015 551.305 676.583 551.853 672.437 553.133C671.305 546.089 671.078 540.921 666.877 534.942L665.944 534.455C664.357 536.875 668.307 551.561 668.589 555.902C665.844 556.407 662.279 557.156 659.588 557.477Z"/><path fill="#DEAF84" d="M507.688 316.499C507.61 316.157 507.538 315.814 507.472 315.47C505.842 306.997 505.745 296.642 506.18 287.989C508.498 241.878 519.316 240.586 552.701 266.435C551.384 271.226 549.489 273.193 544.546 274.37C543.666 273.566 542.782 272.766 541.894 271.971C525.85 257.626 515.429 252.453 513.79 279.018C513.105 290.106 513.353 297.403 515.005 308.464C512.672 311.15 510.103 313.866 507.688 316.499Z"/><path fill="#FEFDF8" d="M519.678 268.524C520.473 266.379 519.969 266.865 521.552 265.553C529.055 263.713 542.303 278.666 546.671 283.908C544.967 284.866 540.347 287.626 538.794 288.298C531.698 293.125 524.993 298.502 518.74 304.38C517.348 289.875 517.637 282.787 519.678 268.524Z"/><path fill="#CDBEA3" d="M519.678 268.524C520.473 266.379 519.969 266.865 521.552 265.553C529.055 263.713 542.303 278.666 546.671 283.908C544.967 284.866 540.347 287.626 538.794 288.298C535.829 279.869 529.598 269.25 519.678 268.524Z"/><path fill="#FEFDF8" d="M464.617 452.578C461.511 451.45 457.641 451.218 455.799 450.088L455.663 449.348C460.536 444.407 468.689 446.307 472.804 450.814C475.328 453.579 481.672 463.622 483.887 463.769C486.849 457.331 474.078 450.199 474.732 445.928C481.662 443.178 491.308 459.057 493.336 464.488C494.715 468.139 495.482 471.992 495.605 475.892C492.303 476.527 491.805 476.478 488.365 476.158C488.235 474.938 488.074 473.723 487.882 472.511C487.55 470.348 487.049 467.207 485.2 465.857L484.547 466.529C483.829 469.544 484.359 472.016 484.709 475.12C484.793 481.09 483.855 483.298 481.602 488.69L473.902 488.45C479.751 473.557 475.483 463.054 464.617 452.578Z"/><path fill="#CAC9CA" d="M464.617 452.578C477.373 453.433 476.335 471.933 482.21 474.996L484.709 475.12C484.793 481.09 483.855 483.298 481.602 488.69L473.902 488.45C479.751 473.557 475.483 463.054 464.617 452.578Z"/><path fill="#FEFDF8" d="M644.84 280.536C652.15 271.317 658.906 263.927 669.793 259.271L672.18 265.414C674.121 277.204 674.61 285.436 672.482 297.371C667.169 293.333 661.599 289.278 655.83 285.913C652.655 284.56 648.061 282.115 644.84 280.536Z"/><path fill="#CDBEA3" d="M644.84 280.536C652.15 271.317 658.906 263.927 669.793 259.271L672.18 265.414C665.839 269.549 658.575 278.899 655.83 285.913C652.655 284.56 648.061 282.115 644.84 280.536Z"/><defs><linearGradient id="gradient_1" gradientUnits="userSpaceOnUse" x1="643.0072" y1="739.72284" x2="608.81927" y2="746.78076"><stop offset="0" stop-color="#724424"/><stop offset="1" stop-color="#A1613A"/></linearGradient></defs><path fill="url(#gradient_1)" d="M620.402 731.574C628.133 731.222 634.517 730.898 642.03 728.516C642.51 733.188 643.179 738.47 643.485 743.106C639.397 747.438 631.74 755.405 625.641 756.476C621.394 755.236 625.174 750.861 623.41 748.971C621.789 749.966 621.777 750.184 620.677 751.69C618.999 751.937 618.923 752.024 617.192 751.729L616.434 750.633C616.986 748.412 617.221 749.279 616.447 747.737C613.249 748.15 611.723 751.365 610.646 754.062L610.196 754.057C606.787 746.795 618.445 741.55 621.619 736.433C622.225 735.457 621.071 733.085 620.671 732.188L620.402 731.574Z"/><path fill="#AC7D52" d="M759.648 672.636L760.449 673.02C761.58 675.839 760.1 724.295 760.029 731.54C759.963 738.2 759.395 754.248 758.639 761.406C758.558 762.174 757.118 763.483 756.453 764.109L755.401 762.783C754.794 758.511 754.88 748.865 754.81 744.216C754.576 731.794 754.461 719.369 754.466 706.944C754.454 700.494 754.095 678.592 754.956 673.839C756.104 672.786 758.005 672.822 759.648 672.636Z"/><path fill="#AC7D52" d="M672.708 685.245L679.019 684.864C678.17 692.842 678.002 704.593 677.647 712.838L675.427 768.138C673.658 769.126 673.998 769.297 672.3 769.201C671.421 766.238 670.655 691.233 671.692 685.826L672.708 685.245Z"/><path fill="#DEAF84" d="M661.07 684.346L668.24 685.45C668.631 713.411 668.484 741.377 667.798 769.332C667.006 769.254 666.515 769.015 665.737 768.755C663.391 766.042 663.362 742.197 663.151 736.81L661.07 684.346Z"/><path fill="#CAC9CA" d="M265.799 565.482C276.506 565.197 291.374 565.868 302.199 565.77C309.006 565.708 337.413 565.461 342.357 566.628C343.339 568.054 343.042 568.558 343.215 570.584C322.036 570.416 289.668 571.296 268.038 568.994C266.975 568.881 266.215 566.572 265.799 565.482Z"/><path fill="#FEFDF8" d="M605.788 331.615C609.799 331.167 616.039 330.956 619.003 334.133C621.08 341.413 607.392 345.386 602.156 346.785C598.412 347.64 592.353 349.326 589.48 346.131C587.687 338.794 600.3 333.479 605.788 331.615Z"/><path fill="#FEFDF8" d="M550.955 469.786C558.369 471.168 569.236 472.523 576.772 472.633C577.576 474.445 578.518 476.03 578.38 477.975C577.656 479.204 577.745 479.153 576.481 479.798C572.24 483.625 568.922 488.852 565.685 493.579C560.701 487.869 557.533 483.128 554.132 476.428C552.648 473.841 552.057 472.475 550.955 469.786Z"/><path fill="#CAC9CA" d="M550.955 469.786C558.369 471.168 569.236 472.523 576.772 472.633C577.576 474.445 578.518 476.03 578.38 477.975C577.656 479.204 577.745 479.153 576.481 479.798C573.161 478.555 557.185 475.197 554.132 476.428C552.648 473.841 552.057 472.475 550.955 469.786Z"/><path fill="#FEFDF8" d="M531.12 334.523C535.457 334.394 538.396 334.657 542.481 336.254C546.424 337.796 558.166 344.305 555.397 349.212C553.576 350.469 553.364 350.392 551.075 350.599C549.364 350.466 547.66 350.266 545.965 349.999C539.592 349.016 516.364 342.515 531.12 334.523Z"/><path fill="#CAC9CA" d="M237.508 474.852C237.823 475.227 238.103 475.63 238.345 476.056C240.536 479.997 247.017 505.6 248.739 511.828C252.845 526.678 257.705 542.322 261.423 557.3C262.038 559.776 262.641 563.285 261.985 565.782C261.126 564.095 260.199 561.955 259.667 560.123C251.741 532.843 243.401 505.54 236.776 477.917C236.51 476.811 237.034 475.806 237.508 474.852Z"/><path fill="#DEAF84" d="M745.99 708.973L751.511 709.035C751.62 725.287 751.767 741.545 751.541 757.796C751.511 759.958 751.553 762.43 749.402 763.466L748.633 762.868C746.882 759.015 746.254 716.521 745.99 708.973Z"/><path fill="#572F19" d="M546.617 411.821C549.611 411.265 554.949 411.186 557.855 411.914C565.461 415.179 563.077 421.356 557.282 424.499C554.571 426.001 551.356 426.298 548.416 425.32C541.628 423.014 537.898 415.894 546.617 411.821Z"/><path fill="#764629" d="M546.617 411.821C549.611 411.265 554.949 411.186 557.855 411.914C560.802 422.101 538.94 423.707 546.617 411.821Z"/><path fill="#CAC9CA" d="M357.269 555.694C360.504 555.393 363.322 555.291 365.577 557.847L365.522 558.62C360.52 562.987 324.554 561.588 315.875 561.471C314.27 561.458 309.193 561.541 308.167 560.843L357.269 555.694Z"/><path fill="#AC7D52" d="M552.701 266.435C556.718 269.81 560.692 273.237 564.621 276.713C560.252 278.24 555.528 279.793 551.253 281.491L544.546 274.37C549.489 273.193 551.384 271.226 552.701 266.435Z"/><path fill="#CAC9CA" d="M681.363 548.584C681.566 555.36 682.05 566.634 673.34 567.797C670.995 566.08 672.529 556.478 672.437 553.133C676.583 551.853 678.015 551.305 681.363 548.584Z"/><path fill="#CAC9CA" d="M659.588 557.477C662.279 557.156 665.844 556.407 668.589 555.902C668.526 560.892 669.243 572.676 661.056 572.194C659.886 572.125 658.755 571.765 657.762 571.135C657.712 570.17 657.566 570.34 658.076 569.641C660.537 566.258 659.779 561.822 659.588 557.477Z"/><path fill="#AC7D52" d="M682.076 713.05L684.074 713.791C685.703 716.142 684.068 748.776 683.893 753.957C682.711 753.682 682.513 753.602 681.383 753.192C680.174 751.305 681.86 717.628 682.076 713.05Z"/><path fill="#AC7D52" d="M723.729 644.347C730.499 645.074 738.035 646.355 744.83 647.374C740.786 648.479 736.483 649.476 732.397 650.493C726.421 651.848 720.435 653.155 714.438 654.413C718.082 651.085 720.624 648.152 723.729 644.347Z"/><path fill="#AC7D52" d="M745.562 692.302L751.419 688.281L751.511 709.035L745.99 708.973L745.562 692.302Z"/><path fill="#CAC9CA" d="M359.361 564.702L364.997 564.447L367.352 569.909C363.386 570.254 359.696 570.403 355.714 570.547C353.197 570.73 347.83 571.672 346.946 568.692C349.267 565.029 355.518 565.004 359.361 564.702Z"/><path fill="#CAC9CA" d="M488.365 476.158C491.805 476.478 492.303 476.527 495.605 475.892C495.608 480.648 494.465 484.015 493.128 488.508L485.528 488.371C487.303 483.743 487.783 481.011 488.365 476.158Z"/><path fill="#FEFDF8" d="M588.181 567.161C596.057 567.452 602.188 568.989 609.874 570.626C607.561 570.818 605.087 570.865 602.755 570.956C598.393 571.121 586.564 572.145 583.338 569.723L583.363 568.83C585.569 567.135 585.07 567.655 588.181 567.161Z"/><path fill="#AC7D52" d="M581.798 473.465C586.3 473.518 590.801 473.62 595.301 473.77L591.25 477.948L586.961 482.293C585.263 479.711 583.371 476.207 581.798 473.465Z"/><path fill="#F6C849" d="M589.991 514.767C590.743 515.109 590.396 514.833 590.9 515.74C590.339 520.28 585.089 527.905 582.52 531.743C581.751 531.397 582.107 531.676 581.585 530.76C582.081 526.737 587.664 518.286 589.991 514.767Z"/><path fill="#F6C849" d="M593.618 516.751C594.699 517.474 594.243 517.033 594.82 518.247C594.365 522.195 590.359 528.168 588.2 531.793C587.269 531.275 587.618 531.518 586.999 530.494C587.132 526.422 591.346 520.242 593.618 516.751Z"/><path fill="#764629" d="M616.434 750.633L617.192 751.729C618.923 752.024 618.999 751.937 620.677 751.69C619.653 754.681 619.213 757.388 616.375 758.806C612.034 758.057 613.74 752.318 616.434 750.633Z"/><path fill="#EB85B1" d="M594.974 504.311C600.31 504.874 601.359 506.675 599.456 511.705C597.402 510.772 594.934 509.707 593.783 507.829C593.618 505.726 593.6 506.461 594.974 504.311Z"/><path fill="#FEFDF8" d="M571.568 567.459C573.17 568.225 573.182 568.212 574.528 569.356L574.436 570.24L572.537 571.031C570.977 571.065 569.75 571.317 568.52 570.47C569.097 568.932 570.021 568.661 571.568 567.459Z"/><path fill="#FEFDF8" d="M590.787 510.957C594.231 510.973 595.469 512.088 597.711 514.521C594.327 513.896 593.215 513.368 590.787 510.957Z"/><path d="M390.947 241.709C423.935 238.432 455.132 267.712 450.897 301.12C449.292 313.785 446.525 318.002 439.788 328.681C441.671 333.047 449.711 345.811 446.188 349.796C442.367 350.887 427.645 343.735 423.457 341.95C419.148 343.602 416.324 344.883 411.78 346.32C409.062 347.088 406.296 347.673 403.499 348.07C387.083 350.351 371.557 346.856 358.283 336.925C328.924 314.961 331.211 269.679 362.441 250.607C372.146 244.68 379.741 242.958 390.947 241.709Z"/><path fill="#FEFDF8" d="M389.085 246.179C401.988 244.745 415.52 248.647 426.214 255.85C443.753 267.689 450.993 288.944 445.167 309.177C442.945 316.893 440.055 321.165 435.48 327.651C436.984 332.351 440.709 340.414 442.816 345.238L422.763 337.245C418.592 339.213 415.439 340.649 411.132 342.239C407.875 343.149 405.187 343.859 401.829 344.316C387.344 346.419 372.624 342.575 361.018 333.658C350.464 325.518 343.626 314.037 342.001 300.765C340.529 288.221 344.087 275.605 351.896 265.679C361.288 253.739 374.295 248 389.085 246.179Z"/><path d="M416.756 271.1C421.703 270.949 426.07 271.651 429.662 275.391C432.289 278.169 433.624 281.924 433.341 285.737C432.924 291.476 429.973 294.512 425.977 297.966C426.072 302.334 427.119 312.026 423.935 315.419C420.079 319.526 386.265 317.632 378.538 317.605C374.572 317.815 363.636 318.818 362.585 313.967C360.562 304.622 360.461 285.369 364.079 276.856C375.606 274.945 395.65 275.58 407.972 275.776C411.238 273.146 412.763 272.304 416.756 271.1Z"/><path fill="#FEFDF8" d="M367.781 279.597C380.357 279.536 392.934 279.552 405.51 279.644C404.367 284.838 404.494 285.627 405.748 290.66C404.109 292.151 402.303 293.665 400.622 295.127C398.723 296.828 395.537 299.146 393.441 300.77C384.847 294.376 375.996 286.582 367.781 279.597Z"/><path fill="#FEFDF8" d="M385.462 298.95C388.021 300.862 390.771 302.719 393.404 304.546C396.78 302.624 398.468 301.326 401.565 298.936C407.283 303.26 413.153 308.965 418.463 313.901L408.25 313.997L368.78 313.952C374.1 308.8 379.633 303.515 385.462 298.95Z"/><path fill="#5BAE62" d="M417.399 274.743C423.186 273.894 428.579 277.856 429.5 283.631C430.422 289.407 426.528 294.849 420.765 295.843C416.972 296.496 413.12 295.06 410.682 292.081C408.245 289.103 407.597 285.044 408.987 281.455C410.378 277.866 413.591 275.302 417.399 274.743Z"/><path d="M425.284 279.345C426.336 279.946 425.964 279.501 426.34 280.728C425.303 284.347 420.164 289.244 417.422 292.187L413.308 288.727C411.988 287.64 411.03 287.127 411.582 285.421L412.912 285.012C414.797 285.202 415.446 286.072 416.893 287.335C419.824 284.325 422.056 281.995 425.284 279.345Z"/><path fill="#FEFDF8" d="M365.536 283.206C369.803 285.356 378.749 293.212 382.696 296.525C380.111 299.066 377.085 301.61 374.332 304.016L365.512 312.151L365.536 283.206Z"/><path fill="#FEFDF8" d="M407.12 294.165C414.201 298.384 413.088 299.433 421.952 299.634C422.021 302.34 422.561 309.778 421.17 311.827C417.197 308.328 408.619 301.148 405.712 297.181C405.623 295.599 405.921 295.81 407.12 294.165Z"/></svg>