<?xml version="1.0" encoding="utf-8" ?><svg xmlns="http://www.w3.org/2000/svg" xmlns:xlink="http://www.w3.org/1999/xlink" width="1024" height="1024" viewBox="0 0 1024 1024"><path d="M544.023 230.285C548.03 225.904 552.131 221.61 556.324 217.407C571.72 202.17 613.119 166.516 626.327 203.035C635.675 228.88 636.046 260.557 634.912 287.862C656.632 316.282 672.62 350.226 694.15 379.08C700.022 386.949 693.18 389.711 686.555 393.079C693.399 402.378 691.655 404.678 683.675 411.68C684.366 413.412 684.951 415.37 685.535 417.158C676.898 439.71 652.307 454.438 631.705 464.331C633.447 466.144 635.158 468.188 636.677 470.192C660.668 501.844 671.978 549.917 636.626 577.799C637.167 581.181 637.903 584.645 638.573 588.014C644.251 584.204 648.607 581.376 653.297 576.278C673.072 554.785 669.387 524.705 667.304 497.986C666.667 489.811 665.797 479.378 667.021 471.357C668.092 464.335 670.607 457.611 674.407 451.61C682.755 438.152 695.179 428.792 710.659 425.204C725.664 421.865 741.381 424.535 754.441 432.642C765.107 439.339 772.086 448.545 774.705 460.893C777.204 472.671 776.474 486.232 775.594 498.143C773.063 532.376 765.447 569.25 746.702 598.485C728.051 627.572 699.887 651.115 664.987 656.659C658.888 657.628 652.859 658.301 646.676 658.611C642.8 658.805 638.772 658.249 635.069 659.056C634.538 660.22 631.044 683.873 630.254 687.637C626.047 707.706 620.866 728.455 615.941 748.319C613.638 757.61 607.952 784.566 604.404 791.952C602.862 792.927 599.946 794.432 600.374 796.361C601.395 800.97 610.091 804.184 613.712 807.225C616.439 810.434 620.178 813.478 620.65 817.892C621.599 826.764 608.095 828.608 601.58 828.917C588.843 829.52 572.17 827.783 561.683 819.862C557.701 816.854 557.565 804.75 557.311 800.075C556.799 796.407 556.932 795.918 553.73 794.074L552.116 793.148C549.413 786.936 548.286 781.988 546.31 775.663C541.028 758.754 536.163 738.422 526.511 723.483C520.006 720.215 515.989 720.184 508.788 719.828C504.131 740.585 501.622 769.614 500.414 791.279C498.859 792.255 497.181 793.366 495.565 794.205C495.275 797.122 495.19 798.339 495.321 801.338C495.083 805.482 495.057 816.45 491.68 818.807C484.673 823.324 474.069 824.492 465.85 825.308C457.558 826.13 446.728 827.502 438.638 826.279C423.523 823.995 422.801 817.462 432.187 807.857C437.792 803.153 452.834 799.167 455.49 795.463C454.538 792.97 450.744 791.697 449.213 787.983C445.457 778.877 442.143 769.608 438.768 760.352C430.337 737.713 422.632 714.809 415.665 691.677C412.597 681.396 410.031 670.973 407.976 660.443C401.03 655.244 397.774 651.604 397.642 642.496C397.52 634.162 399.337 626.094 400.688 617.907C402.531 606.885 404.315 595.852 406.04 584.81C396.378 587.032 393.147 585.13 384.282 584.546C378.667 584.176 377.585 586.846 369.696 584.583C369.33 590.264 368.098 595.87 367.203 601.437C364.936 615.539 350.058 613.918 339.991 610.039C334.689 607.995 331.398 605.333 328.653 600.466C329.225 596.45 334.072 576.083 333.057 574.158C331.78 574.257 325.883 573.241 324.009 573.038C313.174 571.896 302.349 570.653 291.537 569.31L223.009 561.565C211.385 560.27 187.596 558.958 177.508 555.273C174.751 551.338 185.168 479.25 185.262 469.139C185.293 465.843 187.111 451.001 187.782 446.746C197.319 439.808 210.441 432.244 220.707 425.929C220.925 422.661 221.047 416.01 222.695 413.462C226.435 408.099 236.75 414.083 241.393 411.791C252.937 406.093 263.847 396.464 276.573 393.436C284.638 395.711 301.93 413.657 307.392 420.33C310.587 420.405 312.667 420.433 315.836 420.9C301.471 401.678 293.138 386.975 290.745 362.352C288.09 334.182 296.546 306.09 314.309 284.067C333.331 260.934 358.401 248.858 387.908 245.971C388.923 233.113 391.638 205.513 401.376 197.305C421.322 180.496 463.648 217.263 476.248 231.856C498.196 226.065 521.802 226.159 544.023 230.285ZM384.637 469.007C385.967 470.628 387.403 472.315 388.683 473.96L388.3 483.691C395.102 488.507 395.793 491.882 397.384 499.631C400.566 495.525 403.812 491.469 407.121 487.465C411.257 482.487 415.906 476.598 420.443 472.144C410.437 468.56 396.051 463.098 386.858 457.455C386.141 460.967 385.077 465.546 384.637 469.007ZM321.914 434.335C329.644 442.67 345.416 456.165 351.23 464.742C350.925 468.765 350.439 470.877 351.133 474.917L351.708 475.494C353.265 474.361 353.924 470.931 354.471 469C356.289 466.774 357.604 466.128 360.26 464.952C360.686 459.7 361.169 456.416 362.701 451.299C352.009 447.437 345.286 444.846 335.709 438.132C331.849 435.427 326.088 430.423 322.597 428.219C322.297 430.372 322.052 432.154 321.914 434.335Z"/><path fill="#B38355" d="M372.272 254.504C393.212 248.42 421.097 254.054 439.976 264.456C462.829 277.153 479.744 298.36 487.042 323.463C494.253 348.506 491.258 375.384 478.711 398.224C466.096 421.268 444.788 438.309 419.535 445.55C394.244 452.883 367.068 449.756 344.104 436.87C320.836 423.941 303.82 402.114 296.959 376.395C290.254 351.594 293.809 323.152 306.802 300.952C307.929 299.026 310.786 294.459 312.28 292.876C324.565 274.996 346.986 259.383 368.451 255.338L372.272 254.504Z"/><path fill="#DEAF89" d="M368.451 255.338L372.272 254.504C374.793 254.786 376.809 254.944 379.333 255.069L378.666 255.388C374.718 257.253 370.307 258.853 366.183 260.328C339.183 269.991 318.187 290.415 306.338 316.581L303.103 316.948C303.969 313.715 313.401 296.27 315.807 292.716C317.344 290.445 320.694 287.972 323.226 283.573C323.362 282.664 323.532 281.986 323.873 281.133C319.954 283.975 316.385 289.788 312.943 293.077L312.28 292.876C324.565 274.996 346.986 259.383 368.451 255.338Z"/><path fill="#B38355" d="M312.28 292.876C324.565 274.996 346.986 259.383 368.451 255.338C365.424 257.859 359.185 259.151 355.572 260.921C346.763 265.235 330.518 274.939 324.399 282.196L323.226 283.573C323.362 282.664 323.532 281.986 323.873 281.133C319.954 283.975 316.385 289.788 312.943 293.077L312.28 292.876Z"/><path fill="#D6C5A5" d="M303.103 316.948L306.338 316.581C305.445 318.924 304.817 321.146 302.863 322.693L302.259 322.368C301.93 320.343 302.539 318.943 303.103 316.948Z"/><path d="M391.043 264.716C438.511 264.137 477.468 302.132 478.078 349.599C478.688 397.067 440.718 436.049 393.251 436.69C345.74 437.331 306.714 399.319 306.104 351.808C305.494 304.297 343.531 265.295 391.043 264.716Z"/><path fill="#3D393A" d="M394.95 270.161C398.55 269.726 400.891 269.946 404.506 270.154C407.11 270.467 410.894 270.926 413.49 270.983C432.23 277.668 443.689 283.104 455.792 299.44C457.35 301.623 460.839 306.742 461.673 309.184C464.981 313.26 465.708 315.678 467.344 320.591L469.303 326.046L470.656 331.495C470.945 333.165 471.53 336.031 471.581 337.624C472.586 355.777 472.618 371.32 463.27 387.322C455.694 406.054 438.736 419.852 420.536 427.812C409.729 432.538 390.631 436.108 379.458 431.514C370.203 429.318 359.011 423.606 351.509 417.746C346.401 413.871 340.335 406.918 336.321 401.981C330.57 393.155 326.018 383.966 323.241 373.777C317.386 352.082 320.48 328.944 331.828 309.548C345.234 286.598 362.501 277.628 387.169 271.197C388.941 270.73 392.96 270.389 394.95 270.161Z"/><defs><linearGradient id="gradient_0" gradientUnits="userSpaceOnUse" x1="419.75964" y1="422.95868" x2="395.53531" y2="322.89069"><stop offset="0" stop-color="#6C6A6B"/><stop offset="1" stop-color="#848282"/></linearGradient></defs><path fill="url(#gradient_0)" d="M342.277 402.46C348.058 390.154 352.079 388.747 362.36 380.684C385.861 362.253 399.609 332.8 423.923 315.484C425 314.717 425.201 315.074 426.303 315.446C440.08 322.917 454.463 331.509 470.656 331.495C470.945 333.165 471.53 336.031 471.581 337.624C472.586 355.777 472.618 371.32 463.27 387.322C455.694 406.054 438.736 419.852 420.536 427.812C409.729 432.538 390.631 436.108 379.458 431.514C370.203 429.318 359.011 423.606 351.509 417.746C353.503 410.69 347.032 407.104 342.277 402.46Z"/><path fill="#3D393A" d="M463.27 387.322C455.694 406.054 438.736 419.852 420.536 427.812C409.729 432.538 390.631 436.108 379.458 431.514C382.239 430.725 392.16 430.29 395.998 429.585C415.816 425.945 433.307 418.999 447.296 404.055C451.083 400.009 458.849 389.485 463.27 387.322Z"/><path fill="#535353" d="M426.303 315.446C440.08 322.917 454.463 331.509 470.656 331.495C470.945 333.165 471.53 336.031 471.581 337.624C459.207 334.802 431.664 328.562 426.303 315.446Z"/><path fill="#3D393A" d="M438.279 332.138C451.72 330.984 462.905 340.872 465.974 353.588C468.069 362.533 466.565 371.943 461.787 379.79C457 387.552 451.991 389.995 443.643 392.014C404.982 394.186 402.979 337.097 438.279 332.138Z"/><path fill="#DBDDDD" d="M438.558 338.109C439.095 338.11 439.633 338.118 440.17 338.133C458.517 338.683 461.279 355.488 460.286 370.066C458.427 364.118 455.457 358.28 449.257 355.867C446.443 354.74 443.29 354.817 440.534 356.078C435.477 358.389 433.31 363.205 431.644 368.105C431.122 377.595 432.621 379.799 438.158 387.316C435.799 386.409 433.198 385.406 431.077 384.036C425.229 380.271 421.153 374.301 419.776 367.484C417.018 353.744 424.444 340.799 438.558 338.109Z"/><path fill="#DBDDDD" d="M440.6 361.265C447.525 362.167 446.697 365.595 443.646 370.472C437.043 369.18 437.748 366.008 440.6 361.265Z"/><path fill="#817E7F" d="M400.498 395.223C427.66 396.117 436.545 420.458 409.372 423.035C396.309 422.924 387.717 420.988 382.692 407.743C385.728 397.629 390.64 395.976 400.498 395.223Z"/><path fill="#DBDDDD" d="M387.169 271.197C389.516 273.739 389.684 283.269 390.482 287.49L377.867 306.798C376.684 308.92 375.642 310.869 374.271 312.885L349.037 357.339C344.738 364.753 340.242 372.072 336.004 379.525C331.397 387.627 333.828 388.577 341.367 391.596C339.849 394.737 337.949 399.002 336.321 401.981C330.57 393.155 326.018 383.966 323.241 373.777C317.386 352.082 320.48 328.944 331.828 309.548C345.234 286.598 362.501 277.628 387.169 271.197Z"/><path fill="#FEFEFE" d="M374.271 312.885C365.833 315.269 351.472 332.041 341.783 326C335.607 322.149 340.292 310.22 344.024 305.038C349.596 297.299 365.285 285.55 375.151 291.341C379.573 294.157 377.171 301.848 377.867 306.798C376.684 308.92 375.642 310.869 374.271 312.885Z"/><path fill="#D6C5A5" d="M355.715 358.603C363.711 342.153 399.393 279.619 413.49 270.983C432.23 277.668 443.689 283.104 455.792 299.44C451.462 300.082 411.53 278.063 414.062 304.498C404.686 309.408 398.106 318.273 391.409 326.074C382.961 335.918 367.247 353.34 355.715 358.603Z"/><path fill="#FEFEFE" d="M355.715 358.603C367.247 353.34 382.961 335.918 391.409 326.074C398.106 318.273 404.686 309.408 414.062 304.498C415.943 307.864 416.949 309.017 419.878 311.67C414.292 315.543 409.282 319.774 404.673 324.779C395.606 334.626 356.32 387.084 343.633 385.094C342.464 384.911 342.142 384.627 341.489 383.701C341.823 380.891 353.636 361.797 355.715 358.603Z"/><path fill="#FEFEFE" d="M430.092 310.835C426.893 309.397 422.325 306.637 420.181 303.814C418.751 301.824 420.145 298.168 422.496 297.773C435.833 295.529 450.143 304.415 461.673 309.184C464.981 313.26 465.708 315.678 467.344 320.591C460.708 324.825 438.539 310.524 430.092 310.835Z"/><path fill="#DBDDDD" d="M430.092 310.835C438.539 310.524 460.708 324.825 467.344 320.591L469.303 326.046C462.576 327.832 435.932 315.413 430.092 310.835Z"/><path fill="#D6C5A5" d="M394.95 270.161C398.55 269.726 400.891 269.946 404.506 270.154C402.006 273.713 398.964 276.882 396.031 280.1C395.455 276.504 394.934 273.811 394.95 270.161Z"/><defs><linearGradient id="gradient_1" gradientUnits="userSpaceOnUse" x1="360.7908" y1="344.31403" x2="312.79874" y2="339.19775"><stop offset="0" stop-color="#7B4E2A"/><stop offset="1" stop-color="#A67547"/></linearGradient></defs><path fill="url(#gradient_1)" d="M342.876 416.678C327.565 403.652 318.046 390.011 313.638 370.051C308.511 347.78 312.607 324.382 324.996 305.177C335.997 288.049 354.908 274.232 374.864 269.827C360.586 275.915 352.46 279.42 341.207 290.939C325.245 307.278 316.197 330.194 316.551 352.998C316.931 376.818 326.752 399.514 343.855 416.099L342.876 416.678Z"/><path fill="#8A4F2B" d="M343.855 416.099C346.083 417.937 348.798 420.042 350.817 422.048C347.398 420.088 345.988 419.108 342.876 416.678L343.855 416.099Z"/><path fill="#535353" d="M500.638 676.01C548.033 676.36 584.606 670.56 629.553 656.124C625.227 686.505 618.411 714.953 610.69 744.583C606.921 759.046 604.233 773.672 600.163 788.144C596.035 789.167 591.918 790.281 587.707 790.862C578.679 792.036 566.382 792.476 557.668 789.531C554.886 784.651 553.274 777.737 551.547 772.289C546.732 756.641 542.394 741.375 535.366 726.531C528.4 711.818 513.59 715.006 500.043 712.616C494.608 711.657 484.435 706.577 480.594 710.997C488.32 716.368 493.638 717.003 502.91 718.731C498.773 740.204 495.385 766.022 495.409 787.829C491.672 788.729 487.36 789.755 483.521 790.115C473.605 790.996 465.408 790.01 455.799 787.67C451.241 779.159 446.684 764.457 443.134 754.981C432.666 727.037 423.981 699.828 416.173 671.015L414.332 662.415C432.491 667.475 462.205 675.094 481.021 674.516C484.368 670.118 486.951 665.064 489.74 660.259C493.487 666.611 495.657 670.488 500.638 676.01Z"/><path fill="#3D393A" d="M500.638 676.01C548.033 676.36 584.606 670.56 629.553 656.124C625.227 686.505 618.411 714.953 610.69 744.583C606.921 759.046 604.233 773.672 600.163 788.144C596.035 789.167 591.918 790.281 587.707 790.862C590.205 780.67 592.228 767.061 593.876 756.493C597.234 734.958 600.68 711.474 601.52 689.727C594.64 686.98 590.951 683.966 586.152 678.518C557.338 683.822 528.658 684.746 499.474 683.255C497.142 681.003 493.627 676.76 491.268 674.179C489.755 675.407 485.33 680.069 484.486 680.406C476.453 683.616 447.584 678.443 440.096 676.005C440.478 674.341 440.774 673.226 439.635 671.906C437.205 672.009 436.023 674.182 434.865 676.04C428.459 673.52 422.863 672.398 416.173 671.015L414.332 662.415C432.491 667.475 462.205 675.094 481.021 674.516C484.368 670.118 486.951 665.064 489.74 660.259C493.487 666.611 495.657 670.488 500.638 676.01Z"/><path d="M586.152 678.518C584.601 676.147 583.924 675.429 583.325 672.626L583.786 671.84C587.029 672.261 590.778 677.032 593.382 679.334C595.936 681.111 597.81 682.468 600.581 683.899C604.907 685.654 612.124 687.193 615.082 689.906L615.119 690.647C611.5 692.528 605.282 690.898 601.52 689.727C594.64 686.98 590.951 683.966 586.152 678.518Z"/><path fill="#535353" d="M593.382 679.334C596.771 677.827 600.145 676.956 601.317 681.483C601.046 682.579 601.027 682.874 600.581 683.899C597.81 682.468 595.936 681.111 593.382 679.334Z"/><path fill="#3D393A" d="M480.594 710.997C488.32 716.368 493.638 717.003 502.91 718.731C498.773 740.204 495.385 766.022 495.409 787.829C491.672 788.729 487.36 789.755 483.521 790.115C483.366 768.496 487.011 746.159 485.712 724.57C485.5 721.051 481.443 715.554 480.594 710.997Z"/><path d="M434.865 676.04C436.023 674.182 437.205 672.009 439.635 671.906C440.774 673.226 440.478 674.341 440.096 676.005C437.785 679.701 431.172 689.602 426.464 689.154L425.725 687.983C425.638 684.387 432.406 678.901 434.865 676.04Z"/><path fill="#FEFEFE" d="M496.984 506.699C508.5 518.836 512.963 520.039 529.127 522.755C536.218 531.74 541.706 538.214 549.511 546.617C553.625 554.403 549.441 564.572 561.234 568.013C562.953 568.514 564.949 569.217 566.706 569.759C573.675 577.48 574.53 577.997 584.907 576.274C600.976 584.222 613.035 586.96 630.756 580.876L631.252 580.702C635.267 602.184 639.519 623.109 641.089 644.944C629.72 650.076 609.239 657.818 596.903 659.793C562.513 666.766 539.121 670.466 503.502 670.42C501.593 667.667 499.705 664.9 497.839 662.118C489.543 649.557 490.982 641.58 490.304 627.122C489.642 606.266 490.381 584.956 491.786 564.122C493.024 545.755 493.297 524.583 496.984 506.699Z"/><path fill="#DBDDDD" d="M549.511 546.617C553.625 554.403 549.441 564.572 561.234 568.013C562.953 568.514 564.949 569.217 566.706 569.759C573.675 577.48 574.53 577.997 584.907 576.274C600.976 584.222 613.035 586.96 630.756 580.876L631.252 580.702C635.267 602.184 639.519 623.109 641.089 644.944C629.72 650.076 609.239 657.818 596.903 659.793C598.255 656.24 601.64 651.857 602.877 647.66C606.812 634.31 605.428 613.302 599.424 600.921C595.893 598.66 591.563 596.876 587.833 594.879C568.517 584.537 544.953 572.53 549.511 546.617Z"/><defs><linearGradient id="gradient_2" gradientUnits="userSpaceOnUse" x1="583.09949" y1="433.08905" x2="572.53296" y2="314.14526"><stop offset="0" stop-color="#4B3333"/><stop offset="1" stop-color="#73575D"/></linearGradient></defs><path fill="url(#gradient_2)" d="M509.04 332.206C530.568 344.766 549.191 330.703 568.115 319.878C572.202 317.54 576.976 313.065 581.266 315.767C586.365 318.669 594.213 323.427 598.687 327.006C619.605 343.739 635.434 364.632 656.275 381.734C664.741 387.319 669.208 390.329 678.83 393.329C681.024 396.342 683.196 399.372 685.346 402.418C679.903 406.781 673.605 409.65 678.84 416.926C658.306 425.716 649.11 428.141 626.835 430.261C597.575 433.638 561.099 426.242 539.875 405.205C524.828 390.291 520.166 383.677 500.36 375.616C503.352 363.071 504.009 350.082 502.299 337.299C501.793 333.597 498.341 322.492 500.742 319.656L501.795 319.63C505.154 325.265 503.207 324.875 509.04 332.206Z"/><path fill="#3D393A" d="M656.275 381.734C664.741 387.319 669.208 390.329 678.83 393.329C681.024 396.342 683.196 399.372 685.346 402.418C679.903 406.781 673.605 409.65 678.84 416.926C658.306 425.716 649.11 428.141 626.835 430.261C628.29 427.226 633.934 422.47 636.57 419.855C646.05 410.447 653.695 394.756 656.275 381.734Z"/><path fill="#3D393A" d="M509.04 332.206C530.568 344.766 549.191 330.703 568.115 319.878C572.202 317.54 576.976 313.065 581.266 315.767C573.028 324.886 563.919 329.419 552.928 334.586C542.594 339.444 513.304 349.658 509.04 332.206Z"/><path d="M563.753 357.713C566.03 357.63 573.552 357.253 574.972 357.738C588.846 362.48 572.842 384.302 565.086 387.354C555.003 391.322 551.109 391.801 542.124 389.162C536.085 386.583 530.379 382.124 527.523 376.127C526.055 373.045 523.049 364.936 524.21 361.765C528.198 358.51 556.862 358 563.753 357.713Z"/><path fill="#FEFEFE" d="M555.134 364.039C561.579 363.907 568.024 363.827 574.47 363.798C572.897 370.66 572.117 373.612 567.309 378.879C563.749 381.728 560.705 382.924 556.545 384.562C560.2 375.387 560.967 372.318 555.134 364.039Z"/><path fill="#FEFEFE" d="M540.252 367.179C542.711 367.518 542.684 367.491 544.11 368.951C544.672 370.99 544.119 372.12 543.565 374.267C541.3 373.966 540.692 373.7 539.537 371.791C539.288 369.759 539.624 369.204 540.252 367.179Z"/><path fill="#FEFEFE" d="M530.079 364.922C531.912 364.872 533.195 364.625 534.785 365.476C535.648 367.517 534.416 369.954 533.669 372.354L533.278 373.067C531.935 371.079 530.884 367.319 530.079 364.922Z"/><path fill="#6C4F54" d="M590.415 394.19C617.455 391.381 618.781 418.137 587.115 422.862C559.12 425.546 559.481 397.975 590.415 394.19Z"/><path fill="#FEFEFE" d="M396.694 507.872C405.386 498.289 418.063 481.136 426.909 473.809C434.799 487.166 449.934 508.882 462.855 516.88C468.537 512.533 471.929 501.88 481.224 493.611C483.462 496.219 484.768 498.143 486.696 500.978L490.636 507.114C487.092 540.842 484.955 574.704 484.231 608.61C484.056 620.018 484.139 643.051 486.575 653.914C483.717 658.504 479.902 664.277 477.315 668.891C458.012 667.098 423.042 661.627 406.236 652.34C400.479 640.201 405.583 621.598 407.896 608.607C411.724 586.33 416.276 564.183 421.546 542.203C423.891 532.469 427.086 521.735 428.51 511.973C428.855 509.606 428.297 508.23 426.93 506.443C425.325 506.544 424.016 506.38 422.925 507.917C416.852 516.472 416.193 527.453 409.031 535.624C407.147 521.51 405.743 518.459 396.694 507.872Z"/><path fill="#DBDDDD" d="M481.224 493.611C483.462 496.219 484.768 498.143 486.696 500.978C481.313 504.09 478.663 508.11 474.903 512.905C471.268 517.539 468.549 520.779 462.855 516.88C468.537 512.533 471.929 501.88 481.224 493.611Z"/><path fill="#DEAF89" d="M438.528 253.683C445.16 250.329 451.052 246.801 457.959 243.992C487.487 231.982 523.688 230.458 554.42 239.204C589.626 249.224 625.281 279.572 643.285 311.053C649.509 318.669 655.98 331.61 661.24 340.343C664.896 346.412 670.697 354.679 673.816 360.609C667.983 357.952 660.609 352.697 655.188 349.034C656.323 355.456 660.159 370.226 658.414 375.821C636.232 358.801 620.067 333.172 596.12 317.956C591.735 315.169 587.343 312.633 582.831 310.066C586.928 304.054 588.559 302.185 584.562 295.56C577.643 290.659 571.17 291.637 563.603 293.813C558.331 296.161 555.371 297.765 550.343 300.537C540.591 305.914 532.159 313.871 520.683 313.36C519.181 312.287 519.116 312.024 517.265 312.026C515.763 312.816 515.854 312.736 514.908 314.146L514.305 314.271C511.208 315.959 510.244 317.481 508.284 320.45C508.525 317.402 509.786 306.922 506.728 305.694C504.504 307.19 503.873 310.081 503.057 312.614L497.018 315.604C481.727 282.709 471.205 270.096 438.528 253.683Z"/><path fill="#FEFCE0" d="M584.562 295.56C588.179 294.533 595.927 297.906 599.099 299.901C619.858 312.96 635.89 332.204 654.863 347.892L655.188 349.034C656.323 355.456 660.159 370.226 658.414 375.821C636.232 358.801 620.067 333.172 596.12 317.956C591.735 315.169 587.343 312.633 582.831 310.066C586.928 304.054 588.559 302.185 584.562 295.56Z"/><path fill="#B38355" d="M643.285 311.053C649.509 318.669 655.98 331.61 661.24 340.343C664.896 346.412 670.697 354.679 673.816 360.609C667.983 357.952 660.609 352.697 655.188 349.034L654.863 347.892C652.443 335.595 645.496 322.315 643.285 311.053Z"/><path fill="#FEFCE0" d="M520.683 313.36C526.388 306.264 554.194 291.908 563.603 293.813C558.331 296.161 555.371 297.765 550.343 300.537C540.591 305.914 532.159 313.871 520.683 313.36Z"/><path fill="#DEAF89" d="M531.169 405.371C555.219 426.243 571.769 435.054 604.254 436.574C634.865 436.455 643.46 435.418 673.015 426.502C665.159 435.325 658.379 442.1 648.299 448.662C623.195 465.004 585.195 472.151 555.55 475.684C553.444 471.798 551.208 467.84 549.393 463.822C548.686 459.583 550.776 440.647 541.028 442.464C533.119 443.938 528.059 453.038 527.24 460.956C516.54 457.974 483.248 447.522 484.56 468.31C488.778 474.572 491.457 475.456 498.306 477.933C465.905 478.329 428.552 471.071 399.212 457.121C403.906 456.528 407.171 456.52 411.86 456.494C431.77 452.757 441.101 448.478 457.93 437.61C462.051 438.731 463.93 438.393 467.257 439.129C466.752 440.407 466.788 440.675 466.62 442.062C468.77 445.984 475.789 440.725 478.477 438.996C479.11 439.214 479.745 439.427 480.381 439.633C496.159 444.746 501.97 443.002 516.171 435.739C518.289 438.138 522.506 442.728 525.963 439.796L525.973 438.549C525.015 436.653 524.153 436.163 522.48 434.753C534.842 429.131 533.159 416.3 531.169 405.371Z"/><path fill="#B38355" d="M604.254 436.574C634.865 436.455 643.46 435.418 673.015 426.502C665.159 435.325 658.379 442.1 648.299 448.662C623.195 465.004 585.195 472.151 555.55 475.684C553.444 471.798 551.208 467.84 549.393 463.822C570.341 458.659 602.386 451.03 618.714 436.794C614.507 437.052 608.345 437.423 604.254 436.574Z"/><path fill="#B38355" d="M399.212 457.121C403.906 456.528 407.171 456.52 411.86 456.494C422.006 464.419 470.337 467.88 484.56 468.31C488.778 474.572 491.457 475.456 498.306 477.933C465.905 478.329 428.552 471.071 399.212 457.121Z"/><path d="M474.795 449.603C478.528 449.738 490.696 449.2 491.574 452.966L490.429 454.323C487.623 455.312 484.671 455.823 481.695 455.836C477.295 455.837 474.745 454.227 474.795 449.603Z"/><path fill="#FEFEFE" d="M226.639 415.502C230.287 416.146 233.79 416.422 237.455 416.847C264.444 419.977 291.55 422.407 318.512 425.729C317.473 431.216 316.693 440.282 316.03 446.041C314.563 457.788 313.352 469.565 312.399 481.364L297.313 489.273L270.682 503.84C268.578 502.45 266.76 501.636 264.505 500.544C261.665 500.827 259.136 501.435 256.353 502.031C245.311 491.88 232.431 481.246 220.894 471.624C222.331 452.871 224.247 434.157 226.639 415.502Z"/><path d="M241.645 437.499C243.752 437.49 246.246 437.418 247.991 438.062C262.752 443.512 253.901 451.138 247.021 458.368C247.671 457.685 245.707 460.948 245.796 460.803C244.033 461.256 242.397 460.772 240.579 460.441L240.07 460.208C238.402 455.999 249.983 449.565 247.145 444.276C243.493 442.449 240.181 446.904 236.915 443.913C236.518 442.613 236.847 441.789 237.136 440.451C238.228 438.858 239.874 438.333 241.645 437.499Z"/><path d="M290.227 443.513C310.8 442.733 304.231 457.905 294.4 465.936C292.56 467.439 292.231 466.91 289.999 466.858C289.337 466.448 289.273 466.255 288.73 465.658C288.123 461.155 294.286 457.544 296.313 451.849C295.682 447.471 288.807 451.91 284.733 448.035L285.14 446.809C286.947 444.955 287.899 444.659 290.227 443.513Z"/><path d="M265.819 440.526C274.622 440.273 284.237 443.973 277.628 454.246C276.245 456.396 272.148 458.675 271.315 460.626L269.987 463.752C268.331 464.442 266.624 463.998 264.665 463.828C261.4 459.06 270.943 454.937 272.181 447.884C271.021 444.544 266.283 446.862 263.833 447.804C262.484 446.661 261.056 445.2 259.772 443.955L265.819 440.526Z"/><path d="M240.815 464.227C242.222 463.626 243.845 463.845 245.042 464.796C246.24 465.748 246.82 467.28 246.552 468.786C246.285 470.292 245.214 471.53 243.762 472.012C241.642 472.714 239.346 471.62 238.555 469.532C237.765 467.444 238.762 465.104 240.815 464.227Z"/><path d="M290.75 469.822C292.897 469.661 294.792 471.214 295.055 473.351C295.318 475.487 293.858 477.454 291.737 477.82C290.271 478.072 288.785 477.498 287.87 476.325C286.956 475.152 286.761 473.571 287.363 472.211C287.965 470.851 289.267 469.933 290.75 469.822Z"/><path d="M265.099 467.216C266.457 466.695 267.991 466.95 269.109 467.88C270.227 468.811 270.755 470.273 270.49 471.703C270.224 473.133 269.207 474.309 267.83 474.777C265.756 475.481 263.499 474.396 262.755 472.336C262.011 470.276 263.053 467.999 265.099 467.216Z"/><path fill="#FEFEFE" d="M592.385 475.7C604.785 473.215 613.575 470.561 625.602 466.919C644.261 486.402 656.724 514.625 652.233 541.879C647.311 566.73 629.798 582.8 603.634 577.356C599.019 576.364 594.527 574.866 590.241 572.89C597.892 566.289 600.341 563.193 605.92 554.673C613.711 541.638 616.539 526.309 616.334 511.306C619.402 512.631 622.765 514.34 626.001 513.488L626.361 512.599C624.712 508.619 618.946 506.624 615.249 505.058C610.66 498.129 608.525 497.921 600.636 496.247C585.307 481.802 583.753 493.319 577.226 490.795C578.069 488.436 589.682 478.194 592.385 475.7Z"/><path fill="#DBDDDD" d="M605.92 554.673C607.591 557.714 608.454 558.397 611.864 558.709C631.035 560.462 638.654 553.187 652.233 541.879C647.311 566.73 629.798 582.8 603.634 577.356C599.019 576.364 594.527 574.866 590.241 572.89C597.892 566.289 600.341 563.193 605.92 554.673Z"/><path fill="#8A4F2B" d="M532.567 462.774C533.789 457.241 534.9 448.82 542.152 449.683C544.846 452.463 542.341 458.767 543.387 462.464C545.979 471.626 550.949 482.836 558.925 488.252C563.699 490.576 580.858 498.673 584.143 501.386C583.147 510.62 581.82 518.537 577.272 526.886C574.042 535.811 567.596 543.132 561.342 549.995C556.917 545.904 552.645 541.652 548.532 537.248C544.916 533.299 534.385 519.17 530.467 517.682C519.092 513.36 496.578 513.454 503.895 494.53C503.711 493.255 502.185 488.671 501.708 487.136C505.925 474.165 508.458 482.931 512.375 477.963C511.351 471.533 491.478 474.473 490.5 465.289C495.364 454.384 530.745 470.062 535.037 467.845L535.278 466.863C534.758 464.879 534.005 464.353 532.567 462.774Z"/><path fill="#6E3D20" d="M503.895 494.53C504.312 496.454 504.785 498.999 505.351 500.831C517.92 512.496 526.269 506.612 538.999 513.257C549.489 518.733 557.001 528.939 569.282 534.111C571.689 531.609 574.284 528.525 577.272 526.886C574.042 535.811 567.596 543.132 561.342 549.995C556.917 545.904 552.645 541.652 548.532 537.248C544.916 533.299 534.385 519.17 530.467 517.682C519.092 513.36 496.578 513.454 503.895 494.53Z"/><path fill="#965B36" d="M558.925 488.252C563.699 490.576 580.858 498.673 584.143 501.386C578.635 506.093 570.449 509.131 563.577 506.185C554.496 502.291 555.559 495.362 558.925 488.252Z"/><path fill="#FEFCE0" d="M262.839 504.94C270.624 508.527 288.967 527.83 296.195 534.769L332.096 569.229C310.004 565.864 285.082 563.755 262.619 561.104C236.828 558.283 211.296 555.929 185.589 552.31C198.657 543.739 212.382 535.371 225.632 527.032C237.166 519.772 250.645 510.51 262.839 504.94Z"/><path fill="#FEFCE0" d="M191.65 453.157C194.758 454.845 205.298 464.567 208.899 467.653C223.31 479.876 237.647 492.186 251.909 504.581C242.67 511.535 229.182 519.285 219.09 525.445L181.293 549.43C185.392 517.412 188.845 485.314 191.65 453.157Z"/><path fill="#DEAF89" d="M675.837 464.455C681.062 453.07 686.514 444.89 697.401 438.036C708.649 430.893 722.319 428.635 735.266 431.782C749.169 435.06 758.046 442.245 765.337 454.188C770.73 465.428 769.869 477.1 769.441 489.069C765.861 486.185 762.19 483.14 758.53 480.383C757.213 479.474 755.877 478.595 754.521 477.745C729.807 462.372 704.07 457.878 675.837 464.455Z"/><path fill="#B38355" d="M765.337 454.188C770.73 465.428 769.869 477.1 769.441 489.069C765.861 486.185 762.19 483.14 758.53 480.383C760.906 475.446 764.335 459.831 765.337 454.188Z"/><path fill="#FEFCE0" d="M344.916 469.444L345.755 469.837C346.207 472.536 345.663 476.183 345.403 479C331.084 487.677 327.434 502.458 327.881 518.35C328.188 529.265 331.564 536.676 339.52 544.102L335.193 565.928C327.451 558.096 319.584 550.388 311.596 542.806C299.452 531.327 286.08 519.097 274.578 507.15C281.666 503.016 290.221 498.707 297.52 494.755C313.221 486.137 329.021 477.699 344.916 469.444Z"/><path fill="#8A4F2B" d="M675.054 467.286C686.262 464.601 693.765 463.799 705.215 464.401C726.226 466.449 740.257 472.977 757.853 483.493C762.219 486.64 765.195 488.95 769.115 492.661C768.39 502.261 767.278 511.827 765.784 521.338C760.068 515.161 754.117 512.264 750.359 508.487C731.665 495.808 718.788 492.524 696.825 490.492C687.376 490.297 682.607 491.394 673.504 493.964C672.682 483.925 673.093 477.098 675.054 467.286Z"/><path fill="#965B36" d="M675.054 467.286C686.262 464.601 693.765 463.799 705.215 464.401C701.831 472.699 698.247 481.609 696.825 490.492C687.376 490.297 682.607 491.394 673.504 493.964C672.682 483.925 673.093 477.098 675.054 467.286Z"/><path fill="#6E3D20" d="M757.853 483.493C762.219 486.64 765.195 488.95 769.115 492.661C768.39 502.261 767.278 511.827 765.784 521.338C760.068 515.161 754.117 512.264 750.359 508.487C752.911 504.145 756.645 488.919 757.853 483.493Z"/><path fill="#DEAF89" d="M673.579 496.875C702.442 488.609 725.798 496.62 750.348 512.156C755.974 515.613 761.157 520.55 765.79 525.269C763.725 535.886 762.172 544.63 758.911 555.021C752.03 546.691 748.148 543.823 740.232 536.817C720.095 522.534 700.633 514.924 675.913 518.678C675.207 510.951 674.688 504.597 673.579 496.875Z"/><path fill="#B38355" d="M750.348 512.156C755.974 515.613 761.157 520.55 765.79 525.269C763.725 535.886 762.172 544.63 758.911 555.021C752.03 546.691 748.148 543.823 740.232 536.817C744.019 532.523 748.376 518.176 750.348 512.156Z"/><path fill="#965B36" d="M345.192 542.67C345.65 540.252 345.199 540.691 346.648 539.188C348.704 538.46 351.009 538.443 353.184 538.485C363.649 538.688 368.194 536.954 374.636 528.707C370.427 551.763 366.898 574.981 362.795 598.06C362.347 600.584 361.807 603.236 361.161 605.715C353.84 607.802 352.115 607.879 344.608 606.336C339.036 604.165 338.097 603.954 333.778 599.683L345.192 542.67Z"/><path fill="#6E3D20" d="M345.192 542.67C345.65 540.252 345.199 540.691 346.648 539.188C348.704 538.46 351.009 538.443 353.184 538.485C363.649 538.688 368.194 536.954 374.636 528.707C370.427 551.763 366.898 574.981 362.795 598.06C362.347 600.584 361.807 603.236 361.161 605.715C353.84 607.802 352.115 607.879 344.608 606.336C346.606 605.299 348.514 604.151 350.267 602.73C355.946 598.125 362.149 551.904 363.246 542.918C356.926 543.902 351.553 543.163 345.192 542.67Z"/><path fill="#FEFCE0" d="M498.801 381.562C513.992 387.164 520.719 392.854 531.169 405.371C533.159 416.3 534.842 429.131 522.48 434.753C519.159 427.998 521.618 422.539 518.882 418.873L517.929 418.761C514.585 421.788 514.626 425.768 514.506 429.931C512.239 431.254 509.912 432.47 507.532 433.575C498.081 437.937 490.999 437.494 481.546 433.96L481.096 425.963C488.383 423.888 500.107 418.23 499.584 409.067C499.303 404.143 495.683 401.169 492.228 398.149C494.703 392.797 496.726 387.093 498.801 381.562Z"/><path fill="#8A4F2B" d="M676.004 521.147C682.159 520.537 686.123 520.266 692.26 520.796C714.321 524.258 721.333 527.789 739.769 540.399C737.505 545.305 730.503 560.774 727.39 564.057C714.772 553.039 704.83 547.791 688.314 544.268C683.315 543.608 680.416 543.464 675.348 543.417C676.445 534.234 676.437 530.189 676.004 521.147Z"/><path fill="#965B36" d="M676.004 521.147C682.159 520.537 686.123 520.266 692.26 520.796C692.368 531.079 689.464 535.792 688.314 544.268C683.315 543.608 680.416 543.464 675.348 543.417C676.445 534.234 676.437 530.189 676.004 521.147Z"/><path fill="#8A4F2B" d="M336.997 532.611C330.248 518.71 332.715 496.145 345.895 485.503C352.57 478.408 374.605 482.496 374.387 492.921C374.286 497.746 354.106 490.484 348.313 493.351C345.375 497.533 352.155 498.252 355.997 498.679C361.841 499.328 373.402 501.938 371.806 510.331C370.662 516.343 350.305 508.475 346.297 513.483C348.139 517.465 356.369 516.865 360.236 517.928C368.065 520.081 373.33 525.874 363.991 531.378C355.029 535.33 351.517 532.661 342.397 532.993C341.503 533.025 340.429 535.482 340.012 536.372C338.677 535.661 337.939 534.04 336.997 532.611Z"/><path fill="#6E3D20" d="M336.997 532.611C343.13 529.442 354.34 527.146 361.096 527.765C362.108 528.971 363.024 530.135 363.991 531.378C355.029 535.33 351.517 532.661 342.397 532.993C341.503 533.025 340.429 535.482 340.012 536.372C338.677 535.661 337.939 534.04 336.997 532.611Z"/><path fill="#DEAF89" d="M674.819 546.491C696.883 546.483 710.023 554.034 726.578 567.627C724.247 572.689 713.525 587.534 708.835 590.452C695.388 574.839 688.617 570.115 669.198 564.15C672.007 557.68 673.464 553.337 674.819 546.491Z"/><path fill="#FEFEFE" d="M571.843 547.085C580.788 533.757 590.73 517.473 589.211 500.676C588.971 498.028 585.915 497.175 585.551 494.884C589.033 492.368 595.028 497.888 597.114 500.562C599.202 512.176 597.726 520.452 595.74 532.013C599.378 526.05 599.426 525.711 601.551 519.435C603.264 514.373 602.003 505.506 604.275 503.148C610.352 503.433 610.979 514.505 610.623 518.968C609.78 529.523 605.103 544.751 599.397 553.518C593.801 555.748 589.453 558.718 584.285 554.25L587.612 546.617C585.348 548.797 582.641 551.985 580.488 554.387C576.783 551.874 575.001 550.202 571.843 547.085Z"/><path fill="#8A4F2B" d="M655.737 582.994C661.06 577.264 663.536 573.507 667.837 567.048C672.57 568.029 676.092 569.273 680.542 571.063C691.615 577.378 699.254 582.792 706.932 593.37C702.735 598.498 691.673 607.012 685.665 610.1C680.311 601.395 675.197 594.976 667.045 588.769C663.615 586.662 659.405 584.763 655.737 582.994Z"/><path fill="#965B36" d="M655.737 582.994C661.06 577.264 663.536 573.507 667.837 567.048C672.57 568.029 676.092 569.273 680.542 571.063C678.113 576.841 672.546 585.484 667.045 588.769C663.615 586.662 659.405 584.763 655.737 582.994Z"/><path fill="#DEAF89" d="M550.883 231.839C563.353 219.195 596.049 184.312 614.95 196.302C615.404 201.722 617.522 219.777 615.198 223.51C610.598 204.543 607.081 202.703 590.449 214.857C581.762 221.206 574.178 228.92 567.207 237.106C561.868 235.241 556.287 233.55 550.883 231.839Z"/><path fill="#FEFCE0" d="M514.908 314.146C517.254 316.758 519.252 318.199 522.848 318.435C536.894 319.356 570.031 290.337 579.359 298.693C580.482 299.698 580.821 301.063 581.131 302.469C579.586 307.29 565.201 315.392 560.37 317.882C559.782 318.186 559.189 318.481 558.591 318.766C547.888 327.885 516.879 340.564 508.885 321.906L508.704 321.646L508.284 320.45C510.244 317.481 511.208 315.959 514.305 314.271L514.908 314.146Z"/><path fill="#D6C5A5" d="M508.885 321.906L510.267 322.254C511.48 323.629 512.774 324.93 514.143 326.15C520.92 332.097 536.693 327.694 544.103 324.668C547.928 323.106 555.265 318.94 558.591 318.766C547.888 327.885 516.879 340.564 508.885 321.906Z"/><path fill="#FEFEFE" d="M514.305 314.271L514.926 315.254C513.326 317.496 512.014 319.346 510.212 321.458L508.704 321.646L508.284 320.45C510.244 317.481 511.208 315.959 514.305 314.271Z"/><path fill="#8A4F2B" d="M562.878 796.434C574.912 798.136 581.468 797.698 593.512 795.623C593.819 797.493 594.299 799.53 594.696 801.396C597.278 803.839 602.072 806.998 605.098 808.528C607.404 809.695 618.003 817.236 613.333 820.031C606.287 824.247 591.585 822.585 583.507 821.918C576.819 821.085 569.633 818.598 564.98 814.651C564.377 810.816 563.837 806.971 563.362 803.118C563.178 800.892 563.017 798.664 562.878 796.434Z"/><path fill="#6E3D20" d="M562.878 796.434C574.912 798.136 581.468 797.698 593.512 795.623C593.819 797.493 594.299 799.53 594.696 801.396C590.011 801.867 585.329 802.807 580.726 803.156C575.202 803.574 568.953 803.298 563.362 803.118C563.178 800.892 563.017 798.664 562.878 796.434Z"/><path fill="#DEAF89" d="M394.432 245.944C394.961 234.455 397.543 212.505 404.223 203.619C415.485 188.64 446.384 213.421 455.454 220.914C453.153 224.229 447.408 226.511 443.689 228.345C414.185 202.343 405.258 207.378 403.396 246.441C400.452 246.224 397.389 246.102 394.432 245.944Z"/><path fill="#8A4F2B" d="M461.428 800.036C461.613 798.304 461.522 797.072 462.601 795.759C466.761 795.383 471.52 795.986 475.766 795.986C480.435 795.986 484.836 795.719 489.484 795.341C489.475 801.542 490.833 814.681 483.189 816.227C474.463 818.358 437.862 824.384 432.827 817.47C433.015 810.927 455.809 802.964 461.428 800.036Z"/><path fill="#6E3D20" d="M461.428 800.036C461.613 798.304 461.522 797.072 462.601 795.759C466.761 795.383 471.52 795.986 475.766 795.986C480.435 795.986 484.836 795.719 489.484 795.341C489.475 801.542 490.833 814.681 483.189 816.227C486.931 801.199 471.767 802.302 461.428 800.036Z"/><path fill="#FEFCE0" d="M573.041 239.409C582.185 228.599 592.936 219.005 605.641 212.62C607.062 215.692 607.684 217.998 608.641 221.24C610.972 236.129 611.107 246.835 608.826 261.846C601.371 255.833 593.459 250.409 585.164 245.622L573.041 239.409Z"/><path fill="#D6C5A5" d="M573.041 239.409C582.185 228.599 592.936 219.005 605.641 212.62C607.062 215.692 607.684 217.998 608.641 221.24C597.843 224.702 587.021 233.955 585.164 245.622L573.041 239.409Z"/><path fill="#B38355" d="M726.578 567.627C734.198 574.573 738.966 580.692 744.078 589.72C737.077 601.421 731.617 608.605 722.365 618.708C718.595 606.54 716.699 600.883 708.835 590.452C713.525 587.534 724.247 572.689 726.578 567.627Z"/><path fill="#6E3D20" d="M706.932 593.37C714.877 603.484 716.235 608.761 719.847 620.896C711.594 628.712 704.311 633.138 694.788 639.162C692.544 627.715 691.236 620.419 685.665 610.1C691.673 607.012 702.735 598.498 706.932 593.37Z"/><path fill="#B38355" d="M682.943 611.415C688.843 621.89 689.95 629.107 691.753 640.717C680.473 645.669 673.675 647.829 661.587 650.519C663.171 640.487 663.802 632.655 661.53 622.474C663.674 621.911 681.097 612.818 682.943 611.415Z"/><path fill="#FEFCE0" d="M413.183 221.298C414.052 219.073 413.377 219.905 415.035 218.518C424.334 216.728 442.436 235.074 447.87 241.734C445.392 243.109 442.159 245.032 439.624 246.054C436.441 247.864 434.483 249.025 431.533 251.162C423.486 249.036 417.525 247.993 409.405 246.786C410.208 238.228 411.47 229.72 413.183 221.298Z"/><path fill="#D6C5A5" d="M413.183 221.298C414.052 219.073 413.377 219.905 415.035 218.518C424.334 216.728 442.436 235.074 447.87 241.734C445.392 243.109 442.159 245.032 439.624 246.054C433.442 231.987 429.116 224.93 413.183 221.298Z"/><path fill="#B38355" d="M614.95 196.302C629.377 214.035 629.848 258.697 628.823 281.127C624.265 275.803 619.346 271.155 614.255 266.345C616.573 251.959 617.507 238.015 615.198 223.51C617.522 219.777 615.404 201.722 614.95 196.302Z"/><path fill="#6E3D20" d="M739.769 540.399C747.764 546.656 751.228 550.522 757.938 558.218C755.075 567.476 750.895 578.024 745.896 586.35C739.27 576.149 736.535 572.696 727.39 564.057C730.503 560.774 737.505 545.305 739.769 540.399Z"/><path fill="#DEAF89" d="M653.286 585.116C668.296 591.443 674.384 597.699 682.943 611.415C681.097 612.818 663.674 621.911 661.53 622.474C657.414 608.348 654.148 602.879 643.295 593.214C647.263 590.313 649.673 588.426 653.286 585.116Z"/><defs><linearGradient id="gradient_3" gradientUnits="userSpaceOnUse" x1="455.32117" y1="349.36804" x2="497.88602" y2="353.11511"><stop offset="0" stop-color="#83572B"/><stop offset="1" stop-color="#A77546"/></linearGradient></defs><path fill="url(#gradient_3)" d="M461.479 426.365C482.394 405.47 493.952 376.993 493.513 347.432C493.082 323.394 484.492 300.217 469.153 281.704C467.544 279.73 460.002 272.546 459.803 271.471C462.076 272.49 464.859 275.687 466.744 277.508C477.888 288.274 486.412 300.841 491.947 315.406C501.726 340.539 500.884 368.565 489.613 393.066C483.072 407.529 475.008 417.647 463.282 428.114L461.479 426.365Z"/><path fill="#FEFEFE" d="M434.879 475.962C449.934 479.535 458.64 481.088 474.009 482.585L478.145 489.091L475.432 491.416C469.785 496.513 466.24 502.789 462.49 509.274C454.696 502.672 446.251 492.467 440.528 484.161C438.236 481.421 436.777 478.979 434.879 475.962Z"/><path fill="#DBDDDD" d="M434.879 475.962C449.934 479.535 458.64 481.088 474.009 482.585L478.145 489.091L475.432 491.416C471.69 489.922 444.303 484.194 440.528 484.161C438.236 481.421 436.777 478.979 434.879 475.962Z"/><path fill="#D6C5A5" d="M655.188 349.034C660.609 352.697 667.983 357.952 673.816 360.609C679.572 368.449 684.634 376.152 690.201 383.914C686.525 385.665 684.197 386.811 680.343 388.03C673.234 385.565 664.107 380.804 658.414 375.821C660.159 370.226 656.323 355.456 655.188 349.034Z"/><path fill="#D6C5A5" d="M275.565 397.389C281.783 399.284 294.487 413.499 299.227 418.62C291.761 418.333 283.027 417.099 275.524 416.192C266.699 415.264 257.502 413.883 248.691 413.319C257.346 407.515 266.318 402.196 275.565 397.389Z"/><path fill="#DBDDDD" d="M409.031 535.624C416.193 527.453 416.852 516.472 422.925 507.917C424.016 506.38 425.325 506.544 426.93 506.443C420.472 513.755 410.214 565.663 407.463 578.153C401.221 579.808 397.883 580.528 391.386 579.897C404.365 565.772 409.598 555.706 409.031 535.624Z"/><path fill="#DBDDDD" d="M392.263 549.716C398.252 551.576 398.353 548.849 402.285 545.452L402.994 544.847C400.658 561.683 391.024 581.186 371.23 579.936L372.805 569.018C382.588 563.59 387.092 559.998 392.263 549.716Z"/><path fill="#6E3D20" d="M658.334 622.629C660.791 630.738 659.913 643.124 658.028 651.334L641.303 652.016C643.954 650.423 645.608 649.644 646.378 646.49C647.667 641.208 645.84 632.63 645.03 627.081C648.291 626.292 656.388 624.795 658.334 622.629Z"/><path fill="#8A4F2B" d="M389.343 522.521C390.813 524.739 391.128 530.662 390.871 533.269C389.703 545.137 384.42 553.54 375.645 561.143L374.729 561.205C374.193 558.013 378.921 532.976 379.721 528.082C384.665 526.483 385.599 525.814 389.343 522.521Z"/><path fill="#8A4F2B" d="M639.631 594.32C650.44 601.8 654.281 610.51 658.334 622.629C656.388 624.795 648.291 626.292 645.03 627.081C643.58 616.106 641.779 605.18 639.631 594.32Z"/><path fill="#D6C5A5" d="M321.973 441.01C325.451 444.298 342.049 459.969 343.051 462.884L342.112 463.207C334.574 462.328 326.859 461.62 319.297 460.847C320.013 454.762 320.797 446.928 321.973 441.01Z"/><path fill="#B38355" d="M455.454 220.914C460.247 224.827 464.813 229.01 469.13 233.443C463.669 235.237 458.968 236.815 453.622 238.954C450.761 235.522 447.049 231.308 443.689 228.345C447.408 226.511 453.153 224.229 455.454 220.914Z"/><path fill="#DBDDDD" d="M584.285 554.25C589.453 558.718 593.801 555.748 599.397 553.518C594.807 562.186 582.783 577.882 572.281 568.102C577.565 563.582 580.9 560.46 584.285 554.25Z"/><path fill="#FEFEFE" d="M392.263 549.716C395.471 541.56 397.571 533.295 395.692 524.408C395.138 521.784 393.698 518.229 394.032 515.675L395.059 515.304C402.24 516.865 403.363 538.877 402.994 544.847L402.285 545.452C398.353 548.849 398.252 551.576 392.263 549.716Z"/><path fill="#D6C5A5" d="M219.015 432.401C220.68 433.654 218.587 447.452 218.318 450.1C213.252 449.188 205.891 448.495 200.621 447.849C199.201 447.676 198.135 447.671 196.874 447.003C198.032 445.291 216.223 434.172 219.015 432.401Z"/><path fill="#DBDDDD" d="M571.843 547.085C575.001 550.202 576.783 551.874 580.488 554.387C576.827 557.768 572.626 561.917 567.679 563.264C561.827 564.857 557.306 558.994 556.212 553.823C560.409 551.785 560.171 561.944 571.843 547.085Z"/><path fill="#DBDDDD" d="M366.131 455.813C368.319 451.528 372.609 453.706 376.641 454.703C378.635 454.958 380.772 455.188 382.743 455.512C381.691 459.81 380.742 464.131 379.895 468.474L374.228 466.714C370.94 465.625 368.128 465.457 364.695 465.083C365.314 461.905 365.95 459.053 366.131 455.813Z"/><path fill="#817E7F" d="M376.641 454.703C378.635 454.958 380.772 455.188 382.743 455.512C381.691 459.81 380.742 464.131 379.895 468.474L374.228 466.714C375.057 464.207 375.59 460.834 376.102 458.185C376.471 457.186 376.521 455.812 376.641 454.703Z"/><path fill="#A09E9F" d="M366.131 455.813C368.319 451.528 372.609 453.706 376.641 454.703C376.521 455.812 376.471 457.186 376.102 458.185C372.766 457.453 369.408 456.774 366.131 455.813Z"/><defs><linearGradient id="gradient_4" gradientUnits="userSpaceOnUse" x1="387.11868" y1="518.67242" x2="384.9736" y2="491.70093"><stop offset="0" stop-color="#74452A"/><stop offset="1" stop-color="#9B5937"/></linearGradient></defs><path fill="url(#gradient_4)" d="M387.005 489.906C395.704 498.718 390.405 510.65 384.262 519.063C382.597 520.374 383.38 520.293 381.847 520.175C381.558 515.959 385.871 494.991 387.005 489.906Z"/><path fill="#D6C5A5" d="M318.691 464.901C324.898 465.149 333.286 466.305 339.463 467.178C336.669 468.433 333.532 470.084 330.755 471.464C326.258 473.809 321.763 476.272 317.293 478.677C317.888 474.099 318.355 469.506 318.691 464.901Z"/><path fill="#B38355" d="M482.219 483.512C487.014 483.602 492.102 483.861 496.916 484.034C496.854 489.905 497.766 492.679 495.646 498.262C494.421 499.302 495.114 499.105 493.63 499.156C490.359 496.792 484.661 487.277 482.219 483.512Z"/><path fill="#D6C5A5" d="M198.063 451.976C204.401 452.511 211.281 453.457 217.645 454.222C217.408 457.973 216.762 462.567 216.332 466.361L215.776 466.881C213.371 466.168 200.956 454.585 198.063 451.976Z"/><path fill="#8A4F2B" d="M374.44 481.349C368.45 477.431 365.913 478.415 359.917 475.58C358.708 475.009 358.585 474.195 358.361 473.171C361.106 467.868 372.301 471.174 377.134 472.413C376.076 475.468 376.07 479.597 374.44 481.349Z"/><path fill="#FEFEFE" d="M457.93 437.61C461.982 434.297 469.481 427.664 473.994 425.729C475.811 427.453 475.775 431.41 476.019 434.069C473.136 435.918 470.417 437.814 467.257 439.129C463.93 438.393 462.051 438.731 457.93 437.61Z"/><path fill="#6E3D20" d="M486.195 408.759C487.103 407.022 487.712 405.339 489.364 404.362C490.373 404.329 491.372 404.175 492.04 405.146C494.692 408.998 493.412 411.058 491.469 414.214C486.674 418.543 483.513 419.254 477.477 420.807C480.155 416.859 483.363 412.646 486.195 408.759Z"/><path fill="#593017" d="M486.195 408.759C487.103 407.022 487.712 405.339 489.364 404.362C490.373 404.329 491.372 404.175 492.04 405.146C494.692 408.998 493.412 411.058 491.469 414.214C489.817 412.337 487.962 410.538 486.195 408.759Z"/><path fill="#6E3D20" d="M377.134 472.413C379.094 473.431 381.93 474.796 383.733 475.939C382.756 483.242 381.26 490.18 379.952 497.415L379.32 497.04C380.454 489.163 379.787 487.252 374.44 481.349C376.07 479.597 376.076 475.468 377.134 472.413Z"/><path fill="#DBDDDD" d="M579.513 478.193L580.151 478.476C579.652 480.574 572.32 486.063 570.231 487.748L563.475 484.407L558.278 481.376C564.309 479.969 573.303 478.961 579.513 478.193Z"/><path fill="#593017" d="M461.479 426.365L463.282 428.114C457.309 433.131 448.235 439.267 441.072 442.627L440.245 442.04C449.975 436.943 453.581 433.91 461.479 426.365Z"/><path fill="#8A4F2B" d="M379.32 497.04L379.952 497.415C379.569 500.46 378.862 503.47 378.219 506.474L375.099 501.21C376.457 499.803 377.919 498.41 379.32 497.04Z"/><path fill="#6E3D20" d="M375.915 514.997L376.251 515.436C376.198 518.234 375.864 519.493 375.304 522.198L374.552 522.374C373.698 520.832 373.469 520.393 372.853 518.758C373.51 516.583 373.916 516.808 375.915 514.997Z"/><path fill="#3D393A" d="M441.072 442.627C439.668 443.329 437.578 444.588 436.13 444.282C437.126 442.992 438.657 442.652 440.245 442.04L441.072 442.627Z"/><defs><linearGradient id="gradient_5" gradientUnits="userSpaceOnUse" x1="529.1795" y1="789.8291" x2="517.28601" y2="854.85925"><stop offset="0" stop-color="#9B9A9A" stop-opacity="0.53333336"/><stop offset="1" stop-color="#9C9A9A" stop-opacity="0.57254905"/></linearGradient></defs><path fill="url(#gradient_5)" d="M557.311 800.075C557.565 804.75 557.701 816.854 561.683 819.862C572.17 827.783 588.843 829.52 601.58 828.917C608.095 828.608 621.599 826.764 620.65 817.892C620.178 813.478 616.439 810.434 613.712 807.225C618.451 803.853 648.168 811.161 654.991 812.446C671.622 815.577 681.918 825.084 659.16 831.913C631.687 839.865 603.706 841.895 575.226 843.29C522.93 845.851 469.489 844.93 417.556 837.6C405.318 835.873 384.433 833.583 375.33 824.689C371.931 821.369 379.897 816.675 382.215 816.067C388.387 812.673 428.075 803.289 432.187 807.857C422.801 817.462 423.523 823.995 438.638 826.279C446.728 827.502 457.558 826.13 465.85 825.308C474.069 824.492 484.673 823.324 491.68 818.807C495.057 816.45 495.083 805.482 495.321 801.338C497.912 800.913 505.496 800.944 508.47 800.869C520.942 800.553 533.521 800.912 545.986 801.222C547.84 801.268 555.818 801.603 556.754 801.322L557.311 800.075Z"/></svg>