<?xml version="1.0" encoding="utf-8" ?><svg xmlns="http://www.w3.org/2000/svg" xmlns:xlink="http://www.w3.org/1999/xlink" width="1024" height="1024" viewBox="0 0 1024 1024"><path d="M606.545 236.74C620.109 221.511 660.435 178.954 674.954 214.045C680.91 228.441 683.015 255.693 683.027 271.769C683.066 275.623 682.934 279.477 682.633 283.319C700.463 307.336 714.912 333.405 732.499 357.606C737.315 364.233 731.813 366.384 726.211 369.036C728.162 371.634 729.693 373.273 729.878 376.584C728.908 379.378 726.423 380.024 725.498 382.105C724.038 385.388 726.504 387.906 724.696 391.932C718.26 406.267 700.18 418.417 687.329 426.307C708.283 453.413 710.679 479.789 695.103 510.266L699.742 535.777C717.936 535.807 734.513 531.178 747.776 518.221C778.519 488.185 758.297 435.873 798.719 412.245C818.047 400.948 838.784 400.549 855.495 416.817C867.495 428.498 870.333 447.407 870.516 463.383C870.163 493.557 853.87 523.989 832.751 545.013C828.225 549.518 823.487 552.883 819.206 556.982C821.911 557.081 830.952 557.168 833.046 558.181C843.011 563.002 853.314 569.425 862.998 574.819L899.609 595.001C904.645 597.763 916.177 603.68 920.123 607.058C919.777 637.072 921.636 630.466 893.04 630.953L893.136 880.909C901.309 881.693 947.184 885.563 948.102 894.435C947.15 896.411 945.629 897.282 943.675 898.14C926.256 905.785 861.657 909.375 840.073 910.709C633.021 921.683 425.55 922.311 218.435 912.592C207.406 912.07 191.23 911.679 180.551 910.548C165.452 908.95 80.291 905.246 75.9646 894.227C76.1974 893.034 76.4657 892.225 77.3902 891.377C84.387 884.956 135.458 880.025 147.354 880.064C146.549 851.491 147.193 820.05 147.201 791.264L147.095 631.006C118.859 630.957 118.86 636.923 120.489 606.353C144.618 593.519 181.919 571.205 207.266 558.334C209.937 556.978 237.468 557.805 244.543 556.612C240.066 555.584 227.054 553.256 224.374 549.997C225.26 545.391 262.725 531.728 269.09 529.981L271.843 522.372C265.911 522.539 247.047 525.443 243.304 523.581L242.503 522.549C243.993 518.024 254.994 512.102 259.236 509.34C269.548 502.492 280.027 495.899 290.662 489.565C286.289 489.34 272.841 489.403 269.102 486.874C268.606 486.539 268.766 485.935 268.742 485.188C271.555 480.614 325.654 463.707 334.644 460.359C339.019 458.73 361.516 460.204 368.106 460.517C368.415 456.036 368.784 451.558 369.212 447.086L374.57 446.408C382.983 428.919 396.964 423.71 415.168 419.934C423.18 409.067 428.133 414.838 438.959 409.679C444.435 411.404 450.196 413.226 456.051 411.418L456.438 410.764C454.475 405.397 442.505 399.785 447.911 389.493C432.399 375.456 445.187 378.573 442.303 371.641C440.53 370.269 438.84 370.024 437.722 368.179C437.483 366.99 437.352 365.621 437.956 364.519C451.765 339.318 465.037 312.775 480.903 288.869C478.199 271.098 472.916 210.312 498.363 206.755C518.643 203.92 539.11 228.671 553.22 238.808C571.584 232.709 588.111 234.62 606.545 236.74ZM464.516 444.06C476.644 445.301 487.723 446.252 499.551 449.596C502.026 450.296 507.752 452.154 509.917 451.054L512.807 450.121C516.021 449.92 518.164 449.932 521.381 450.032C519.665 447.431 517.489 443.272 515.905 440.461C496.075 437.897 480.255 427.451 464.176 417.275C459.936 417.579 457.123 417.707 452.893 417.585C459.509 426.333 463.076 433.122 464.516 444.06Z"/><path fill="#999695" d="M893.136 880.909C901.309 881.693 947.184 885.563 948.102 894.435C947.15 896.411 945.629 897.282 943.675 898.14C926.256 905.785 861.657 909.375 840.073 910.709C633.021 921.683 425.55 922.311 218.435 912.592C207.406 912.07 191.23 911.679 180.551 910.548C165.452 908.95 80.291 905.246 75.9646 894.227C76.1974 893.034 76.4657 892.225 77.3902 891.377C84.387 884.956 135.458 880.025 147.354 880.064C147.407 884.505 147.313 890.302 147.803 894.611C158.261 896.339 181.953 895.506 193.869 895.501L282.86 895.499L607.7 895.452L811.974 895.492L863.005 895.542C870.311 895.55 886.145 896.107 892.538 894.659C893.2 890.125 893.103 885.496 893.136 880.909Z"/><path fill="#B58355" d="M185.503 630.815C217.64 631.499 252.867 629.348 284.253 631.123C277.832 634.097 246.016 649.81 243.517 654.72C243.872 656.551 243.454 655.813 244.71 657.066C246.038 657.382 246.504 657.276 247.31 658.275C247.376 661.456 244.239 661.588 245.222 665.393C246.473 666.734 247.957 666.827 249.803 667.271L244.518 672.666L248.667 674.72C246.947 677.078 245.582 678.332 245.755 681.102C247.28 682.93 247.121 682.442 249.671 683.428C243.828 691.423 247.594 687.685 249.406 692.553C249.215 694.878 247.683 697.031 246.486 699.144L253.193 700.147C251.82 701.997 250.942 703.055 250.473 705.272C250.67 706.002 250.782 706.913 251.767 707.063C259.747 708.276 271.71 708.266 279.472 708.333C295.955 708.454 312.436 708.729 328.914 709.158C332.807 709.238 352.219 708.941 354.206 710.54C352.582 712.278 329.65 711.55 325.684 711.55L273.343 711.553C263.642 711.555 251.915 711.262 242.38 711.905C241.912 720.514 242.184 729.101 242.172 737.724C242.155 749.352 241.955 760.83 242.45 772.451C289.919 773.157 338.945 772.477 386.519 772.433C386.726 752.288 386.723 732.141 386.512 711.996C377.333 711.749 367.746 711.908 358.536 711.932C367.119 700.788 376.19 690.057 384.707 678.881C384.703 678.559 384.699 678.236 384.695 677.914C381.336 674.318 384.126 676.097 383.951 672.64C382.83 671.692 381.829 671.105 381.428 669.744C381.805 666.943 383.455 667.867 383.821 665.433C382.755 663.871 382.042 663.736 380.326 662.952L382.74 656.616C390.168 658.306 401.43 658.015 409.231 657.996L444.506 657.588C449.006 657.541 462.486 658.4 465.731 657.47C467.091 659.171 467.051 658.641 467.378 660.538C466.8 661.565 466.546 661.971 465.826 662.872L465.212 663.633C464.994 666.272 465.708 665.437 466.654 667.952C467.349 669.802 465.608 668.553 464.439 671.499C465.078 672.899 465.197 673.035 465.475 674.524C464.717 675.575 464.449 675.937 463.864 677.083C466.534 684.529 486.242 708.007 491.946 714.379C505.645 714.857 590.075 715.051 597.16 712.474L597.379 711.647C596.723 709.484 595.492 708.309 594.045 706.543C597.543 703.966 596.449 704.068 596.101 700.026C597.363 698.681 597.921 698.927 600.062 698.351C599.176 696.679 595.691 691.306 595.606 690.344C597.233 689.78 598.356 689.605 599.419 688.284C599.505 686.151 598.254 684.813 597.052 682.659L597.228 682.098C598.955 681.768 600.632 681.775 601.552 680.241C601.463 677.476 598.613 677.469 598.603 673.779C599.63 672.641 599.825 672.631 600.258 671.205C599.575 668.786 598.277 668.059 596.94 665.97L597.282 665.33C605.548 665.865 598.851 659.915 598.853 657.431L599.906 657.03C606.015 658.326 612.677 657.97 618.912 657.987C634.952 658.032 651.325 657.328 667.355 657.75L668.351 659.387L668.006 660.176C666.136 660.802 666.103 660.486 665.019 661.756C665.165 665.491 667.866 665.505 667.061 668.098C664.053 669.79 664.58 669.711 665.849 673.314C665.155 675.833 662.43 674.103 665.879 679.467C669.231 684.677 673.076 689.506 676.752 694.486C682.274 702.056 687.715 709.684 693.075 717.369C702.818 716.877 713.472 717.094 723.294 717.042C739.816 716.97 756.337 716.745 772.855 716.366C778.024 716.231 794.617 715.922 798.46 714.564C800.116 711.45 796.18 710.281 796.32 707.537C798.094 705.834 798.021 706.442 798.251 704.521C797.51 702.238 796.187 701.076 794.586 699.256C796.245 698.166 797.128 697.857 797.799 696.013C797.372 692.402 795.389 693.267 794.566 689.215C796.579 687.353 796.942 689.094 798.653 686.993C798.753 683.389 796.628 683.42 796.444 680.837C798.079 680.273 799.095 679.883 800.668 679.169L801.028 678.338C800 676.281 798.152 673.845 798.115 672.135L800.164 670.653C800.528 668.162 797.953 666.073 796.312 664.331C798.281 664.012 799.735 664.028 801.204 662.75C801.805 660.814 801.192 659.902 800.133 658.183C804.644 657.466 816.056 657.851 821.206 657.882C832.336 658.012 843.467 657.908 854.593 657.569L854.584 814.557C854.595 839.468 855.346 864.631 854.735 889.502L185.612 889.475C185.577 883.957 185.326 876.596 185.567 871.226C185.209 863.095 185.515 852.255 185.515 843.925L185.513 790.97L185.503 630.815Z"/><path fill="#966743" d="M185.503 630.815C217.64 631.499 252.867 629.348 284.253 631.123C277.832 634.097 246.016 649.81 243.517 654.72C243.872 656.551 243.454 655.813 244.71 657.066C240.837 657.824 229.463 657.585 225.13 657.568C212.083 657.586 199.038 657.385 185.999 656.964L186.057 805.287L186.089 848.281C186.092 853.809 186.368 866.351 185.567 871.226C185.209 863.095 185.515 852.255 185.515 843.925L185.513 790.97L185.503 630.815Z"/><path d="M468.095 717.492L548.228 717.466C565.95 717.47 584.963 717.079 602.504 718.016C603.129 738.163 602.968 757.324 602.796 777.446C558.449 778.154 512.448 777.487 467.989 777.445L468.095 717.492Z"/><path fill="#FDFBEE" d="M474.218 721.74L598.42 722.017L598.484 755.849C598.49 759.317 598.737 769.355 598.331 772.416L597.455 772.91C555.807 773.246 514.157 773.272 472.508 772.988C472.446 765.865 471.528 726.479 472.945 722.083L474.218 721.74Z"/><path d="M481.886 731.525C489.895 731.215 505.722 729.285 504.521 741.586C504.105 745.839 502.492 746.921 499.511 749.622L505.743 761.02L498.982 761.161C496.059 759.105 494.038 750.635 490.006 750.886C488.149 753.235 488.531 757.82 488.547 760.86L481.583 760.899C481.533 751.107 481.634 741.314 481.886 731.525Z"/><path fill="#FDFBEE" d="M489.119 737.088C494.974 737.011 498.809 737.399 496.715 744.35C493.648 744.895 492.059 744.931 488.96 745.03C488.992 742.382 489.045 739.735 489.119 737.088Z"/><path d="M544.993 738.571C556.892 739.61 557.548 755.661 548.371 760.619C545.535 762.15 542.88 760.995 540.022 760.031L539.997 767.625L539.995 768.756C538.655 770.566 535.105 770.629 533.328 769.509C532.727 764.647 532.972 744.754 533.656 740.144C537.384 738.828 539.153 741.161 544.993 738.571Z"/><path fill="#FDFBEE" d="M541.609 744.358C550.027 744.702 548.073 750.517 545.239 755.772C537.236 756.75 539.341 748.795 541.609 744.358Z"/><path d="M517.299 738.491C526.89 738.307 528.306 743.573 528.548 752.002C525.63 751.957 516.713 751.115 515.09 753.125C516.467 756.843 523.361 754.584 527.359 757.105C526.26 762.252 520.269 762.093 516.224 760.731C512.82 759.593 510.034 757.106 508.517 753.853C504.881 746.042 510.824 741.352 517.299 738.491Z"/><path fill="#FDFBEE" d="M517.376 743.837C519.342 744.069 521.934 744.483 522.302 746.679L521.421 747.505C519.317 747.535 517.34 747.837 515.761 746.661C515.965 744.999 516.064 745.373 517.376 743.837Z"/><path d="M586.537 738.904L593.241 739.004L586.691 756.865C584.674 762.544 580.202 773.604 572.147 769.291C571.113 767.747 571.271 768.547 571.463 766.855C572.48 765.338 576.275 763.439 578.191 762.178C576.889 755.172 572.786 745.959 569.99 739.135L576.868 738.979C578.344 744.072 580.05 749.096 581.981 754.034C583.104 749.393 585.094 743.556 586.537 738.904Z"/><path d="M559.087 730.013L565.664 729.906C565.582 738.568 565.479 745.875 566.234 754.51C568.286 756.655 570.075 758.234 568.383 761.326C562.206 761.819 559.002 759.03 558.711 752.891C558.368 745.641 558.884 737.257 559.087 730.013Z"/><path d="M669.46 723.191C713.272 722.156 759.796 723.001 803.78 723.056C804.103 742.708 804.008 762.364 803.496 782.011L669.267 782.183C668.694 764.746 668.626 740.21 669.46 723.191Z"/><path fill="#FDFBEE" d="M673.457 727.495L799.501 727.457L799.486 777.533L673.498 777.584L673.457 727.495Z"/><path d="M687.053 737.488C696.609 737.203 710.191 736.379 711.551 749.247C712.189 755.274 711.377 758.163 707.669 762.889C701.612 767.508 694.271 766.646 687.016 766.5L687.053 737.488Z"/><path fill="#FDFBEE" d="M694.126 742.839C705.333 742.978 706.39 750.24 702.418 759.102C700.252 760.544 697.554 761.642 695.224 760.212C693.162 756.697 694.071 747.618 694.126 742.839Z"/><path d="M724.049 744.733C730.135 743.512 736.049 747.488 737.215 753.584C738.382 759.681 734.354 765.559 728.247 766.671C722.217 767.77 716.428 763.803 715.276 757.782C714.124 751.762 718.039 745.938 724.049 744.733Z"/><path fill="#FDFBEE" d="M724.921 749.645C732.714 750.981 730.613 756.611 728.034 761.541C719.968 761.409 722.138 754.14 724.921 749.645Z"/><path d="M774.459 744.523C780.296 744.164 787.379 744.875 787.78 753.97C787.991 758.756 776.86 757.09 774.253 759.043C776.229 763.311 781.122 760.716 784.431 760.752C785.142 762.091 785.147 762.018 785.38 763.503C781.241 774.506 751.788 758.483 774.459 744.523Z"/><path fill="#FDFBEE" d="M775.538 749.33C777.638 749.447 780.852 749.695 780.981 752.272L780.016 753.281C778.139 753.299 776.326 753.521 774.682 752.698C774.228 751.018 774.475 751.413 775.538 749.33Z"/><path d="M753.356 744.522C765.414 744.194 762.761 758.239 762.403 766.493L755.456 766.496C755.592 762.545 756.619 754.295 754.284 751.406C753.329 750.226 752.072 750.244 750.652 750.109C747.448 754.598 748.35 760.989 748.521 766.499L741.955 766.497C741.899 762.681 741.376 749.562 742.27 746.601C744.546 744.89 748.532 746.986 753.356 744.522Z"/><defs><linearGradient id="gradient_0" gradientUnits="userSpaceOnUse" x1="574.11621" y1="405.56168" x2="562.40442" y2="301.45462"><stop offset="0" stop-color="#3F282C"/><stop offset="1" stop-color="#785963"/></linearGradient></defs><path fill="url(#gradient_0)" d="M593.474 317.591C600.968 316.355 608.165 314.509 614.237 309.69C621.019 304.308 620.101 301.174 629.398 302.652C657.894 312.159 673.452 333.797 694.348 354.091C702.974 361.259 708.421 366.087 719.448 369.088C721.01 371.419 722.437 373.606 724.174 375.819C718.979 379.687 717.259 380.043 719.123 386.775C705.852 392.384 682.751 397.823 668.245 396.209C659.93 395.785 653.143 395.472 644.894 394.11C636.962 392.116 633.683 391.538 626.095 388.154C612.38 381.744 606.247 373.691 595.36 363.697C586.756 355.799 569.954 350.526 558.638 354.964C538.449 363.248 537.548 380.268 515.725 390.755C508.306 394.314 504.711 395.455 496.62 397.325C482.175 400.837 465.458 399.612 451.478 394.618C452.757 392.546 453.686 390.486 454.74 388.296C451.541 385.395 448.294 382.546 445.002 379.751C450.987 370.206 452.305 369.76 460.732 362.878C465.685 358.903 470.352 354.583 474.698 349.951C485.427 338.331 494.215 325.34 505.612 314.745C510.144 310.532 516.881 307.414 522.55 305.07C524.78 304.618 525.526 304.21 527.561 305.742C537.031 312.87 540.216 316.977 552.46 317.539C555.664 316.727 556.631 315.697 559.029 313.522C559.401 311.783 559.243 310.933 560.288 309.925C563.773 310.132 565.5 311.054 568.267 311.444C573.537 312.187 581.859 309.176 586.663 307.264C587.015 310.565 586.931 312.467 589.099 315.068C590.337 315.484 592.283 316.833 593.474 317.591Z"/><path fill="#352323" d="M694.348 354.091C702.974 361.259 708.421 366.087 719.448 369.088C721.01 371.419 722.437 373.606 724.174 375.819C718.979 379.687 717.259 380.043 719.123 386.775C705.852 392.384 682.751 397.823 668.245 396.209C669.327 395.121 672.175 392.844 673.394 391.878C688.237 380.112 692.541 372.687 694.348 354.091Z"/><path fill="#6B4D57" d="M496.62 397.325C491.737 394.816 485.576 394.486 482.287 389.537C473.973 377.027 493.707 371.152 502.931 373.956C510.656 376.304 512.915 377.703 516.878 384.109C516.555 386.27 516.103 388.587 515.725 390.755C508.306 394.314 504.711 395.455 496.62 397.325Z"/><path fill="#6B4D57" d="M625.388 382.647C630.217 376.044 634.671 373.259 643.425 371.335C653.355 369.153 668.748 377.046 659.903 388.44C657.235 391.876 649.541 394.184 644.894 394.11C636.962 392.116 633.683 391.538 626.095 388.154C625.872 386.434 625.536 384.336 625.388 382.647Z"/><path fill="#352323" d="M593.474 317.591C600.968 316.355 608.165 314.509 614.237 309.69C621.019 304.308 620.101 301.174 629.398 302.652C625.974 303.223 620.229 310.086 617.045 312.508C610.495 317.491 593.276 328.167 589.099 315.068C590.337 315.484 592.283 316.833 593.474 317.591Z"/><path fill="#352323" d="M522.55 305.07C524.78 304.618 525.526 304.21 527.561 305.742C537.031 312.87 540.216 316.977 552.46 317.539L554.743 320.937C541.363 325.393 530.469 314.225 522.55 305.07Z"/><path fill="#352323" d="M552.46 317.539C555.664 316.727 556.631 315.697 559.029 313.522C558.689 317.585 558.148 318.648 554.743 320.937L552.46 317.539Z"/><path d="M619.581 321.596C645.966 323.035 654.255 363.412 623.102 372.669C595.422 372.262 589.469 336.517 611.754 324.054C614.009 322.793 617.023 322.16 619.581 321.596Z"/><path fill="#FDFBEE" d="M616.859 327.516C631.642 326.97 639.894 338.875 636.686 353.145C635.22 359.667 631.062 363.27 625.504 366.48C626.151 365.407 626.749 364.307 627.297 363.18C629.861 357.929 629.281 354.282 627.448 348.959C623.579 343.821 618.229 338.56 611.908 344.839C607.526 349.191 607.405 354.725 607.343 360.537C601.067 346.311 601.564 335.115 616.859 327.516Z"/><path fill="#FDFBEE" d="M614.309 347.631C616.524 348.477 617.185 348.722 618.063 350.995C617.992 353.213 617.371 353.818 616.168 355.806C611.21 353.782 612.052 351.451 614.309 347.631Z"/><path d="M522.261 323.085C532.799 322.413 541.499 326.674 545.76 336.675C548.702 343.615 548.712 351.45 545.79 358.399C542.402 366.392 537.29 369.733 529.658 372.686C502.027 377.03 490.945 334.059 522.261 323.085Z"/><path fill="#FDFBEE" d="M522.79 328.512C541.506 327.881 546.264 345.945 538.537 360.237C538.808 349.082 533.142 338.54 520.873 345.187C513.633 353.313 515.698 359.207 520.383 367.819C505.463 355.61 503.15 337.484 522.79 328.512Z"/><path fill="#FDFBEE" d="M523.202 348.155C528.168 349.829 526.986 352.471 525.408 356.215C520.148 354.497 520.598 352.208 523.202 348.155Z"/><path fill="#DDA981" d="M530.887 387.531C537.426 381.132 542.599 373.54 549.339 367.378C570.005 348.485 587.911 362.73 602.711 378.585C625.037 396.901 640.094 401.895 669.564 401.513C687.209 401.523 700.039 399.917 716.778 394.08C695.757 423.205 662.934 431.413 629.415 436.771C587.899 443.408 543.392 444.685 503.014 431.208C496.206 428.936 486 424.723 480.153 420.861C471.844 416.546 464.026 409.75 457.531 403.1L458.529 403.236C484.82 406.774 509.207 404.037 530.887 387.531Z"/><path fill="#FDFBEE" d="M530.887 387.531C537.426 381.132 542.599 373.54 549.339 367.378C570.005 348.485 587.911 362.73 602.711 378.585C607.102 399.025 599.912 404.764 580.616 408.212C582.408 409.407 584.62 410.669 584.826 413C584.126 414.253 584.607 413.779 583.305 414.446C577.913 413.7 568.494 407.604 564.155 407.558C555.337 407.48 544 414.808 535.479 409.953C529.114 406.326 526.98 398.795 530.732 392.451L530.887 387.531Z"/><path d="M559.209 396.241C553.449 393.877 548.836 391.483 546.203 385.612C543.547 379.691 549.932 372.576 555.275 371.458C577.673 366.771 590.771 386.209 564.391 396.394L565.091 402.194C570.636 404.08 575.248 405.698 580.616 408.212C582.408 409.407 584.62 410.669 584.826 413C584.126 414.253 584.607 413.779 583.305 414.446C577.913 413.7 568.494 407.604 564.155 407.558C555.337 407.48 544 414.808 535.479 409.953C529.114 406.326 526.98 398.795 530.732 392.451C543.407 383.02 548.172 394.451 553.085 404.783L560.289 402.642C559.91 400.549 559.466 398.341 559.209 396.241Z"/><path fill="#7C4322" d="M551.597 385.205C549.147 373.842 562.668 376.095 569.668 376.582C578.433 382.938 570.11 390.159 562.796 390.7C559.401 390.984 556.047 389.796 553.589 387.437C552.907 386.77 552.213 385.941 551.597 385.205Z"/><path fill="#62341C" d="M569.668 376.582C578.433 382.938 570.11 390.159 562.796 390.7C559.401 390.984 556.047 389.796 553.589 387.437C552.907 386.77 552.213 385.941 551.597 385.205C562.076 388.43 566.375 386.998 569.668 376.582Z"/><path fill="#F37969" d="M536.205 393.409C541.813 393.514 548.492 400.613 547.396 405.528C545.036 407.341 543.476 406.538 541.968 404.261C541.269 402.484 540.985 401.128 539.502 399.992L538.827 400.425C538.226 402.975 538.77 404.438 539.305 407.011C533.697 402.002 531.316 400.122 536.205 393.409Z"/><path fill="#B58355" d="M669.564 401.513C687.209 401.523 700.039 399.917 716.778 394.08C695.757 423.205 662.934 431.413 629.415 436.771C587.899 443.408 543.392 444.685 503.014 431.208C496.206 428.936 486 424.723 480.153 420.861C482.083 421.051 483.025 421.381 484.19 419.85C483.746 418.098 482.351 416.985 481.055 415.66C516.725 434.096 551.857 437.305 591.327 432.335C614.305 429.442 637.276 423.661 657.266 411.521C661.339 409.048 666.642 405.295 669.564 401.513Z"/><path d="M556.528 416.087L557.028 416.036C560.29 415.739 567.401 415.297 569.886 417.36C570.181 419.024 570.241 418.165 569.212 419.955C563.567 421.715 558.774 422.466 556.528 416.087Z"/><path fill="#B58355" d="M469.118 407.879C470.582 408.468 471.467 409.334 472.692 410.328L472.141 410.591C470.558 410.027 470.399 409.346 469.118 407.879Z"/><path fill="#DDA981" d="M460.116 336.35C461.681 332.02 466.488 323.839 468.794 319.514C480.441 297.673 493.68 278.056 513.525 262.622C538.234 243.405 570.059 237.908 600.635 241.44C629.502 244.774 660.517 264.767 678.218 287.534C678.723 290.125 679.576 291.695 680.642 294.051C685.897 305.667 691.879 317.297 693.823 330.034C695.778 336.698 697.796 342.993 698.206 349.984C675.514 330.602 658.819 302.197 626.426 297.167C627.006 292.383 627.276 291.476 624.762 287.479C610.079 279.877 599.879 291.873 589.442 299.963C584.254 303.985 569.25 308.142 562.827 304.806C552.525 299.454 532.859 273.631 521.153 289.424C520.603 294.872 520.919 295.172 523.018 300.068C509.962 303.449 502.2 309.156 493.534 319.529C487.228 327.078 454.246 369.027 445.046 365.727C443.433 362.551 453.522 348.933 454.901 345.113C455.425 343.66 459.145 337.338 460.116 336.35Z"/><path fill="#FDFBEE" d="M460.116 336.35C462.702 335.259 467.067 330.227 469.314 328.051C486.346 311.553 497.155 295.534 521.153 289.424C520.603 294.872 520.919 295.172 523.018 300.068C509.962 303.449 502.2 309.156 493.534 319.529C487.228 327.078 454.246 369.027 445.046 365.727C443.433 362.551 453.522 348.933 454.901 345.113C455.425 343.66 459.145 337.338 460.116 336.35Z"/><path fill="#FDFBEE" d="M624.762 287.479C638.13 285.524 653.897 295.128 664.304 302.575C675.125 310.319 684.12 321.493 693.823 330.034C695.778 336.698 697.796 342.993 698.206 349.984C675.514 330.602 658.819 302.197 626.426 297.167C627.006 292.383 627.276 291.476 624.762 287.479Z"/><path fill="#966743" d="M125.951 611.502L913.957 611.459L913.961 624.99L125.778 624.715C125.805 620.31 125.863 615.906 125.951 611.502Z"/><path fill="#DDA981" d="M660.794 563.553C702.727 563.077 744.664 563.03 786.598 563.412C791.775 563.42 829.509 563.031 831.201 563.997C854.873 577.518 882.264 591.434 905.592 605.286L704.641 605.385C682.408 605.505 660.174 605.418 637.943 605.123C632.949 605.064 618.309 605.517 614.256 605.044C611.297 603.619 602.77 604.673 598.379 604.109L598.862 603.476C601.866 603.922 608.14 604.275 610.602 602.427C615.526 601.442 621.358 600.76 626.387 600.051C628.409 599.387 644.288 597.072 647.476 596.666C664.805 594.46 683.846 590.887 701.12 589.892C702.635 588.389 702.663 588.795 703.192 587.007C702.466 584.658 697.359 582.222 695.128 581.068C683.727 575.169 672.253 569.349 660.794 563.553Z"/><path fill="#966743" d="M626.387 600.051C628.409 599.387 644.288 597.072 647.476 596.666C664.805 594.46 683.846 590.887 701.12 589.892C700.589 590.966 700.011 592.826 698.705 592.959C681.094 594.761 660.605 600.085 643.241 600.883L643.173 600.562L645.206 599.422L644.876 599.028C638.338 598.823 633.343 600.741 626.387 600.051Z"/><path fill="#FDFBEE" d="M246.508 716.007L382.498 716.457C382.669 733.726 382.629 750.996 382.377 768.264L246.511 768.093L246.508 716.007Z"/><path d="M259.468 727.016L267.646 726.884C270.508 736.153 274.45 745.881 277.466 755.493L270.277 755.502L268.056 748.586L259.209 748.705L257.041 755.582L249.975 755.491C253.284 746.049 256.449 736.556 259.468 727.016Z"/><path fill="#FDFBEE" d="M263.172 734.279C265.198 735.809 266.862 741.444 265.304 743.879C258.994 743.165 261.709 738.605 263.172 734.279Z"/><path d="M340.168 733.807C346.214 733.453 351.421 738.024 351.855 744.065C352.288 750.106 347.785 755.373 341.751 755.886C337.776 756.223 333.927 754.396 331.676 751.102C329.425 747.809 329.12 743.559 330.878 739.978C332.636 736.397 336.185 734.039 340.168 733.807Z"/><path fill="#FDFBEE" d="M339.624 738.733C346.786 740.34 345.573 745.916 342.373 750.826C333.956 749.782 336.433 743.564 339.624 738.733Z"/><path d="M367.94 733.455C379.681 733.209 377.038 747.841 376.445 755.556L369.94 755.501C370.156 751.6 371.309 743.606 368.838 740.568C367.713 739.185 366.702 739.333 364.996 739.04C362.395 741.815 363.056 751.298 363.028 755.557L356.406 755.498C356.332 749.799 355.96 742.213 356.675 736.489C357.186 732.405 364.127 737.244 367.419 733.783C367.592 733.674 367.766 733.565 367.94 733.455Z"/><path d="M303.629 727.486C311.528 727.287 307.398 728.982 310.35 733.436C310.658 733.9 312.358 732.866 314.368 734.569C314.983 739.012 310.874 739.282 309.781 742.609C307.784 748.691 310.699 749.111 314.518 752.228C314.901 753.206 315.231 754.048 315.508 754.756C313.723 755.981 308.834 756.009 306.961 755.201C301.066 752.659 304.626 744.978 302.185 739.62C301.046 739.017 300.794 738.875 299.777 738.093C298.525 732.756 302.903 735.285 303.574 728.133L303.629 727.486Z"/><path d="M288.271 733.521C292.435 733.445 294.813 733.021 297.284 736.897C296.391 740.126 285.155 738.176 285.635 744.3C285.781 746.165 286.879 749.38 288.953 749.77C293.586 750.641 294.073 748.369 297.551 752.427L297.933 752.881C285.308 765.453 268.058 741.005 288.271 733.521Z"/><path d="M318.979 733.98L325.516 733.955L325.512 755.528L318.989 755.507L318.979 733.98Z"/><path d="M322.078 723.788C324.055 723.692 325.756 725.17 325.938 727.14C326.12 729.11 324.718 730.875 322.758 731.143C321.411 731.327 320.072 730.757 319.271 729.659C318.47 728.561 318.336 727.112 318.922 725.885C319.509 724.659 320.721 723.854 322.078 723.788Z"/><path fill="#B58355" d="M860.505 630.571L886.945 630.777C886.822 652.679 887.481 676.226 886.872 697.875L887.072 889.502L860.925 889.482C860.249 886.629 860.497 871.594 860.503 867.84L860.582 822.639L860.505 630.571Z"/><path fill="#966743" d="M860.505 630.571L886.945 630.777C886.822 652.679 887.481 676.226 886.872 697.875C886.01 696.342 886.341 661.474 886.341 657.227C878.054 656.901 869.331 657.09 861.003 657.151L861.111 813.543L861.098 863.816C861.094 870.427 861.457 883.148 860.925 889.482C860.249 886.629 860.497 871.594 860.503 867.84L860.582 822.639L860.505 630.571Z"/><path fill="#B58355" d="M153.483 630.785L179.92 630.569L179.92 684.851C179.934 690.167 180.302 707.422 179.568 711.624C180.158 730.408 179.6 752.568 179.595 771.622L179.564 889.5L153.473 889.476L153.408 657.428L153.483 630.785Z"/><path fill="#966743" d="M153.483 630.785L179.92 630.569L179.92 684.851C179.934 690.167 180.302 707.422 179.568 711.624C179.097 706.68 179.352 697.745 179.35 692.581L179.352 657.496C170.866 657.311 161.929 657.439 153.408 657.428L153.483 630.785Z"/><defs><linearGradient id="gradient_1" gradientUnits="userSpaceOnUse" x1="443.452" y1="534.6358" x2="168.37534" y2="668.48175"><stop offset="0" stop-color="#95664C"/><stop offset="1" stop-color="#DEA774"/></linearGradient></defs><path fill="url(#gradient_1)" d="M209.587 563.215L227.351 563.554C220.037 567.163 190.769 579.881 186.647 584.523C186.31 586.206 186.204 585.416 187.031 586.967C189.543 588.87 192.388 588.85 195.489 589.113C220.102 590.674 245.258 593.727 270.065 595.661L275.487 592.959L281.547 595.236C289.379 597.804 302.065 602.363 309.683 604.175C320.269 600.191 331.802 593.098 342.245 588.139C347.041 592.533 350.978 596.276 356.163 600.182C366.767 598.117 377.229 595.207 387.726 592.62C387.684 596.026 387.114 599.143 389.401 601.579C395.709 604.308 467.644 598.913 482.73 599.65L490.601 598.616L490.346 591.401C497.11 592.329 503.9 593.051 510.708 593.567C518.527 593.945 525.432 594.631 533.302 594.556L537.705 598.756C548.73 597.077 559.734 595.264 570.714 593.318C575.219 592.533 582.329 591.517 586.622 590.47C591.947 595.094 596.919 598.829 602.568 603.077C605.375 602.75 607.76 602.411 610.602 602.427C608.14 604.275 601.866 603.922 598.862 603.476L598.379 604.109C602.77 604.673 611.297 603.619 614.256 605.044C609.409 605.498 604.173 605.439 599.284 605.314C585.948 604.974 572.597 605.489 559.271 605.384C546.315 606.168 523.738 605.437 510.11 605.41L420.457 605.488L134.751 605.485C144.294 599.262 156.876 592.745 167.002 587.142L209.587 563.215Z"/><path fill="#B58355" d="M537.705 598.756C548.73 597.077 559.734 595.264 570.714 593.318C575.219 592.533 582.329 591.517 586.622 590.47C591.947 595.094 596.919 598.829 602.568 603.077C605.375 602.75 607.76 602.411 610.602 602.427C608.14 604.275 601.866 603.922 598.862 603.476L598.379 604.109C602.77 604.673 611.297 603.619 614.256 605.044C609.409 605.498 604.173 605.439 599.284 605.314C585.948 604.974 572.597 605.489 559.271 605.384C556.332 604.724 543.292 604.927 539.784 604.924L496.503 604.944C489.464 604.95 482.304 605.499 475.5 603.495L475.329 602.675C477.605 599.999 479.244 600.182 482.73 599.65L490.601 598.616L490.346 591.401C497.11 592.329 503.9 593.051 510.708 593.567C518.527 593.945 525.432 594.631 533.302 594.556L537.705 598.756Z"/><path fill="#966743" d="M537.705 598.756C548.73 597.077 559.734 595.264 570.714 593.318C575.219 592.533 582.329 591.517 586.622 590.47C591.947 595.094 596.919 598.829 602.568 603.077C605.375 602.75 607.76 602.411 610.602 602.427C608.14 604.275 601.866 603.922 598.862 603.476C597.177 602.19 585.608 599.724 583.1 599.641C571.819 599.269 559.469 602.402 548.237 602.265C534.261 602.094 522.817 599.741 508.633 600.862C510.548 599.147 514.487 596.788 513.297 594.264L510.708 593.567C518.527 593.945 525.432 594.631 533.302 594.556L537.705 598.756Z"/><path fill="#966743" d="M498.61 601.209C500.291 600.935 500.543 600.791 502.25 601.067L502.227 601.845C500.674 602.048 499.908 602.254 498.355 601.929L498.61 601.209Z"/><path fill="#966743" d="M195.489 589.113C220.102 590.674 245.258 593.727 270.065 595.661L275.487 592.959L281.547 595.236C277.436 597.345 280.83 598.131 279.217 600.499C269.307 601.115 201.36 593.971 195.749 590.653L195.489 589.113Z"/><path fill="#FDFBEE" d="M656.456 436.81C665.282 435.137 673.857 432.247 682.189 428.928C694.615 443.432 700.823 459.369 699.356 478.712C698.215 495.069 690.634 510.305 678.274 521.079C676.791 522.353 674.65 523.973 673.026 525.062C672.748 514.895 672.344 511.025 669.682 501.212C664.011 487.017 659.822 482.391 648.681 472.54C650.611 469.556 655.344 462.116 652.795 458.909L651.646 459.014C647.745 461.451 646.022 465.646 643.864 469.692C637.709 471.519 636.563 469.995 631.769 475.053C622.948 476.534 620.106 477.781 618.12 486.842C614.096 487.912 609.2 490.759 605.564 491.272C599.213 491.778 593.406 490.655 586.972 491.576C583.048 492.138 574.947 496.318 571.662 494.667C569.365 491.07 571.652 470.248 572.168 464.794L574.985 461.796C577.228 459.025 578.734 457.436 581.269 454.912C588.183 463.644 590.738 470.99 596.548 478.674C617.102 470.728 641.416 453.078 656.456 436.81Z"/><path fill="#D0CECD" d="M656.456 436.81C665.282 435.137 673.857 432.247 682.189 428.928C694.615 443.432 700.823 459.369 699.356 478.712C698.215 495.069 690.634 510.305 678.274 521.079C676.791 522.353 674.65 523.973 673.026 525.062C672.748 514.895 672.344 511.025 669.682 501.212C684.998 492.163 690.749 469.827 687.048 453.419C682.445 433.009 674.105 442.199 660.113 446.769C655.084 448.411 649.956 450.247 645.455 452.965C632.076 463.786 618.527 477.118 601.447 481.608C587.562 485.259 587.512 458.489 574.985 461.796C577.228 459.025 578.734 457.436 581.269 454.912C588.183 463.644 590.738 470.99 596.548 478.674C617.102 470.728 641.416 453.078 656.456 436.81Z"/><path fill="#F37969" d="M383.862 548.048C392.767 541.82 402.352 530.915 410.247 523.342C413.754 519.978 417.916 515.333 421.956 512.781L422.691 513.139L423.175 514.95C426.099 527.461 428.674 540.693 431.658 552.963L370.517 564.821C361.855 566.498 347.628 569.708 339.252 570.772C338.143 564.797 332.299 533.527 333.546 529.81C334.656 529.824 334.277 529.632 334.805 529.994C338.398 530.727 345.089 533.742 348.725 535.148C360.411 539.668 371.65 545.029 383.862 548.048Z"/><path fill="#CC5A50" d="M383.862 548.048C392.767 541.82 402.352 530.915 410.247 523.342C413.754 519.978 417.916 515.333 421.956 512.781L422.691 513.139L423.175 514.95C420.004 517.532 416.599 521.978 413.604 524.967C405.05 533.505 392.947 546.416 382.749 552.61C374.812 549.719 338.193 535.762 334.805 529.994C338.398 530.727 345.089 533.742 348.725 535.148C360.411 539.668 371.65 545.029 383.862 548.048Z"/><path fill="#94552F" d="M609.749 496.08C614.157 493.878 620.526 491.249 625.31 490.049C627.661 489.459 627.531 489.623 629.069 490.606C632.142 493.271 634.024 495.6 636.147 499.124C639.201 504.789 648.914 528.834 639.841 533.108C631.017 537.265 615.786 531.069 606.253 534.39C599.338 536.581 592.868 542.532 585.874 540.561C584.697 539.44 585.026 540.097 584.77 538.566C585.404 536.884 586.588 535.469 588.023 534.396C589.896 532.445 592.235 530.643 591.591 527.809C590.275 526.51 589.778 526.559 587.979 526.192C584.898 529.206 579.368 535.242 575.002 535.418C572.244 533.413 574.504 529.129 576.481 527.212C578.91 525.059 583.699 521.652 583.149 518.257C581.986 517.112 581.294 517.219 579.654 517.033C576.01 517.112 574.428 517.733 571.887 514.772C574.104 513.316 579.395 510.729 577.758 507.718C574.103 506.501 569.529 508.819 565.79 510.122C574.181 497.994 583.148 496.39 597.161 497.27C601.375 497.535 605.757 497.557 609.749 496.08Z"/><path fill="#7C4322" d="M636.147 499.124C639.201 504.789 648.914 528.834 639.841 533.108C631.017 537.265 615.786 531.069 606.253 534.39C599.338 536.581 592.868 542.532 585.874 540.561C584.697 539.44 585.026 540.097 584.77 538.566C585.404 536.884 586.588 535.469 588.023 534.396L589.254 534.92C593.448 534.792 606.082 528.716 610.855 527.047C619.635 523.976 628.723 521.732 636.836 517.313C636.525 511.762 635.915 504.554 636.147 499.124Z"/><path fill="#966743" d="M609.749 496.08C614.157 493.878 620.526 491.249 625.31 490.049C627.661 489.459 627.531 489.623 629.069 490.606C630.138 495.103 632.882 499.542 634.484 504.083C624.705 508.407 611.61 509.877 609.749 496.08Z"/><path fill="#7C4322" d="M576.481 527.212C579.599 528.254 584.031 526.614 587.979 526.192C584.898 529.206 579.368 535.242 575.002 535.418C572.244 533.413 574.504 529.129 576.481 527.212Z"/><path fill="#F37969" d="M372.419 464.811C372.514 460.883 372.531 459.615 373.377 455.802C374.686 461.646 375.048 465.446 379.813 469.364C382.014 470.352 383.244 470.727 385.572 471.406L391.011 468.987C399.447 474.94 408.243 481.935 417.877 485.466C424.003 482.324 463.809 458.657 466.391 458.59C467.118 460.024 466.774 460.123 466.557 462.039C466.149 473.317 465.294 490.056 463.912 501.076C432.419 499.5 400.91 498.269 369.39 497.382C370.636 487.274 370.773 474.216 372.419 464.811Z"/><path fill="#CC5A50" d="M372.419 464.811C372.514 460.883 372.531 459.615 373.377 455.802C374.686 461.646 375.048 465.446 379.813 469.364C382.014 470.352 383.244 470.727 385.572 471.406L391.011 468.987C399.447 474.94 408.243 481.935 417.877 485.466C424.003 482.324 463.809 458.657 466.391 458.59C467.118 460.024 466.774 460.123 466.557 462.039C462.895 462.968 459.654 465.524 456.498 467.133C447.102 471.925 426.566 486.859 417.264 489.093C407.374 485.649 402.557 479.7 393.452 475.014L392.787 474.664L392.384 474.46C388.778 475.117 387.74 475.051 384.114 474.938C381.537 473.327 379.792 472.399 377.695 470.141C375.946 467.967 374.817 466.205 372.419 464.811Z"/><path fill="#55C8BE" d="M440.066 582.638C445.721 579.744 453.26 574.013 458.568 570.111C466.779 564.075 474.294 558.669 482.843 553.122C483.1 555.975 483.312 558.832 483.479 561.691C483.55 571.396 484.754 584.654 485.58 594.495C454.855 594.634 423.646 597.346 392.712 597.645C392.658 591.863 392.917 575.841 392.301 570.632C391.94 563.264 398.257 563.933 404.112 563.112C414.043 569.318 429.313 578.461 440.066 582.638Z"/><path fill="#3CA696" d="M440.066 582.638C445.721 579.744 453.26 574.013 458.568 570.111C466.779 564.075 474.294 558.669 482.843 553.122C483.1 555.975 483.312 558.832 483.479 561.691L482.634 559.944C475.102 558.342 449.919 581.931 440.048 585.036C424.579 582.135 419.189 571.624 404.782 569.727C401.736 569.326 395.53 570.237 392.301 570.632C391.94 563.264 398.257 563.933 404.112 563.112C414.043 569.318 429.313 578.461 440.066 582.638Z"/><path fill="#DDA981" d="M785.382 434.078C789.504 427.898 794.705 422.511 800.735 418.174C820.072 404.538 842.349 407.876 855.993 427.362C863.298 438.869 865.73 453.518 864.514 466.945C859.247 465.803 852.825 464.536 848.027 462.227C819.757 447.149 820.17 436.753 785.382 434.078Z"/><path fill="#B58355" d="M855.993 427.362C863.298 438.869 865.73 453.518 864.514 466.945C859.247 465.803 852.825 464.536 848.027 462.227C852.904 454.83 854.773 436.465 855.993 427.362Z"/><path fill="#966743" d="M348.739 631.906C347.062 632.195 342.707 631.896 340.998 631.585C343.188 630.497 361.229 630.891 364.697 631.076C404.923 630.89 448.318 631.921 488.168 630.872L488.683 631.632L488.175 631.704C482.304 632.487 468.069 632.071 463.852 634.928C463.407 636.986 466.057 639.58 467.397 641.233C466.516 643.186 465.598 645.163 464.746 647.124C466.003 648.633 467.871 650.425 468.11 652.255C465.989 655.912 466.166 653.556 465.731 657.47C462.486 658.4 449.006 657.541 444.506 657.588L409.231 657.996C401.43 658.015 390.168 658.306 382.74 656.616C381.523 654.569 380.453 655.545 378.845 653.792C380.443 648.906 385.584 652.173 380.951 641.795C380.733 641.307 385.271 636.625 383.77 636.071C374.19 632.537 358.89 632.377 348.739 631.906Z"/><path fill="#352323" d="M348.739 631.906C347.062 632.195 342.707 631.896 340.998 631.585C343.188 630.497 361.229 630.891 364.697 631.076C360.346 631.434 352.202 631.173 348.739 631.906Z"/><path fill="#F37969" d="M292.129 631.549C299.783 633.08 321.124 634.322 329.304 634.9C344.387 635.965 361.024 637.943 375.873 638.575C364.94 647.297 353.722 655.654 342.237 663.633L335.623 662.72C307.57 659.589 279.5 656.611 251.414 653.787C263.852 646.077 278.95 639.234 292.129 631.549Z"/><path fill="#F7D358" d="M549.418 631.301C550.603 631.147 553.932 630.745 554.865 631.114C567.264 636.017 583.346 645.781 594.893 652.262C586.128 654.001 573.503 655.05 564.498 655.973L517.045 660.861L505.046 662.199C494.07 654.27 482.635 646.345 472.271 637.686C498.014 635.911 523.733 633.783 549.418 631.301Z"/><path fill="#55C8BE" d="M744.873 630.707C758.37 629.639 758.625 631.915 770.328 638.096C778.74 642.449 787.11 646.883 795.435 651.399C787.674 651.596 776.971 653.123 768.952 653.979L721.65 658.947L704.693 660.634C694.798 652.717 682.857 644.115 672.571 636.548C695.233 633.968 721.883 632.536 744.873 630.707Z"/><path fill="#966743" d="M631.922 630.923C637.022 630.448 676.457 629.922 679.455 630.787L679.175 631.304C678.511 631.405 669.941 631.984 668.705 632.029C666.66 632.137 666.337 632.057 664.53 632.887C662.826 635.572 665.567 638.379 667.221 640.61C666.618 642.253 665.921 644.028 665.394 645.684L669.443 651.469C668.081 652.622 666.945 653.252 666.578 654.929C666.83 656.059 666.937 656.677 667.355 657.75C651.325 657.328 634.952 658.032 618.912 657.987C612.677 657.97 606.015 658.326 599.906 657.03C601.936 655.901 602.433 655.736 603.349 653.884C601.954 649.274 572.071 634.352 565.825 630.986C587.857 631.115 609.89 631.093 631.922 630.923Z"/><path fill="#352323" d="M631.922 630.923C637.022 630.448 676.457 629.922 679.455 630.787L679.175 631.304C678.511 631.405 669.941 631.984 668.705 632.029C670.037 631.549 669.842 632.041 671.177 631.204C659.776 630.37 643.919 631.294 631.922 630.923Z"/><path fill="#F7D358" d="M518.698 486.595L519.484 485.996C523.388 488.738 545.04 523.913 550.811 530.751C554.854 530.123 558.88 529.396 562.887 528.569C573.191 533.78 565.281 539.365 578.884 540.222C580.179 542.166 581.777 544.732 583.176 546.528C587.304 546.535 588.967 546.373 593.072 545.588L591.396 550.019L588.002 558.9C576.854 554.674 565.555 549.599 554.363 545.204C536.922 538.356 519.494 531.566 502.386 523.922C508.053 512.016 513.08 498.851 518.698 486.595Z"/><path fill="#CCA941" d="M518.698 486.595L519.484 485.996C523.388 488.738 545.04 523.913 550.811 530.751C554.854 530.123 558.88 529.396 562.887 528.569C573.191 533.78 565.281 539.365 578.884 540.222C580.179 542.166 581.777 544.732 583.176 546.528C587.304 546.535 588.967 546.373 593.072 545.588L591.396 550.019C575.653 550.214 569.826 545.332 562.634 532.056C552.905 534.66 549.66 535.865 543.195 526.923C533.936 514.119 526.016 500.586 518.698 486.595Z"/><path fill="#966743" d="M767.203 631.102C796.304 629.974 825.473 631.129 854.724 630.593C854.583 639.539 854.627 648.612 854.593 657.569C843.467 657.908 832.336 658.012 821.206 657.882C816.056 657.851 804.644 657.466 800.133 658.183C799.182 657.321 799.243 657.372 798.667 656.217C800.118 653.944 801.432 655.383 802.943 652.904C801.432 646.92 773.475 633.821 767.203 631.102Z"/><path fill="#CBA6CE" d="M636.16 572.587L636.239 571.694C636.347 570.388 636.3 569.52 636.25 568.211C638.079 566.883 651.842 566.183 654.882 565.952C667.365 572.287 681.157 578.964 693.375 585.673C664.29 588.615 635.546 594.237 606.496 597.462C603.175 597.831 602.718 597.709 600.143 595.615C597.77 593.883 594.912 591.479 592.562 589.616C602.494 587.405 614.337 587.019 623.598 582.551L621.74 579.133C618.132 577.177 615.294 574.941 612.023 572.499C619.856 572.361 628.537 573.445 636.16 572.587Z"/><path fill="#A781AC" d="M592.562 589.616C602.494 587.405 614.337 587.019 623.598 582.551C623.533 596.337 604.773 588.116 600.143 595.615C597.77 593.883 594.912 591.479 592.562 589.616Z"/><path fill="#A781AC" d="M612.023 572.499C619.856 572.361 628.537 573.445 636.16 572.587C632.353 580.986 628.824 576.117 621.74 579.133C618.132 577.177 615.294 574.941 612.023 572.499Z"/><path fill="#D0CECD" d="M690.19 517.009C693.79 523.301 695.758 548.681 696.222 556.887C685.574 557.568 676.953 557.129 666.312 557.092L624.616 557.098L620.671 552.714L627.452 551.379C630.217 551.009 632.314 550.895 634.367 549.038C635.759 544.433 624.568 541.012 621.023 539.583L635.047 539.444C636.347 540.287 637.684 541.075 639.052 541.804C643.042 543.966 646.656 545.117 651.368 543.374C656.225 541.577 664.515 539.315 669.045 536.704C669.524 536.428 671.75 532.218 672.122 531.518C680.856 526.558 683.303 524.157 690.19 517.009Z"/><path fill="#DDA981" d="M775.697 460.584C810.024 464.243 810.247 472.328 836.679 487.669C833.866 493.527 827.312 503.376 822.044 507.214C802.805 490.778 798.408 484.683 772.223 480.927C773.684 474.844 774.617 466.952 775.697 460.584Z"/><path fill="#7C4322" d="M814.699 444.394C823.984 449.747 839.213 461.82 847.969 465.164C854.754 467.775 857.609 468.547 864.756 469.736C863.069 478.025 861.828 484.103 859.124 492.177C853.746 491.071 841.87 488.708 837.864 484.984C831.103 481.269 824.085 475.656 817.466 471.46C812.726 468.455 808.954 466.572 803.954 464.132C806.43 460.498 807.2 455.889 809.045 451.984C809.989 449.989 812.861 447.295 814.222 445.159L814.699 444.394Z"/><path fill="#62341C" d="M847.969 465.164C854.754 467.775 857.609 468.547 864.756 469.736C863.069 478.025 861.828 484.103 859.124 492.177C853.746 491.071 841.87 488.708 837.864 484.984C840.738 482.743 846.289 469.005 847.969 465.164Z"/><path fill="#94552F" d="M379.328 454.193C379.847 433.921 408.234 424.7 424.888 424.481C431.599 428.979 433.45 432.774 436.44 439.915C437.264 443.186 437.506 444.716 437.888 448.06C431.255 447.777 424.08 446.562 418.057 446.402C416.063 450.79 414.202 461.833 410.222 463.484C407.109 462.639 406.674 459.441 406.176 456.583C405.93 453.705 406.001 447.249 402.786 446.454C401.192 447.117 400.936 448.014 400.076 449.546C400.652 453.31 402.537 465.104 397.572 466.538C394.117 465.718 392.717 461.099 392.104 458.003C392.105 456.998 392.09 455.993 392.058 454.989C391.967 451.81 391.847 450.386 389.515 448.177L388.438 448.242C386.608 450.147 386.612 452.307 386.321 454.898C383.548 455.26 381.955 454.804 379.328 454.193Z"/><path fill="#7C4322" d="M436.44 439.915C437.264 443.186 437.506 444.716 437.888 448.06C431.255 447.777 424.08 446.562 418.057 446.402C416.063 450.79 414.202 461.833 410.222 463.484C407.109 462.639 406.674 459.441 406.176 456.583C412.041 456.879 413.981 449.864 415.891 445.453C423.394 441.764 428.301 441.61 436.44 439.915Z"/><path fill="#7C4322" d="M392.104 458.003C399.321 458.442 399.608 455.002 400.076 449.546C400.652 453.31 402.537 465.104 397.572 466.538C394.117 465.718 392.717 461.099 392.104 458.003Z"/><path fill="#F7D358" d="M250.062 576.467C259.177 571.72 274.239 570.154 284.438 570.633C285.624 571.308 285.742 571.819 286.442 573.016C287.948 573.91 310.646 573.527 314.329 573.515C314.384 575.58 314.604 578.829 314.218 580.749C317.235 591.042 327.175 580.26 336.243 583.22L336.515 584.031C333.711 587.67 314.921 596.578 309.906 599.081C297.454 595.133 285.034 591.083 272.647 586.934C269.517 585.899 248.354 579.23 247.754 577.568L250.062 576.467Z"/><path fill="#CCA941" d="M250.062 576.467C259.177 571.72 274.239 570.154 284.438 570.633C285.624 571.308 285.742 571.819 286.442 573.016C287.948 573.91 310.646 573.527 314.329 573.515C314.384 575.58 314.604 578.829 314.218 580.749C308.853 579.27 295.388 582.306 291.901 579.325C291.507 577.829 291.492 577.462 290.716 576.102C287.238 574.856 260.541 578.226 250.062 576.467Z"/><path fill="#F7D358" d="M336.517 464.526C344.817 463.78 359.626 464.951 367.714 465.566L366.908 476.217C342.717 484.502 344.156 489.88 317.032 487.154C305.574 486.237 293.33 484.872 281.923 484.374C297.092 477.714 320.813 469.62 336.517 464.526Z"/><path fill="#F37969" d="M547.501 567.903C559.116 572.219 590.507 571.872 604.679 572.533L608.827 575.923L615.239 580.281C590.959 585.483 563.563 589.286 538.84 593.733L534.408 589.27C531.635 586.831 528.441 583.2 525.865 580.432C532.654 581.622 539.766 583.338 546.525 584.344C547.973 584.559 549.205 583.972 550.241 582.928C552.085 578.776 549.046 572.231 547.501 567.903Z"/><path fill="#CC5A50" d="M547.501 567.903C559.116 572.219 590.507 571.872 604.679 572.533L608.827 575.923C589.47 576.387 572.681 576.098 553.468 576.014C553.99 596.63 544.775 584.781 534.408 589.27C531.635 586.831 528.441 583.2 525.865 580.432C532.654 581.622 539.766 583.338 546.525 584.344C547.973 584.559 549.205 583.972 550.241 582.928C552.085 578.776 549.046 572.231 547.501 567.903Z"/><path fill="#F7D358" d="M357.606 493.227C360.424 491.434 362.438 490.788 365.535 489.723C365.27 493.574 364.507 498.01 366.215 501.427C379.191 502.497 396.579 503.597 409.604 503.509C407.957 505.553 402.776 512.168 401.102 513.655L394.614 521.266C373.236 517.04 344.448 514.788 324.701 509.472C335.443 507.114 347.476 504.427 357.981 501.101C361.829 499.882 358.94 495.548 357.606 493.227Z"/><path fill="#CCA941" d="M366.215 501.427C379.191 502.497 396.579 503.597 409.604 503.509C407.957 505.553 402.776 512.168 401.102 513.655C395.31 510.695 373.512 512.976 367.331 508.212C366.255 507.384 366.341 503.137 366.215 501.427Z"/><path fill="#F7D358" d="M298.107 490.448C306.925 490.741 317.284 492.513 325.532 492.577C323.83 494.328 318.721 499.852 317.136 501.147C314.09 504.019 306.969 508.928 311.938 512.744L310.816 514.443C294.54 514.503 270.674 517.525 253.839 519.061C265.285 510.899 276.273 503.827 288.111 496.299C291.342 494.378 294.993 492.402 298.107 490.448Z"/><path fill="#CCA941" d="M298.107 490.448C306.925 490.741 317.284 492.513 325.532 492.577C323.83 494.328 318.721 499.852 317.136 501.147C312.732 499.114 296.15 498.728 288.111 496.299C291.342 494.378 294.993 492.402 298.107 490.448Z"/><path fill="#F7D358" d="M495.461 525.184L496.292 524.402C496.87 525.075 496.757 524.701 496.734 525.489C499.434 529.436 518.478 536.331 524.082 538.602C520.217 539.52 517.388 540.156 513.472 540.702C493.335 544.648 469.104 548.829 449.406 553.783L447.55 548.567C446.728 546.462 446.477 544.513 446.068 542.292C467.757 544.689 464.232 547.619 470.182 525.879L488.563 530.43C490.831 528.589 493.113 526.918 495.461 525.184Z"/><path fill="#CCA941" d="M495.461 525.184C494.477 529.481 492.312 531.213 489.075 534.143C483.377 533.01 478.254 531.985 472.446 531.411C471.436 534.699 470.408 537.928 469.284 541.174C465.46 552.223 455.998 547.605 447.55 548.567C446.728 546.462 446.477 544.513 446.068 542.292C467.757 544.689 464.232 547.619 470.182 525.879L488.563 530.43C490.831 528.589 493.113 526.918 495.461 525.184Z"/><path fill="#CCA941" d="M496.734 525.489C499.434 529.436 518.478 536.331 524.082 538.602C520.217 539.52 517.388 540.156 513.472 540.702C508.593 534.641 496.184 537.471 496.734 525.489Z"/><path fill="#55C8BE" d="M491.981 465.712C500.291 465.295 505.867 465.29 513.936 467.81C526.671 471.786 539.674 475.439 552.511 479.071C547.632 479.789 542.106 481.331 537.426 482.892L522.886 477.345L518.824 475.737C516.44 480.056 514.873 483.508 512.871 487.986C505.837 488.065 500.499 487.831 493.528 487.382C487.79 480.634 482.298 474.072 475.857 467.971C474.157 468.423 472.513 469.074 470.854 468.671L470.748 467.859L471.581 466.854C474.742 466.231 487.807 465.925 491.981 465.712Z"/><path fill="#55C8BE" d="M467.279 505.517C467.956 504.677 468.639 503.843 469.33 503.014C471.068 502.023 472.025 502.409 474.037 502.703C481.77 503.715 489.525 504.555 497.295 505.222C479.167 512.64 459.948 517.834 441.507 524.457C439.436 525.201 437.059 526.005 435.105 526.951C428.064 526.893 426.425 509.313 425.3 503.817C437.657 505.341 454.94 505.55 467.279 505.517Z"/><path fill="#3CA696" d="M467.279 505.517C467.956 504.677 468.639 503.843 469.33 503.014C471.068 502.023 472.025 502.409 474.037 502.703C472.152 506.159 471.052 508.517 468.096 511.207C458.811 513.976 444.377 513.018 434.401 512.465C434.426 517.033 434.246 522.544 435.105 526.951C428.064 526.893 426.425 509.313 425.3 503.817C437.657 505.341 454.94 505.55 467.279 505.517Z"/><path fill="#7C4322" d="M741.951 530.389C746.705 526.856 750.85 523.13 755.199 519.143C760.51 522.237 762.859 524.182 767.44 528.32C772.189 533.427 774.593 536.586 778.329 542.476C781.312 546.786 784.506 552.801 787.038 557.472C777.505 557.11 767.962 557.123 758.431 557.51L755.869 549.335C754.194 545.415 753.159 543.084 751.037 539.424C747.924 535.547 745.706 533.679 741.951 530.389Z"/><path fill="#62341C" d="M778.329 542.476C781.312 546.786 784.506 552.801 787.038 557.472C777.505 557.11 767.962 557.123 758.431 557.51L755.869 549.335C762.134 548.551 772.654 544.823 778.329 542.476Z"/><path fill="#94552F" d="M741.951 530.389C746.705 526.856 750.85 523.13 755.199 519.143C760.51 522.237 762.859 524.182 767.44 528.32C763.519 532.398 756.689 538.189 751.037 539.424C747.924 535.547 745.706 533.679 741.951 530.389Z"/><path fill="#FDFBEE" d="M590.524 446.52C605.141 446.842 631.647 442.004 646.388 439.583C642.097 443.509 637.584 447.184 632.87 450.59C620.477 460.036 612.349 465.301 598.471 472.742C595.247 466.14 592.137 459.952 587.457 454.191L584.661 451.928L590.524 446.52Z"/><path fill="#D0CECD" d="M590.524 446.52C605.141 446.842 631.647 442.004 646.388 439.583C642.097 443.509 637.584 447.184 632.87 450.59C630.143 449.317 613.303 452.247 608.975 452.639C602.468 453.228 593.645 453.051 587.457 454.191L584.661 451.928L590.524 446.52Z"/><path fill="#F37969" d="M419.248 509.215C412.428 515.816 400.477 527.915 393.41 533.695C389.963 536.821 386.672 540.211 383.385 543.512C377.587 541.905 369.883 538.648 364.202 536.41C354.587 532.643 344.992 528.828 335.416 524.964C339.179 524.175 342.83 523.457 346.526 522.369C361.286 517.929 380.843 524.392 396.18 525.931C401.139 520.667 404.765 516.307 409.376 510.798C413.176 509.986 415.408 509.534 419.248 509.215Z"/><path fill="#CC5A50" d="M419.248 509.215C412.428 515.816 400.477 527.915 393.41 533.695C383.809 529.159 356.51 527.728 346.526 522.369C361.286 517.929 380.843 524.392 396.18 525.931C401.139 520.667 404.765 516.307 409.376 510.798C413.176 509.986 415.408 509.534 419.248 509.215Z"/><path fill="#DDA981" d="M484.505 272.012C484.143 255.465 483.403 230.705 491.812 216.308C499.644 202.9 525.104 222.65 532.807 228.371C530.551 230.202 526.998 233.317 524.763 234.928C519.815 231.148 502.399 217.152 497.6 224.66C492.473 232.68 490.867 254.556 491.717 263.621C492.345 267.014 492.574 270.773 492.866 274.238C490.387 277.021 487.522 280.088 485.164 282.923C484.919 279.683 484.451 275.146 484.505 272.012Z"/><path fill="#B58355" d="M491.717 263.621C492.345 267.014 492.574 270.773 492.866 274.238C490.387 277.021 487.522 280.088 485.164 282.923C484.919 279.683 484.451 275.146 484.505 272.012C487.176 269.55 489.922 266.812 491.717 263.621Z"/><path fill="#B58355" d="M678.218 287.534C690.311 300.63 701.851 323.318 711.932 338.37C717.107 346.096 723.455 353.864 728.298 361.473L721.186 364.728C713.685 361.608 703.541 356.334 698.206 349.984C697.796 342.993 695.778 336.698 693.823 330.034C691.879 317.297 685.897 305.667 680.642 294.051C679.576 291.695 678.723 290.125 678.218 287.534Z"/><path fill="#DDA981" d="M765.022 504.614C784.693 509.889 789.025 513.798 802.82 528.06C798.683 531.647 786.026 538.698 780.845 541.315C773.118 529.377 768.89 524.561 756.937 517.065C759.872 513.007 762.384 508.862 765.022 504.614Z"/><path fill="#F37969" d="M420.721 451.796C423.605 451.884 426.642 451.872 429.458 452.437C441.077 452.581 452.703 453.692 464.293 454.107C448.557 463.215 432.717 472.144 416.778 480.892C413.333 478.765 410.875 477.162 407.639 474.751C405.574 473.66 403.945 472.113 402.149 470.599L405.99 466.54C417.219 473.496 418.571 459.532 420.721 451.796Z"/><path fill="#CC5A50" d="M420.721 451.796C423.605 451.884 426.642 451.872 429.458 452.437C427.753 452.498 426.683 452.567 424.995 452.79C422.827 456.261 422.674 468.285 416.459 471.532C413.724 472.96 410.481 473.437 407.639 474.751C405.574 473.66 403.945 472.113 402.149 470.599L405.99 466.54C417.219 473.496 418.571 459.532 420.721 451.796Z"/><path fill="#F7D358" d="M523.555 482.758C526.77 483.307 537.181 487.76 540.855 489.246C549.453 492.709 558.073 496.12 566.712 499.479C555.563 511.182 565.318 511.878 561.62 519.054L560.85 524.757C558.119 525.189 555.39 525.642 552.665 526.113C543.176 512.965 533.016 496.57 523.555 482.758Z"/><path fill="#B58355" d="M802.82 528.06C810.604 536.061 814.435 539.094 824.279 544.586C819.534 548.895 813.781 553.133 808.627 557.04C802.515 556.965 796.401 556.977 790.289 557.075L780.845 541.315C786.026 538.698 798.683 531.647 802.82 528.06Z"/><path fill="#FDFBEE" d="M499.944 230.932C500.91 228.746 500.4 228.964 502.076 228.041C509.273 228.03 520.106 237.827 524.99 242.68C526.304 243.998 527.581 245.352 528.82 246.741C525.201 248.731 521.62 250.787 518.078 252.91C509.917 257.706 504.201 263.131 497.512 269.603C495.582 257.209 497.74 243.191 499.944 230.932Z"/><path fill="#D0CECD" d="M499.944 230.932C500.91 228.746 500.4 228.964 502.076 228.041C509.273 228.03 520.106 237.827 524.99 242.68C526.304 243.998 527.581 245.352 528.82 246.741C525.201 248.731 521.62 250.787 518.078 252.91C517.649 240.584 509.876 235.73 499.944 230.932Z"/><path fill="#94552F" d="M784.016 436.469C795.812 436.456 804.357 438.983 814.699 444.394L814.222 445.159C812.861 447.295 809.989 449.989 809.045 451.984C807.2 455.889 806.43 460.498 803.954 464.132C794.059 459.814 786.842 458.794 776.125 457.878C778.142 449.008 779.752 444.433 784.016 436.469Z"/><path fill="#DDA981" d="M613.842 238.461C613.426 238.003 613.626 238.3 613.362 237.501C622.75 226.839 650.69 197.764 665.477 208.686C665.386 213.266 666.629 224.686 665.236 227.401C662.428 218.773 660.494 213.394 650.22 219.763C643.679 223.816 636.398 229.999 631.248 235.725C629.537 237.75 627.683 240.033 625.922 241.979C622.451 241.008 617.085 239.68 613.842 238.461Z"/><path fill="#B58355" d="M613.842 238.461C619.139 237.405 625.833 236.548 631.248 235.725C629.537 237.75 627.683 240.033 625.922 241.979C622.451 241.008 617.085 239.68 613.842 238.461Z"/><path fill="#55C8BE" d="M435.891 550.67C437.022 551.858 438.999 554.808 439.809 555.445C441.069 555.609 441.742 555.581 442.894 556.071L445.374 556.112C445.973 557.141 446.392 558.373 447.752 558.3C456.183 557.847 468.789 554.552 476.81 552.782C472.824 555.147 466.114 559.757 462.477 561.64C454.905 567.152 447.25 572.55 439.513 577.829C433.041 574.478 426.662 570.947 420.385 567.242C417.058 565.707 414.152 563.755 411.059 561.798C416.622 560.608 431.708 558.73 435.569 556.015C436.278 554.361 435.986 552.512 435.891 550.67Z"/><path fill="#3CA696" d="M435.891 550.67C437.022 551.858 438.999 554.808 439.809 555.445C436.023 570.06 428.715 562.06 420.385 567.242C417.058 565.707 414.152 563.755 411.059 561.798C416.622 560.608 431.708 558.73 435.569 556.015C436.278 554.361 435.986 552.512 435.891 550.67Z"/><path fill="#3CA696" d="M445.374 556.112C445.973 557.141 446.392 558.373 447.752 558.3C456.183 557.847 468.789 554.552 476.81 552.782C472.824 555.147 466.114 559.757 462.477 561.64C454.419 557.264 451.642 571.873 442.894 556.071L445.374 556.112Z"/><path fill="#B58355" d="M836.679 487.669C845.241 491.973 848.624 493.261 858.045 494.73C854.251 505.01 850.334 511.912 844.862 521.271C836.487 517.587 828.617 513.797 822.044 507.214C827.312 503.376 833.866 493.527 836.679 487.669Z"/><path fill="#A781AC" d="M277.39 521.538C288.101 521.489 303.352 519.56 314.248 518.628C328.684 517.393 330.161 515.242 344.695 518.242C339.641 519.838 332.685 521.227 327.401 522.435L328.021 527.611C323.572 527.891 301.393 530.183 298.789 529.741C300.9 528.216 304.297 526.123 305.381 523.977C305.425 522.058 305.774 522.779 304.818 521.521C300.816 520.757 293.362 528.385 289.949 530.574C282.323 536.38 274.74 542.243 267.2 548.163C269.569 542.275 271.826 535.904 274.05 529.928L277.39 521.538Z"/><path fill="#CBA6CE" d="M274.05 529.928C277.587 529.803 287.285 529.026 289.949 530.574C282.323 536.38 274.74 542.243 267.2 548.163C269.569 542.275 271.826 535.904 274.05 529.928Z"/><path fill="#62341C" d="M820.573 509.85C829.421 516.987 832.681 518.774 843.075 523.899C837.214 531.441 833.425 535.903 826.612 542.649C816.406 536.815 812.638 534.211 804.34 525.555C810.123 521.509 816.392 515.531 820.573 509.85Z"/><path fill="#FDFBEE" d="M657.477 222.019C658.379 224.313 659.179 226.854 659.97 229.206C662.224 242.552 661.739 248.501 660.349 262.055C653.785 257.265 647.706 252.728 640.59 248.74C637.613 247.073 634.059 245.376 630.975 243.819C639.576 234.693 646.325 228.202 657.477 222.019Z"/><path fill="#D0CECD" d="M657.477 222.019C658.379 224.313 659.179 226.854 659.97 229.206C650.405 230.927 644.186 240.497 640.59 248.74C637.613 247.073 634.059 245.376 630.975 243.819C639.576 234.693 646.325 228.202 657.477 222.019Z"/><path fill="#FDFBEE" d="M655.453 507.661C653.907 498.189 652.128 490.735 644.965 483.886C643.131 482.133 638.051 478.518 638.681 476.136C640.427 475.341 642.167 475.108 643.893 476.175C655.879 483.579 661.53 495.916 666.218 508.608C661.378 512.709 658.555 516.752 651.765 516.212C650.486 516.1 649.21 515.96 647.937 515.791C646.366 508.913 643.965 501.639 640.355 495.597C637.812 491.341 633.057 485.554 628.093 484.502C626.574 484.179 626.238 484.038 624.765 483.468L624.929 482.783C626.946 481.42 628.855 480.905 631.152 480.092C643.861 485.404 648.529 496.113 655.453 507.661Z"/><path fill="#7C4322" d="M797.972 491.732C807.428 497.908 812.203 502.004 820.573 509.85C816.392 515.531 810.123 521.509 804.34 525.555C797.888 519.01 793.469 514.635 785.878 509.321C790.589 505.701 794.934 497.052 797.972 491.732Z"/><path fill="#55C8BE" d="M235.549 565.747C232.924 568.296 231.586 569.471 229.556 572.522C233.336 575.698 238.601 574.401 243.08 573.55C240.955 575.066 239.549 575.906 237.841 577.906C243.198 582.839 259.395 587.414 267.075 590.57C263.526 590.542 260.159 590.265 256.629 589.92C236.544 587.958 216.343 585.114 196.144 584.408C206.097 578.575 224.768 569.823 235.549 565.747Z"/><path fill="#3CA696" d="M237.841 577.906C234.772 577.77 232.731 578.088 230.357 576.415C229.328 574.907 229.512 574.348 229.556 572.522C233.336 575.698 238.601 574.401 243.08 573.55C240.955 575.066 239.549 575.906 237.841 577.906Z"/><path fill="#FDFBEE" d="M439.488 415.223C447.673 418.434 452.122 424.332 455.611 432.202C456.941 435.256 458.008 438.418 458.8 441.654L459.576 449.118C453.898 448.761 448.211 448.54 442.522 448.457C442.563 445.261 442.416 442.878 442.193 439.703C439.917 433.357 437.638 427.985 432.505 423.248C430.412 421.316 424.42 419.9 423.799 418.126C426.157 416.269 431.728 417.376 434.667 417.842C436.451 416.755 437.568 416.012 439.488 415.223Z"/><path fill="#D0CECD" d="M442.193 439.703C444.48 439.914 446.114 440.065 448.427 440.048C448.84 441.71 448.908 442.807 450.128 443.977L451.185 444.091C452.426 443.047 452.376 442.635 452.876 441.075C454.853 441.242 456.828 441.435 458.8 441.654L459.576 449.118C453.898 448.761 448.211 448.54 442.522 448.457C442.563 445.261 442.416 442.878 442.193 439.703Z"/><path d="M448.427 440.048C447.269 436.771 444.684 430.968 445.89 427.884L446.752 427.751C450.849 430.876 451.79 436.378 452.876 441.075C452.376 442.635 452.426 443.047 451.185 444.091L450.128 443.977C448.908 442.807 448.84 441.71 448.427 440.048Z"/><path fill="#3CA696" d="M593.694 557.171C600.953 556.216 607.892 555.011 615.108 553.755L620.07 558.864L628.981 567.949C618.97 567.96 603.246 567.847 593.414 566.935C581.803 567.214 562.026 566.353 550.736 564.937C558.256 562.226 564.08 562.603 572.513 558.947C578.162 560.152 584.628 564.151 589.872 562.744C591.79 562.229 592.967 558.934 593.694 557.171Z"/><path fill="#55C8BE" d="M620.07 558.864L628.981 567.949C618.97 567.96 603.246 567.847 593.414 566.935C598.148 561.882 613.445 559.446 620.07 558.864Z"/><path fill="#F7D358" d="M676.228 684.902C679.916 687.194 689.968 697.587 693.646 701.282C714.248 701.821 734.54 700.746 755.121 700.259C766.072 700 776.923 699.657 787.834 698.594C790.023 700.721 791.165 701.685 792.38 704.439C771.012 702.291 744.488 706.478 722.747 706.07C713.879 705.903 701.499 706.401 692.785 707.446C687.467 700.193 681.148 692.282 676.228 684.902Z"/><path fill="#CBA6CE" d="M234.046 549.183C241.681 545.44 258.532 538.742 266.669 535.837C265.214 539.481 259.484 551.779 262.506 554.477C264.927 554.774 267.768 554.039 270.237 553.584C280.998 551.211 291.914 548.156 302.402 545.894C300.531 548.443 298.727 551.04 296.992 553.683C295.332 556.445 293.171 559.278 291.264 561.906C277.691 558.631 263.984 555.948 250.402 552.712C244.976 551.418 239.536 550.179 234.046 549.183Z"/><path fill="#A781AC" d="M270.237 553.584C280.998 551.211 291.914 548.156 302.402 545.894C300.531 548.443 298.727 551.04 296.992 553.683C288.679 552.501 280.09 559.685 270.237 553.584Z"/><path fill="#D0CECD" d="M464.516 444.06C476.644 445.301 487.723 446.252 499.551 449.596C502.026 450.296 507.752 452.154 509.917 451.054C509.097 454.609 508.344 458.178 507.658 461.761C500.45 459.893 479.973 461.24 470.87 461.206C471.935 453.257 472.966 451.455 465.194 448.777C464.071 446.937 464.506 446.64 464.516 444.06Z"/><path fill="#DDA981" d="M739.594 532.045C747.11 537.468 749.553 541.732 753.457 549.86C754.625 552.692 755.246 554.555 756.137 557.457L729.637 557.416L729.283 552.038C727.653 545.81 726.949 544.531 723.522 539.013C729.385 537.069 734.121 534.76 739.594 532.045Z"/><path fill="#B58355" d="M753.457 549.86C754.625 552.692 755.246 554.555 756.137 557.457L729.637 557.416L729.283 552.038C736.065 552.089 746.544 550.659 753.457 549.86Z"/><path fill="#B58355" d="M665.477 208.686C675.999 224.351 677.961 258.665 677.352 277.679C673.314 273.458 669.618 270.069 665.305 266.139C666.91 253.067 668.143 240.495 665.236 227.401C666.629 224.686 665.386 213.266 665.477 208.686Z"/><path fill="#94552F" d="M771.926 483.288C783.21 484.84 788.101 486.354 797.972 491.732C794.934 497.052 790.589 505.701 785.878 509.321C778.009 505.347 774.494 504.438 766.11 502.178C768.943 495.188 770.321 490.655 771.926 483.288Z"/><defs><linearGradient id="gradient_2" gradientUnits="userSpaceOnUse" x1="731.17218" y1="660.6936" x2="733.82782" y2="689.3064"><stop offset="0" stop-color="#AF77B4"/><stop offset="1" stop-color="#CAA3D1"/></linearGradient></defs><path fill="url(#gradient_2)" d="M672.959 665.259C677.107 667.298 694.479 682.836 698.745 686.516C720.691 686.542 744.994 683.545 767.08 682.766C770.963 682.629 787.466 681.242 790.166 681.67C791.655 682.653 791.734 682.569 792.5 684.253L791.953 684.984C787.699 685.404 783.249 685.667 778.972 685.933C751.937 687.616 724.861 690.052 697.823 691.562C691.616 685.418 677.211 671.927 672.959 665.259Z"/><defs><linearGradient id="gradient_3" gradientUnits="userSpaceOnUse" x1="531.84418" y1="664.87213" x2="532.78729" y2="690.73126"><stop offset="0" stop-color="#D7B141"/><stop offset="1" stop-color="#FFDB63"/></linearGradient></defs><path fill="url(#gradient_3)" d="M472.239 666.313C477.792 668.039 494.011 683.875 498.733 688.429L556.788 685.107C566.117 684.511 575.542 683.791 584.886 683.327C587.658 683.189 590.971 682.666 592.559 685.219L591.951 685.977C581.63 687.453 568.758 687.862 558.136 688.623L497.34 693.083C488.991 684.154 479.824 676.005 472.239 666.313Z"/><path fill="#55C8BE" d="M374.737 668.017L374.801 668.62C372.712 672.572 353.609 690.354 349.178 694.588C318.082 692.397 286.368 688.192 255.16 687.432C253.763 686.759 254.224 687.294 253.549 686.003L254.511 685.022C260.047 682.792 337.095 689.051 348.977 689.58C358.469 680.97 364.593 675.634 374.737 668.017Z"/><path fill="#55C8BE" d="M474.732 473.499L478.162 477.503C484.213 484.124 495.237 495.529 500.398 502.333C491.124 500.335 483.042 499.466 473.623 498.445C471.796 498.428 470.622 498.625 469.085 497.679C468.569 495.486 469.854 479.26 470.115 475.759L474.732 473.499Z"/><path fill="#3CA696" d="M474.732 473.499L478.162 477.503C476.173 479.544 474.36 494.455 473.623 498.445C471.796 498.428 470.622 498.625 469.085 497.679C468.569 495.486 469.854 479.26 470.115 475.759L474.732 473.499Z"/><defs><linearGradient id="gradient_4" gradientUnits="userSpaceOnUse" x1="311.1618" y1="683.87048" x2="313.7648" y2="657.37671"><stop offset="0" stop-color="#FA7767"/><stop offset="1" stop-color="#CB4E43"/></linearGradient></defs><path fill="url(#gradient_4)" d="M373.481 661.042L373.761 661.417C372.646 663.801 350.552 681.677 346.876 684.825C318.116 682.263 283.701 680.831 254.459 679.436C253.502 679.242 253.667 679.219 252.774 678.725C253.249 677.217 253.908 677.147 255.426 675.948C264.574 676.873 276.621 677.2 285.913 677.619L347.323 679.999C355.599 674.788 365.518 667.04 373.481 661.042Z"/><path fill="#CBA6CE" d="M298.789 529.741C301.393 530.183 323.572 527.891 328.021 527.611C328.239 530.035 328.533 532.669 328.616 535.082C311.243 538.409 292.06 543.132 274.861 547.604C280.265 543.228 292.962 532.875 298.789 529.741Z"/><path fill="#FDFBEE" d="M522.809 442.13C532.84 443.79 544.662 445.023 554.188 446.776C555.59 448.155 556.918 449.143 557.415 451.007C556.795 452.809 557.294 451.995 555.56 453.314C550.968 457.305 547.768 462.842 544.697 468.006C538.56 461.956 533.991 457.397 528.628 450.529C526.249 447.521 524.863 445.396 522.809 442.13Z"/><path fill="#D0CECD" d="M522.809 442.13C532.84 443.79 544.662 445.023 554.188 446.776C555.59 448.155 556.918 449.143 557.415 451.007C556.795 452.809 557.294 451.995 555.56 453.314C551.934 452.405 531.254 449.359 528.628 450.529C526.249 447.521 524.863 445.396 522.809 442.13Z"/><defs><linearGradient id="gradient_5" gradientUnits="userSpaceOnUse" x1="735.23157" y1="679.15131" x2="734.34076" y2="658.5238"><stop offset="0" stop-color="#54C6C4"/><stop offset="1" stop-color="#3A9D8F"/></linearGradient></defs><path fill="url(#gradient_5)" d="M675.268 659.881C678.984 660.825 696.88 674.419 701.272 677.555C720.367 677.452 741.227 675.461 760.433 674.873C766.412 674.69 787.996 672.796 792.496 673.946C793.898 675.486 793.564 674.63 793.809 676.471C763.332 678.316 730.274 680.833 699.961 681.609C691.517 674.612 683.283 667.366 675.268 659.881Z"/><path fill="#D0CECD" d="M647.937 515.791C649.21 515.96 650.486 516.1 651.765 516.212C658.555 516.752 661.378 512.709 666.218 508.608C667.481 516.679 671.97 536.288 657.992 533.45C654.765 536.294 650.764 539.388 646.194 539.358L645.276 538.675C645.167 536.162 646.542 535.058 648.223 532.954C648.752 526.202 648.69 522.401 647.937 515.791Z"/><path fill="#55C8BE" d="M493.765 673.656C496.077 675.251 498.5 676.989 500.83 678.526C507.334 678.536 513.719 678.354 520.215 678.091C543.657 677.145 567.091 675.843 590.536 675.026C592.117 674.971 592.845 675.692 593.977 676.62L594.087 677.476C592.287 678.623 554.523 680.484 549.528 680.662C533.53 681.235 516.024 683.344 500.22 683.55C497.295 680.704 494.705 678.36 491.615 675.689C492.23 674.892 492.993 674.325 493.765 673.656Z"/><path fill="#FDFBEE" d="M551.981 474.116C550.266 473.686 550.313 473.747 548.836 472.807C548.896 468.811 557.679 458.278 560.492 455.214C563.316 458.601 564.521 460.237 566.86 463.97C566.56 474.182 565.468 482.984 565.434 493.561C558.862 490.98 552.059 488.205 545.412 485.903C550.154 484.86 558.994 483.642 561.659 479.68C561.887 475.524 555.283 474.625 551.981 474.116Z"/><path fill="#D0CECD" d="M551.981 474.116C550.266 473.686 550.313 473.747 548.836 472.807C548.896 468.811 557.679 458.278 560.492 455.214C563.316 458.601 564.521 460.237 566.86 463.97C561.624 462.048 559.956 462.292 556.539 467.237C554.995 469.472 553.551 471.89 551.981 474.116Z"/><path fill="#55C8BE" d="M319.158 541.959C320.087 542.81 321.072 544.01 321.925 544.973C324.983 548.261 326.596 549.846 330.043 552.69C322.223 557.098 302.171 564.408 293.424 567.65C296.048 563.787 306.057 549.513 307.558 546.108C310.853 542.88 314.641 542.727 319.158 541.959Z"/><path fill="#3CA696" d="M319.158 541.959C320.087 542.81 321.072 544.01 321.925 544.973C317.375 545.613 312.149 546.241 307.558 546.108C310.853 542.88 314.641 542.727 319.158 541.959Z"/><path fill="#CBA6CE" d="M500.13 548.292L508.77 553.08C515.833 556.839 522.836 560.707 529.779 564.682C523.342 564.395 493.954 563.291 489.139 561.931C488.213 560.651 488.279 560.103 488.095 558.545L487.953 550.724C492.002 549.866 496.062 549.055 500.13 548.292Z"/><path fill="#A781AC" d="M500.13 548.292L508.77 553.08C501.85 555.768 494.574 556.495 488.095 558.545L487.953 550.724C492.002 549.866 496.062 549.055 500.13 548.292Z"/><path fill="#7C4322" d="M709.296 541.569C712.988 540.934 716.913 540.329 720.543 539.489C723.916 544.032 724.617 546.119 726.446 551.523C726.523 552.384 727.444 556.099 727.682 557.154C719.059 556.954 710.703 557.176 702.091 557.377C702.406 551.777 701.852 547.068 701.374 541.508L709.296 541.569Z"/><path fill="#94552F" d="M709.296 541.569C712.988 540.934 716.913 540.329 720.543 539.489C723.916 544.032 724.617 546.119 726.446 551.523C721.526 551.59 715.702 552.073 711.064 550.339C708.281 549.299 704.933 545.136 706.506 542.239L709.296 541.569Z"/><path fill="#CCA941" d="M341.739 580.997C343.384 580.668 347.412 579.884 348.82 580.027C354.679 580.626 383.13 584.372 386.985 586.027L387.388 586.835C385.641 588.62 380.205 589.345 377.602 589.826C371.59 591.62 363.195 593.403 356.934 594.936C353.605 592.155 350.596 589.286 347.442 586.319C345.043 584.334 343.868 583.205 341.739 580.997Z"/><path fill="#F7D358" d="M347.442 586.319C352.883 585.905 374.112 586.782 377.602 589.826C371.59 591.62 363.195 593.403 356.934 594.936C353.605 592.155 350.596 589.286 347.442 586.319Z"/><path fill="#FDFBEE" d="M527.709 297.402C526.06 294.952 524.947 293.759 527.188 291.409C537.47 287.328 551.48 301.094 554.658 310.433C554.312 310.709 553.959 310.974 553.598 311.228C545.841 316.595 531.64 303.82 527.709 297.402Z"/><path fill="#D0CECD" d="M527.709 297.402C529.609 298.423 532.488 300.684 534.056 302.193C540.817 308.698 545.482 309.692 554.658 310.433C554.312 310.709 553.959 310.974 553.598 311.228C545.841 316.595 531.64 303.82 527.709 297.402Z"/><path fill="#FDFBEE" d="M614.484 290.597C615.222 290.552 615.96 290.525 616.699 290.517C618.681 290.511 619.529 290.658 620.94 292.041C622.644 299.537 605.558 309.218 599.436 311.43C596.47 311.926 593.202 312.91 592.048 309.455C592.285 307.524 592.769 306.595 593.862 304.922C598.593 297.63 605.999 292.486 614.484 290.597Z"/><path fill="#3CA696" d="M441.919 536.95C441.109 536.875 440.3 536.793 439.492 536.705C436.428 536.373 433.96 536.535 432.08 534.196L432.409 533.359C435.468 531.286 461.317 523.027 466.284 521.414C465.607 524.167 464.966 526.93 464.361 529.701L461.586 539.81C456.248 538.858 445.989 537.899 441.919 536.95Z"/><path fill="#55C8BE" d="M441.919 536.95C445.835 533.634 459.294 530.459 464.361 529.701L461.586 539.81C456.248 538.858 445.989 537.899 441.919 536.95Z"/><path fill="#A781AC" d="M507.019 546.763C516.089 545.176 525.113 543.331 534.233 541.746L535.465 549.094C536.119 554.232 536.696 559.472 537.728 564.539C531.127 560.559 524.47 556.671 517.761 552.876C514.013 550.911 510.645 548.919 507.019 546.763Z"/><defs><linearGradient id="gradient_6" gradientUnits="userSpaceOnUse" x1="529.13898" y1="548.94232" x2="526.80273" y2="560.78412"><stop offset="0" stop-color="#BD93C5"/><stop offset="1" stop-color="#DEBEDF"/></linearGradient></defs><path fill="url(#gradient_6)" d="M535.465 549.094C536.119 554.232 536.696 559.472 537.728 564.539C531.127 560.559 524.47 556.671 517.761 552.876C521.191 550.03 530.817 549.52 535.465 549.094Z"/><path fill="#F7D358" d="M347.629 488.718L352.545 494.255C353.763 495.828 354.143 495.744 354.212 497.36C349.945 499.652 324.038 505.579 317.141 507.608L324.919 499.796C326.559 497.88 328.757 495.668 330.525 493.801C338.178 493.293 340.86 492.093 347.629 488.718Z"/><path fill="#CCA941" d="M347.629 488.718L352.545 494.255L352.015 494.363C339.494 497.042 339.967 499.347 324.919 499.796C326.559 497.88 328.757 495.668 330.525 493.801C338.178 493.293 340.86 492.093 347.629 488.718Z"/><path fill="#A781AC" d="M487.141 567.24C491.369 567.092 495.603 567.178 499.822 567.496C511.366 568.394 529.064 571.352 541.032 570.357C541.727 570.299 542.411 568.615 542.882 567.774C543.703 568.359 545.805 575.778 546.312 577.37C546.476 577.891 546.449 578.409 546.481 578.985C545.562 579.332 491.242 568.598 487.141 567.24Z"/><path fill="#F7D358" d="M520.71 696.111L589.671 690.801L592.956 695.486C576.238 695.819 557.434 697.167 541.035 697.06C532.343 698.086 514.635 697.597 504.477 698.096L504.645 697.121C510.002 696.847 515.365 696.264 520.71 696.111Z"/><path fill="#CCA941" d="M504.645 697.121C510.002 696.847 515.365 696.264 520.71 696.111L520.965 696.727C526.489 697.534 535.221 696.342 541.035 697.06C532.343 698.086 514.635 697.597 504.477 698.096L504.645 697.121Z"/><path fill="#F7D358" d="M590.32 666.363L593.666 669.951C564.386 672.806 532.771 671.826 503.245 673.772C502.076 673.849 500.315 672.838 499.307 672.234L500.07 671.393C501.155 671.879 502.55 672.467 503.754 672.374C532.542 670.166 561.587 669.028 590.32 666.363Z"/><path fill="#CCA941" d="M482.357 524.959C478.957 523.74 473.366 523.333 471.807 520.737C473.427 518.498 499.564 509.492 504.251 507.538C501.161 514.959 499.176 516.183 493.001 521.127C489.428 524.971 487.968 526.746 482.357 524.959Z"/><path fill="#F7D358" d="M482.357 524.959C484.179 521.782 489.473 518.419 493.001 521.127C489.428 524.971 487.968 526.746 482.357 524.959Z"/><path fill="#F37969" d="M256.245 667.376C260.677 668.019 265.796 668.479 270.266 668.744C293.81 670.139 317.664 672.696 341.206 673.581C343.488 674.085 344.681 674.254 347.011 674.462C339.757 676.598 266.204 671.897 253.094 671.397L256.245 667.376Z"/><defs><linearGradient id="gradient_7" gradientUnits="userSpaceOnUse" x1="260.67184" y1="570.56738" x2="261.87518" y2="561.58154"><stop offset="0" stop-color="#FE8171"/><stop offset="1" stop-color="#DE5D54"/></linearGradient></defs><path fill="url(#gradient_7)" d="M250.067 557.754C261.802 560.687 273.651 563.145 285.584 565.123C281.094 565.514 276.607 565.944 272.125 566.415C261.216 566.822 249.543 568.244 238.712 569.567C242.559 565.689 246.344 561.751 250.067 557.754Z"/><path fill="#FDFBEE" d="M512.807 450.121C516.021 449.92 518.164 449.932 521.381 450.032C527.161 457.616 532.149 463.138 538.733 470.023C530.3 468.175 521.823 464.959 513.07 463.082C514.09 458.171 515.505 454.399 512.807 450.121Z"/><path fill="#F7D358" d="M371.933 686.522L372.233 687.016C367.919 692.938 361.824 700.071 357.13 705.886C347.539 704.318 331.472 704.673 321.252 704.458C300.055 703.862 278.852 703.501 257.646 703.375L257.201 703.018L257.361 702.216C258.349 701.624 259.294 701.081 260.493 701.09C271.341 701.171 282.648 701.601 293.443 701.998C313.809 702.922 334.192 703.42 354.579 703.492C360.2 697.671 365.987 692.012 371.933 686.522Z"/><path fill="#F7D358" d="M512.106 666.151C538.507 663.648 564.849 660.286 591.254 657.821C592.837 657.674 594.195 659.752 594.529 661.102C588.591 663.638 525.705 666.059 514.146 667.286L512.106 666.151Z"/><path fill="#CBA6CE" d="M716.601 695.141C740.008 693.192 765.478 691.018 788.858 689.399C789.948 690.934 791.276 692.705 792.252 694.282C768.809 694.719 745.016 696.039 721.704 696.079C719.841 695.967 718.188 696.064 716.601 695.141Z"/><path fill="#F37969" d="M250.888 662.948L253.941 658.735C281.89 662.158 309.894 665.123 337.94 667.629L338.378 668.634C310.129 667.478 279.193 665.05 250.888 662.948Z"/><path fill="#55C8BE" d="M704.947 671.104C714.195 670.473 788.21 664.811 789.959 665.362C791.274 666.561 791.334 666.512 792.167 668.174C788.982 669.512 719.579 672.003 710.894 672.166C708.769 671.917 707.669 672.419 704.784 671.806L704.947 671.104Z"/><path fill="#F7D358" d="M474.756 684.87C477.196 685.824 490.181 700.185 492.753 702.929L550.998 701.431C562.559 701.074 574.361 700.429 585.929 700.487C588.017 700.498 588.186 700.498 589.683 701.48C584.903 702.373 569.381 702.337 563.377 702.614C539.175 703.727 514.794 703.862 490.552 704.51C484.923 698.962 479.262 691.356 474.756 684.87Z"/><path fill="#F7D358" d="M775.607 708.719C779.149 708.558 789.348 707.348 791.361 710.004L790.811 710.814C786.168 711.89 772.14 711.646 766.66 711.751C748.898 712.185 731.132 712.453 713.364 712.557C708.317 712.52 702.54 712.625 697.576 712.124C700.914 710.678 766.782 709.064 775.607 708.719Z"/><path fill="#CCA941" d="M599.361 542.808L607.804 538.8C610.469 540.046 613.145 541.267 615.834 542.462C619.176 543.909 622.535 545.317 625.91 546.687C619.239 547.866 612.574 549.079 605.915 550.325C602.711 550.89 599.329 551.307 596.092 551.754L599.361 542.808Z"/><path fill="#F7D358" d="M615.834 542.462C619.176 543.909 622.535 545.317 625.91 546.687C619.239 547.866 612.574 549.079 605.915 550.325L605.578 549.554C605.796 543.921 611.415 543.279 615.834 542.462Z"/><path fill="#55C8BE" d="M724.832 663.642L763.612 659.437C771.767 658.478 786.865 655.376 794.191 658.089L794.452 658.8C789.558 662.063 738.15 663.843 728.264 664.709L725.357 664.539L724.832 663.642Z"/><path fill="#F7D358" d="M502.753 709.041C512.561 708.618 585.913 705.563 588.854 706.994L589.421 708L589.011 708.658C584.094 709.472 564.041 709.676 558.2 709.684C538.698 709.71 517.945 710.377 498.484 709.984L502.753 709.041Z"/><path fill="#55C8BE" d="M256.877 691.766L316.491 696.63C313.815 698.163 309.944 697.008 306.398 697.567C303.271 697.853 295.281 697.577 291.675 697.524C278.83 697.242 265.988 696.82 253.152 696.26L256.877 691.766Z"/><path fill="#55C8BE" d="M331.591 556.545C333.24 558.51 333.615 564.704 333.926 567.412C325.931 568.556 314.636 568.478 306.375 568.582L304.506 568.491L304.31 568.158C312.833 564.287 322.728 560.45 331.591 556.545Z"/><path fill="#CBA6CE" d="M508.431 582.496C512.125 581.477 515.483 580.674 519.226 579.839C520.721 581.587 522.278 583.477 523.838 585.149L528.861 589.74C516.399 589.196 501.954 587.363 489.373 586.091C494.472 585.482 502.958 583.527 508.431 582.496Z"/><path fill="#A781AC" d="M508.431 582.496C512.125 581.477 515.483 580.674 519.226 579.839C520.721 581.587 522.278 583.477 523.838 585.149C518.819 584.711 512.695 584.823 508.431 582.496Z"/><path fill="#B58355" d="M532.807 228.371C537.465 232.125 542.021 236.002 546.47 240.001C542.322 241.251 537.789 242.512 533.773 244.054C530.616 240.636 528.203 238.073 524.763 234.928C526.998 233.317 530.551 230.202 532.807 228.371Z"/><path fill="#CCA941" d="M539.474 544.796C543.193 546.27 564.334 554.549 565.944 556.213L563.891 556.936L552.306 559.353C547.383 554.929 539.38 551.836 539.474 544.796Z"/><path fill="#966743" d="M561.371 446.91C568.278 447.263 573.624 447.442 580.558 447.408L575.167 452.844C573.493 454.723 571.785 456.859 570.161 458.806C567.275 454.808 564.345 450.843 561.371 446.91Z"/><path fill="#CC5A50" d="M318.452 573.532C322.45 573.165 330.659 572.012 334.524 573.384C335.719 573.809 335.863 574.93 336.202 575.994L336.463 576.937C330.586 577.959 324.74 579.146 318.93 580.497C318.599 578.35 318.555 575.738 318.452 573.532Z"/><path fill="#CCA941" d="M352.349 486.922C357.443 484.678 361.105 483.207 366.402 481.357C366.01 483.959 365.791 487.068 365.535 489.723C362.438 490.788 360.424 491.434 357.606 493.227L352.349 486.922Z"/><path fill="#3CA696" d="M703.054 666.582C695.628 661.413 676.273 648.454 670.97 642.413C681.898 648.561 693.5 657.831 703.498 665.559C709.967 665.425 717.865 663.731 724.832 663.642L725.357 664.539L728.264 664.709C721.189 665.733 710.278 666.148 703.054 666.582Z"/><path fill="#A781AC" d="M383.794 573.629C385.871 573.379 385.554 573.086 387.079 573.883C388.026 575.675 387.688 578.524 387.643 580.673C382.718 580.312 377.947 579.455 373.078 578.661L365.215 577.377C371.388 576.03 377.582 574.781 383.794 573.629Z"/><path fill="#CCA941" d="M488.981 573.089C492.837 573.799 503.354 575.395 506.192 577.237L506.169 577.778L503.993 578.204L489.626 581.508L488.981 573.089Z"/><path fill="#A781AC" d="M670.475 671.051C679.369 678.934 687.843 687.278 695.862 696.05C702.314 696.162 709.958 695.367 716.601 695.141C718.188 696.064 719.841 695.967 721.704 696.079C716.964 696.916 700.539 696.915 695.296 696.991C687.04 689.011 677.085 680.384 670.475 671.051Z"/><path fill="#CC5A50" d="M344.292 668.071C351.445 662.696 370.65 647.345 377.346 643.797C367.372 653.871 356.793 661.284 344.998 669.004C342.909 668.96 340.395 668.997 338.378 668.634L337.94 667.629L344.292 668.071Z"/><path fill="#62341C" d="M379.328 454.193C381.955 454.804 383.548 455.26 386.321 454.898C386.698 458.038 388.299 464.605 385.041 466.414C380.983 465.467 379.648 457.723 379.328 454.193Z"/><path fill="#CC5A50" d="M336.202 575.994L364.953 570.756C373.109 569.223 379.473 567.603 387.823 567.171C381.024 570.238 346.317 575.222 336.463 576.937L336.202 575.994Z"/><path fill="#7C4322" d="M579.654 517.033C575.397 518.552 571.41 526.037 566.925 524.796C564.934 520.928 569.212 517.012 571.887 514.772C574.428 517.733 576.01 517.112 579.654 517.033Z"/><path fill="#CCA941" d="M471.115 643.832C477.188 646.897 496.204 661.669 503.113 666.564C506.052 666.543 509.159 666.313 512.106 666.151L514.146 667.286C510.455 667.524 506.766 667.783 503.078 668.064C491.611 659.1 481.936 654.192 471.115 643.832Z"/><path fill="#30A2AE" d="M472.996 659.115C480.08 663.242 487.4 668.571 493.765 673.656C492.993 674.325 492.23 674.892 491.615 675.689C485.851 670.89 478.034 664.482 472.996 659.115Z"/><path fill="#55C8BE" d="M435.891 550.67L436.022 550.073C437.833 549.211 441.498 549.398 443.62 549.423C444.181 551.579 444.75 554 445.374 556.112L442.894 556.071C441.742 555.581 441.069 555.609 439.809 555.445C438.999 554.808 437.022 551.858 435.891 550.67Z"/><path fill="#3CA696" d="M375.974 675.005L376.333 675.692C373.304 679.982 357.217 694.732 352.66 699.041L352.236 698.641C354.145 695.297 372.246 678.433 375.974 675.005Z"/><path fill="#286E6B" d="M701.603 672.487C695.434 668.101 682.029 658.842 677.227 653.931C678.901 653.851 695.917 667.616 698.796 669.15C702.328 671.032 700.439 671.123 704.947 671.104L704.784 671.806C707.669 672.419 708.769 671.917 710.894 672.166C709.586 672.831 703.369 672.518 701.603 672.487Z"/><path fill="#CCA941" d="M494.355 698.276C487.646 691.425 479.057 682.97 473.223 675.586C476.051 676.609 491.268 693.908 495.305 697.572L494.355 698.276Z"/><path fill="#CCA941" d="M499.307 672.234C496.572 670.362 478.071 657.39 477.588 655.809C482.806 657.727 493.172 666.991 499.218 670.855L500.07 671.393L499.307 672.234Z"/><path fill="#55C8BE" d="M433.184 541.259C437.825 541.217 439.768 540.56 442.679 544.795C437.793 545.487 435.179 546.322 433.184 541.259Z"/><path fill="#CC5A50" d="M362.359 661.95L363.044 662.989C358.364 666.297 351.555 671.638 347.011 674.462C344.681 674.254 343.488 674.085 341.206 673.581C342.027 673.608 345.154 673.726 345.707 673.46C351.075 670.875 357.639 665.497 362.359 661.95Z"/><path fill="#30A2AE" d="M316.491 696.63C321.288 696.829 327.868 697.614 332.35 697.501L333.062 698.616C325.186 698.447 314.134 698.276 306.398 697.567C309.944 697.008 313.815 698.163 316.491 696.63Z"/><path fill="#3CA696" d="M327.209 539.28C328.312 539.435 328.315 539.452 329.344 539.892C330.549 541.854 331.76 544.862 330.018 546.804C328.326 545.144 326.995 544.12 326.034 541.967C326.016 539.98 325.711 540.873 327.209 539.28Z"/><path fill="#173038" d="M332.35 697.501C335.46 697.601 341.339 697.848 344.181 698.67C340.481 699.178 336.762 699.042 333.062 698.616L332.35 697.501Z"/><path fill="#62341C" d="M362.359 661.95C365.217 659.915 367.677 658.127 370.712 656.358C368.434 658.985 365.789 660.86 363.044 662.989L362.359 661.95Z"/><path fill="#605243" d="M495.305 697.572C498.648 697.307 500.887 697.73 504.645 697.121L504.477 698.096C501.822 698.657 497.047 698.542 494.355 698.276L495.305 697.572Z"/><path fill="#352323" d="M488.168 630.872C490.205 630.073 495.258 630.58 497.412 630.896C494.471 631.629 491.705 631.533 488.683 631.632L488.168 630.872Z"/><path fill="#966743" d="M505.84 492.714L507.129 492.719C506.014 493.692 502.831 494.383 501.195 494.864C500.797 494.862 500.154 494.67 499.733 494.57L499.926 493.893C502.301 492.732 503.162 492.829 505.84 492.714Z"/><path fill="#F7D358" d="M311.938 512.744C314.369 513 317.12 513.221 319.511 513.577L310.816 514.443L311.938 512.744Z"/><path fill="#966743" d="M498.484 709.984C496.913 709.974 496.55 710.108 495.062 709.665C498.308 708.908 499.508 709 502.753 709.041L498.484 709.984Z"/></svg>