<?xml version="1.0" encoding="utf-8" ?><svg xmlns="http://www.w3.org/2000/svg" xmlns:xlink="http://www.w3.org/1999/xlink" width="1024" height="1024" viewBox="0 0 1024 1024"><path fill="#391B14" d="M671.328 151.224C679.737 151.072 685.215 155.723 688.338 163.299C703.863 200.967 694.499 241.786 681.637 278.293C697.105 301.849 703.106 333.75 728.522 350.021C731.465 351.906 738.266 355.257 740.395 357.489C745.641 362.992 732.138 376.672 728.862 379.871C732.919 382.769 735.943 386.575 732.766 391.405C708.134 428.859 660.857 451.019 621.174 464.603C626.499 468.888 633.907 471.534 639.597 476.408C657.234 491.517 673.233 509.59 689.29 526.456C691.472 524.094 694.41 522.41 696.273 520.334C704.629 511.023 711.851 498.665 725.618 497.097C723.032 479.096 729.645 478.57 732.648 462.474C733.357 456.711 731.102 449.654 731.937 443.994C734.217 428.547 755.056 428.295 762.219 440.518C767.592 449.687 766.265 457.196 764.014 466.813C776.15 465.627 798.97 466.006 801.119 482.451C801.474 485.169 799.927 489.636 800.176 492.431C800.479 495.828 801.879 499.307 802.211 502.737C802.65 508.583 799.473 514.009 798.162 519.578C795.066 541.123 786.032 540.535 766.798 542.265C766.889 551.325 765.377 553.696 760.533 561.154C757.296 566.87 751.525 570.909 747.723 575.862C734.507 593.079 718.354 614.319 696.002 619.218C684.615 621.714 674.09 615.863 664.939 609.348L669.14 640.601C671.59 657.551 675.874 665.944 662.671 679.51C659.352 699.773 652.408 724.027 646.982 744.157C640.154 768.547 634.044 793.133 628.662 817.882C633.818 820.825 639.525 822.72 644.676 825.657C651.035 829.283 658.314 834.821 660.15 842.286C660.655 844.341 660.565 846.453 659.419 848.283C657.728 850.981 654.428 852.657 651.432 853.41C647.561 854.383 642.85 855.091 638.884 855.511C627.393 856.728 580.045 857.657 571.185 852.177C561.418 846.135 566.667 835.174 564.55 826.465C562.482 825.471 559.28 824.325 558.899 821.792C557.65 813.495 553.472 755.707 548.799 753.169C542.012 756.049 524.325 798.192 519.953 806.921C516.404 814.005 513.32 827.2 507.095 832.468C521.191 855.302 505.822 860.806 485.362 862.248C475.037 862.976 466.954 862.408 456.801 861.757C434.392 860.321 429.876 845.968 444.992 830.211C441.411 824.245 439.371 784.35 438.956 775.259C426.843 785.238 413.206 793.209 398.566 798.866C360.38 813.707 317.848 812.679 280.423 796.011C228.052 771.889 196.637 723.222 187.152 667.58C181.123 632.211 179.258 596.47 159.734 565.245C154.527 556.917 144.591 548.816 148.026 538.144C150.004 532.001 154.656 529.332 160.156 526.619C187.769 514.266 221.683 513.936 250.285 523.004C288.047 535.553 313.643 565.956 328.155 602.074C339.697 630.797 349.882 668.94 383.3 679.361C398.33 684.048 414.435 683.068 428.485 675.619C426.384 671.856 423.064 665.334 423.606 661.208C424.927 651.145 430.244 639.661 433.289 629.467C439.108 609.984 440.869 598.751 442.453 578.764C429.44 589.106 413.211 599.101 396.972 603.294C366.205 611.238 345.302 577.429 333.124 554.449C329.227 547.096 329.565 544.521 323.325 537.903C320.037 534.416 315.715 520.527 314.481 515.594C312.839 509.577 315.14 504.458 318.544 499.341C295.356 494.34 268.813 486.506 261.869 460.988C249.319 460.933 234.657 461.644 222.217 460.525C219.786 460.306 216.274 458.55 214.473 456.74C210.443 452.993 209.843 449.496 209.813 444.195C209.652 416.094 209.816 387.977 209.749 359.873C209.731 352.604 208.645 344.747 214.431 339.257C220.314 333.675 233.259 335.17 241.167 335.171L270.406 335.173L368.964 335.163C378.679 317.714 384.688 303.188 393.033 285.174C380.916 261.326 374.875 228.834 375.747 202.357C376.249 187.099 380.179 150.058 401.385 152.131C426.8 154.615 463.183 178.227 480.129 196.824C481.244 196.292 482.377 195.797 483.525 195.339C514.918 182.89 562.673 181.089 593.82 194.305C612.298 176.014 645.315 153.526 671.328 151.224ZM359.358 460.756C361.838 465.858 362.64 467.297 363.912 472.867C372.952 473.921 374.233 477.165 380.193 483.992C384.735 489.195 386.703 494.505 390.094 500.346C390.948 501.817 394.403 505.62 395.695 507.069C399.988 504.325 403.508 500.888 407.509 498.114C417.835 490.262 428.003 482.226 438.626 474.786C445.56 469.93 454.216 468.216 459.728 461.941C439.102 456.277 419.337 447.848 400.97 436.885C401.089 443.671 401.711 450.775 396.655 456.253C391.596 461.733 383.303 460.611 376.447 460.672C370.722 460.722 365.15 460.487 359.358 460.756Z"/><path fill="#EAB77B" d="M389.327 175.935C393.009 161.762 396.96 158.146 411.341 163.222C436.975 172.27 459.207 188.235 478.475 207.148C516.352 190.909 559.09 190.188 597.494 205.14C612.646 211.189 633.067 224.177 643.584 236.776C646.164 239.251 647.723 241.029 650.046 243.768C668.218 266.634 675.651 284.12 687.586 310.7C693.263 322.42 698.416 332.878 706.753 343.151C712.672 350.036 719.024 356.2 727.212 360.316C728.79 361.109 731.43 361.855 730.905 363.694C723.283 373.081 718.494 377.484 709.583 385.392C713.437 386.592 717.418 387.729 721.447 388.186L722.94 388.755C722.257 394.789 695.53 416.916 689.522 421.11C661.533 440.409 636.726 450.194 604.077 459.925C593.832 462.979 580.226 466.212 570.481 469.575C577.48 469.713 584.409 469.521 591.406 469.371C587.696 474.992 584.027 479.66 579.81 484.913C576.519 492.47 574.456 500.284 573.165 508.425L558.941 489.203C555.887 485.902 545.41 482.979 540.657 481.174C531.49 477.666 522.455 473.825 513.569 469.657C518.474 469.867 525.346 469.513 530.408 469.388C523.309 466.908 505.497 464.019 497.389 462.204C468.628 455.767 440.893 448.733 415.048 433.969C412.184 432.333 402.785 427.278 401.172 425.055C401.581 421.821 401.376 413.589 401.383 409.986C401.46 394.25 401.19 378.62 401.346 362.843C401.216 359.137 400.957 354.99 401.31 351.341L400.419 349.48C401.165 349.506 405.664 348.064 406.63 347.768C408.354 347.662 408.903 347.731 410.505 347.007L410.443 346.491C407.756 345.464 403.492 345.225 400.125 344.345L399.574 344.197C397.147 341.02 396.939 340.475 396.018 336.506C395.418 332.904 394.834 328.844 394.006 325.333C393.75 327.278 392.482 335.038 392.435 336.468C390.437 334.955 383.002 335.324 380.022 335.291C390.604 314.658 398.461 293.484 409.243 272.983C414.564 262.866 420.98 253.481 427.319 243.993C424.218 244.44 419.151 245.971 418.405 242.009C419.773 238.102 424.813 234.407 427.978 231.034C426.89 230.908 425.804 230.775 424.718 230.635C422.244 230.337 420.973 230.396 419.68 228.053L420.033 226.836C423.193 223.577 426.261 222.87 430.538 221.275C428.27 218.907 422.661 215.225 423.69 211.842C431.176 206.212 451.909 222.584 455.671 218.584C456.085 209.812 431.122 187.654 423.529 183.394C409.278 175.398 399.723 171.089 395.668 191.15L396.213 192.275C397.462 192.011 396.862 192.227 397.917 191.263C399.856 183.815 401.604 178.016 410.443 182.248C422.67 188.101 431.258 196.321 440.051 206.427C433.002 204.604 427.964 203.517 420.836 206.098C415.423 210.714 416.069 213.664 419.512 219.483C413.546 223.177 410.061 227.847 414.951 234.26C415.213 234.601 415.479 234.937 415.751 235.269C411.491 241.197 409.816 244.835 416.266 249.91L416.979 250.478C417.124 250.589 417.269 250.699 417.413 250.81C413.487 255.265 410.299 260.134 406.66 264.803C406.481 265.102 405.487 266.802 405.346 266.957C404.489 269.026 400.685 275.223 399.385 277.453C392.412 261.657 385.223 232.79 385.538 215.771C384.206 206.281 385.514 184.655 389.327 175.935Z"/><path fill="#FEEED6" d="M547.691 352.613C549.185 351.757 550.693 350.926 552.215 350.121C562.577 344.711 571.832 344.532 582.77 348.006C597.492 373.482 617.677 392.784 646.966 399.559C655.41 405.239 673.069 412.285 682.53 417.726L682.875 417.599C685.295 419.479 687.798 419.417 689.522 421.11C661.533 440.409 636.726 450.194 604.077 459.925C593.832 462.979 580.226 466.212 570.481 469.575C577.48 469.713 584.409 469.521 591.406 469.371C587.696 474.992 584.027 479.66 579.81 484.913C576.519 492.47 574.456 500.284 573.165 508.425L558.941 489.203C555.887 485.902 545.41 482.979 540.657 481.174C531.49 477.666 522.455 473.825 513.569 469.657C518.474 469.867 525.346 469.513 530.408 469.388C523.309 466.908 505.497 464.019 497.389 462.204C468.628 455.767 440.893 448.733 415.048 433.969C412.184 432.333 402.785 427.278 401.172 425.055C404.266 422.962 411.022 420.834 414.776 419.533L415.168 419.523C426.686 415.597 437.834 410.337 449.681 407.536C452.33 406.91 454.351 407.057 456.856 406.596C462.66 406.563 468.446 405.947 474.127 404.757C505.501 398.283 530.254 378.899 547.691 352.613Z"/><defs><linearGradient id="gradient_0" gradientUnits="userSpaceOnUse" x1="548.72614" y1="488.60956" x2="544.45355" y2="413.09106"><stop offset="0" stop-color="#C18E69"/><stop offset="1" stop-color="#C8A892"/></linearGradient></defs><path fill="url(#gradient_0)" d="M682.53 417.726L682.875 417.599C685.295 419.479 687.798 419.417 689.522 421.11C661.533 440.409 636.726 450.194 604.077 459.925C593.832 462.979 580.226 466.212 570.481 469.575C577.48 469.713 584.409 469.521 591.406 469.371C587.696 474.992 584.027 479.66 579.81 484.913C576.519 492.47 574.456 500.284 573.165 508.425L558.941 489.203C555.887 485.902 545.41 482.979 540.657 481.174C531.49 477.666 522.455 473.825 513.569 469.657C518.474 469.867 525.346 469.513 530.408 469.388C523.309 466.908 505.497 464.019 497.389 462.204C468.628 455.767 440.893 448.733 415.048 433.969C412.184 432.333 402.785 427.278 401.172 425.055C404.266 422.962 411.022 420.834 414.776 419.533L415.168 419.523C421.386 423.963 429.658 428.492 436.394 432.036C466.495 448.24 499.615 458.059 533.684 460.877C577.293 464.064 616.53 454.787 655.072 434.534C663.273 430.225 675.513 423.791 682.53 417.726Z"/><path fill="#FAD082" d="M558.941 489.203C568.295 488.188 572.93 485.821 579.81 484.913C576.519 492.47 574.456 500.284 573.165 508.425L558.941 489.203Z"/><path fill="#391B14" d="M571.778 370.165C578.828 369.045 597.483 369.627 600.757 376.816C605.964 388.253 588.537 398.039 581.175 401.692C580.903 407.109 580.63 409.477 578.604 414.493C579.643 414.752 580.688 414.988 581.738 415.201C592.793 417.401 598.336 414.973 604.132 405.461C604.914 404.177 606.169 402.185 607.373 401.391C608.51 403.838 607.178 408.688 606.356 411.12C605.146 414.703 599.961 418.754 596.57 420.178C588.534 423.552 582.194 422.06 574.589 419.243C563.854 423.82 555.555 424.691 544.213 421.926C533.666 419.407 526.429 413.792 520.589 404.89C520.265 405.192 519.938 405.491 519.608 405.788C517.887 407.335 517.594 407.779 515.546 407.68L514.761 406.632C514.528 399.801 523.9 395.284 527.647 399.02C527.22 400.793 526.729 400.81 525.276 402.372L525.58 403.423C537.056 415.154 554.627 421.73 570.787 413.439C575.505 411.017 576.65 406.786 577.859 402.007C569.025 398.194 556.15 392.656 553.524 382.499C551.33 374.011 566.047 371.032 571.778 370.165Z"/><path fill="#FEFEFE" d="M576.275 375.189C579.678 374.844 588.857 374.558 590.865 377.664L590.317 378.579C588.045 379.767 586.688 379.613 584.125 379.736C580.722 379.951 571.753 380.304 569.502 377.516L569.87 376.638C571.975 375.382 573.803 375.443 576.275 375.189Z"/><path fill="#6D4E3D" d="M581.661 301.116C585.324 279.453 607.627 262.432 629.474 267.143C652.056 272.012 668.173 291.934 682.937 308.081C684.602 309.627 685.43 309.802 687.586 310.7C693.263 322.42 698.416 332.878 706.753 343.151C712.672 350.036 719.024 356.2 727.212 360.316C728.79 361.109 731.43 361.855 730.905 363.694C723.283 373.081 718.494 377.484 709.583 385.392C713.437 386.592 717.418 387.729 721.447 388.186L722.94 388.755C722.257 394.789 695.53 416.916 689.522 421.11C687.798 419.417 685.295 419.479 682.875 417.599L682.53 417.726C673.069 412.285 655.41 405.239 646.966 399.559C617.677 392.784 597.492 373.482 582.77 348.006L582.506 347.484C575.755 333.983 573.796 320.599 578.616 306.027C579.263 304.07 579.915 301.99 581.661 301.116Z"/><path fill="#FEEED6" d="M581.661 301.116C585.324 279.453 607.627 262.432 629.474 267.143C652.056 272.012 668.173 291.934 682.937 308.081C684.602 309.627 685.43 309.802 687.586 310.7C693.263 322.42 698.416 332.878 706.753 343.151C705.986 345.385 705.623 345.946 704.412 348.022C704.182 350.313 704.348 353.175 703.438 354.984C683.032 337.028 670.185 311.177 647.187 295.928C621.486 278.888 597.276 284.415 580.521 309.594C580.701 307.116 581.293 303.664 581.661 301.116Z"/><path fill="#EAB77B" d="M706.753 343.151C712.672 350.036 719.024 356.2 727.212 360.316C728.79 361.109 731.43 361.855 730.905 363.694C723.283 373.081 718.494 377.484 709.583 385.392C713.437 386.592 717.418 387.729 721.447 388.186L722.94 388.755C722.257 394.789 695.53 416.916 689.522 421.11C687.798 419.417 685.295 419.479 682.875 417.599L682.53 417.726C673.069 412.285 655.41 405.239 646.966 399.559C658.835 401.184 668.98 401.059 679.899 395.339C688.229 390.975 695.828 383.225 698.627 374.096C698.434 372.005 701.747 364.907 702.369 362.026C702.989 359.148 703.163 358.034 703.438 354.984C704.348 353.175 704.182 350.313 704.412 348.022C705.623 345.946 705.986 345.385 706.753 343.151Z"/><path fill="#BF8B62" d="M721.447 388.186L722.94 388.755C722.257 394.789 695.53 416.916 689.522 421.11C687.798 419.417 685.295 419.479 682.875 417.599C687.541 414.305 720.727 390.646 721.447 388.186Z"/><path fill="#F7E2C5" d="M706.753 343.151C712.672 350.036 719.024 356.2 727.212 360.316C728.79 361.109 731.43 361.855 730.905 363.694C720.699 365.294 710.849 354.619 704.412 348.022C705.623 345.946 705.986 345.385 706.753 343.151Z"/><path fill="#391B14" d="M582.77 348.006L582.506 347.484C575.755 333.983 573.796 320.599 578.616 306.027C579.263 304.07 579.915 301.99 581.661 301.116C581.293 303.664 580.701 307.116 580.521 309.594C580.472 313.663 580.364 318.374 580.715 322.383C583.666 356.053 624.784 395.211 658.769 395.578C670.855 395.718 682.488 390.986 691.046 382.451C692.942 380.564 697.424 374.396 698.627 374.096C695.828 383.225 688.229 390.975 679.899 395.339C668.98 401.059 658.835 401.184 646.966 399.559C617.677 392.784 597.492 373.482 582.77 348.006Z"/><path fill="#391B14" d="M602.629 331.025C602.714 327.141 606.269 322.373 609.071 319.816C623.085 307.025 639.074 319.684 642.027 335.363C644.797 350.076 637.036 368.326 619.803 367.526L619.227 367.038L619.466 366.733C617.915 366.384 615.8 367.095 614.197 366.574C602.56 362.784 598.089 348.887 600.225 337.771C600.622 335.705 602.159 333.341 602.629 331.025Z"/><path fill="#FEFEFE" d="M602.629 331.025C602.714 327.141 606.269 322.373 609.071 319.816C623.085 307.025 639.074 319.684 642.027 335.363C644.797 350.076 637.036 368.326 619.803 367.526L619.227 367.038L619.466 366.733C638.41 363.37 640.328 332.84 625.558 323.384C621.972 321.102 617.589 320.443 613.491 321.568C608.269 322.959 605.189 326.502 602.629 331.025Z"/><path fill="#FEFEFE" d="M610.988 329.362C618.075 330.75 619.187 336.428 613.619 340.794C605.56 340.433 605.691 333.711 610.988 329.362Z"/><path fill="#6D4E3D" d="M411.658 350.237C417.95 344.858 424.922 336.949 430.564 330.792C446.04 313.815 465.338 294.965 487.75 288.566C512.561 281.482 536.428 293.806 550.74 313.737C550.873 313.773 551.007 313.808 551.141 313.844C550.802 308.76 550.188 305.333 548.948 300.442C561.822 316.179 555.866 336.453 547.691 352.613C530.254 378.899 505.501 398.283 474.127 404.757C468.446 405.947 462.66 406.563 456.856 406.596C454.351 407.057 452.33 406.91 449.681 407.536C437.834 410.337 426.686 415.597 415.168 419.523L414.776 419.533C411.022 420.834 404.266 422.962 401.172 425.055C401.581 421.821 401.376 413.589 401.383 409.986C401.46 394.25 401.19 378.62 401.346 362.843C401.216 359.137 400.957 354.99 401.31 351.341L400.419 349.48C401.165 349.506 405.664 348.064 406.63 347.768C408.869 348.158 409.809 348.07 411.354 349.559L411.658 350.237Z"/><path fill="#391B14" d="M548.948 300.442C561.822 316.179 555.866 336.453 547.691 352.613C530.254 378.899 505.501 398.283 474.127 404.757C468.446 405.947 462.66 406.563 456.856 406.596C454.351 407.057 452.33 406.91 449.681 407.536C437.834 410.337 426.686 415.597 415.168 419.523L414.776 419.533C411.022 420.834 404.266 422.962 401.172 425.055C401.581 421.821 401.376 413.589 401.383 409.986C401.46 394.25 401.19 378.62 401.346 362.843L402.918 363.294C404.119 367.568 406.395 374.206 407.299 378.045L407.656 377.869L408.5 378.305C411.617 383.55 420.162 391.985 425.585 394.753C468.533 416.675 525.504 382.696 545.762 343.846C548.85 337.924 553.166 319.778 551.141 313.844C550.802 308.76 550.188 305.333 548.948 300.442Z"/><path fill="#EAB77B" d="M401.346 362.843L402.918 363.294C404.119 367.568 406.395 374.206 407.299 378.045C414.569 398.058 437.199 406.257 456.856 406.596C454.351 407.057 452.33 406.91 449.681 407.536C437.834 410.337 426.686 415.597 415.168 419.523L414.776 419.533C411.022 420.834 404.266 422.962 401.172 425.055C401.581 421.821 401.376 413.589 401.383 409.986C401.46 394.25 401.19 378.62 401.346 362.843Z"/><path fill="#BF8B62" d="M401.383 409.986C405.247 412.647 411.392 416.623 414.776 419.533C411.022 420.834 404.266 422.962 401.172 425.055C401.581 421.821 401.376 413.589 401.383 409.986Z"/><path fill="#F7E2C5" d="M406.63 347.768C408.869 348.158 409.809 348.07 411.354 349.559L411.658 350.237C408.663 353.049 405.428 355.594 401.99 357.844C402.191 360.033 402.433 361.131 402.918 363.294L401.346 362.843C401.216 359.137 400.957 354.99 401.31 351.341L400.419 349.48C401.165 349.506 405.664 348.064 406.63 347.768Z"/><path fill="#DF9B53" d="M401.31 351.341C401.495 353.027 401.584 356.626 401.99 357.844C402.191 360.033 402.433 361.131 402.918 363.294L401.346 362.843C401.216 359.137 400.957 354.99 401.31 351.341Z"/><path fill="#391B14" d="M499.952 368.224C494.735 371.235 485.973 367.298 481.869 363.781C460.243 345.25 482.006 298.793 509.535 321.874C512.448 324.316 515.921 330.702 515.799 334.617L515.942 335.252C516.348 337.02 517.345 339.4 517.637 341.029C518.597 346.393 516.961 353.831 514.046 358.303C510.368 363.947 506.361 366.828 499.952 368.224Z"/><path fill="#FEFEFE" d="M499.952 368.224C494.735 371.235 485.973 367.298 481.869 363.781C460.243 345.25 482.006 298.793 509.535 321.874C512.448 324.316 515.921 330.702 515.799 334.617C510.844 324.73 502.325 317.989 491.114 323.871C475.26 332.188 477.355 363.643 495.611 367.648C497.039 367.96 498.491 368.153 499.952 368.224Z"/><path fill="#FEFEFE" d="M490.982 330.921C498.269 331.194 499.267 338.038 493.509 342.284C486.164 341.434 485.76 335.362 490.982 330.921Z"/><path fill="#FEEED6" d="M396.018 336.506C411.847 324.489 423.414 308.737 438.04 295.431C450.308 284.271 465.259 273.413 481.146 268.206C495.478 263.425 511.127 264.585 524.598 271.426C535.354 277.003 545.237 288.941 548.948 300.442C550.188 305.333 550.802 308.76 551.141 313.844C551.007 313.808 550.873 313.773 550.74 313.737C536.428 293.806 512.561 281.482 487.75 288.566C465.338 294.965 446.04 313.815 430.564 330.792C424.922 336.949 417.95 344.858 411.658 350.237L411.354 349.559C409.809 348.07 408.869 348.158 406.63 347.768C408.354 347.662 408.903 347.731 410.505 347.007L410.443 346.491C407.756 345.464 403.492 345.225 400.125 344.345L399.574 344.197C397.147 341.02 396.939 340.475 396.018 336.506Z"/><path fill="#6D4E3D" d="M397.917 191.263C399.856 183.815 401.604 178.016 410.443 182.248C422.67 188.101 431.258 196.321 440.051 206.427C433.002 204.604 427.964 203.517 420.836 206.098C415.423 210.714 416.069 213.664 419.512 219.483C413.546 223.177 410.061 227.847 414.951 234.26C415.213 234.601 415.479 234.937 415.751 235.269C411.491 241.197 409.816 244.835 416.266 249.91L416.979 250.478C417.124 250.589 417.269 250.699 417.413 250.81C413.487 255.265 410.299 260.134 406.66 264.803C396.343 244.28 392.546 213.78 395.668 191.15L396.213 192.275C397.462 192.011 396.862 192.227 397.917 191.263Z"/><path fill="#5B3E32" d="M397.917 191.263C399.856 183.815 401.604 178.016 410.443 182.248C422.67 188.101 431.258 196.321 440.051 206.427C433.002 204.604 427.964 203.517 420.836 206.098C416.274 200.539 405.927 188.941 397.917 191.263Z"/><path fill="#F7E2C5" d="M389.327 175.935C393.009 161.762 396.96 158.146 411.341 163.222C436.975 172.27 459.207 188.235 478.475 207.148C516.352 190.909 559.09 190.188 597.494 205.14C612.646 211.189 633.067 224.177 643.584 236.776C641.961 236.313 641.76 235.98 640.331 235.018C631.311 225.784 616.552 217.241 604.773 212.141C564.202 194.576 516.879 197.168 476.247 213.002C463.38 198.146 424.34 168.508 403.876 166.111C399.839 165.637 396.485 169.117 393.501 171.676L393.023 171.551L394.058 169.293L393.713 168.777C391.595 169.887 390.927 173.353 390.009 175.921L389.327 175.935Z"/><path fill="#BF8B62" d="M385.538 215.771C388.072 224.923 391.629 233.935 395.242 242.707C396.998 246.971 400.803 254.804 401.927 258.855C399.43 256.25 400.114 253.591 398.073 252.112C389.34 254.452 397.657 270.028 399.289 275.418C400.561 274.34 401.966 269.376 405.346 266.957C404.489 269.026 400.685 275.223 399.385 277.453C392.412 261.657 385.223 232.79 385.538 215.771Z"/><path fill="#F7E2C5" d="M650.046 243.768C668.218 266.634 675.651 284.12 687.586 310.7C685.43 309.802 684.602 309.627 682.937 308.081L683.27 307.682C684.317 307.407 683.858 307.536 685.274 308.201C684.985 306.931 683.913 304.106 682.753 303.33L681.757 303.826C680.499 302.243 672.824 285.421 671.034 282.114C664.224 269.527 657.54 258.201 649.822 246.174L650.046 243.768Z"/><path fill="#FAD082" d="M640.331 235.018C641.76 235.98 641.961 236.313 643.584 236.776C646.164 239.251 647.723 241.029 650.046 243.768L649.822 246.174C646.86 242.978 642.874 238.439 640.331 235.018Z"/><path fill="#6D4E3D" d="M200.37 526.916C217.806 523.766 244.391 530.595 260.448 538.085C277.897 546.96 292.041 559.027 302.878 575.49C312.75 588.957 318.474 604.138 324.588 619.489C328.535 631.362 332.269 640.437 338.145 651.617C345.692 664.085 350.19 670.259 361.729 679.324C369.601 684.519 373.432 686.681 382.389 689.319C392.978 691.998 404.355 692.814 415.099 690.493C421.669 688.958 424.763 687.961 430.808 684.987C431.121 690.035 430.995 695.056 431.234 700.119C431.657 707.874 432.311 715.615 433.197 723.331C434.806 735.827 436.866 750.572 437.641 763.126C434.63 765.872 431.952 768.246 428.795 770.814C415.908 780.853 400.164 788.666 384.539 793.445C362.961 799.528 344.791 801.18 322.473 798.343C320.416 798.255 314.771 796.894 312.452 796.396C295.446 792.742 278.471 785.629 263.988 775.871C248.835 764.712 234.891 752.095 224.699 736.08C217.637 727.82 206.64 702.75 203.388 692.232C202.082 688.011 200.516 680.231 199.131 675.368C195.813 661.057 193.916 646.675 191.563 632.198C190.925 628.275 190.188 624.3 189.895 620.341C189.221 618.85 187.372 608.197 186.641 605.279C183.74 593.215 179.376 581.55 173.647 570.544C170.312 563.348 165.68 557.751 161.541 551.112C155.309 544.671 154.065 539.484 163.535 535.725C173.6 530.733 189.218 527.65 200.37 526.916Z"/><path fill="#6D4E3D" d="M330.597 654.636C332.546 653.986 335.752 652.466 338.145 651.617C345.692 664.085 350.19 670.259 361.729 679.324C369.601 684.519 373.432 686.681 382.389 689.319C392.978 691.998 404.355 692.814 415.099 690.493C421.669 688.958 424.763 687.961 430.808 684.987C431.121 690.035 430.995 695.056 431.234 700.119C431.657 707.874 432.311 715.615 433.197 723.331C434.806 735.827 436.866 750.572 437.641 763.126C434.63 765.872 431.952 768.246 428.795 770.814C415.908 780.853 400.164 788.666 384.539 793.445C362.961 799.528 344.791 801.18 322.473 798.343C320.416 798.255 314.771 796.894 312.452 796.396C295.446 792.742 278.471 785.629 263.988 775.871C263.999 772.378 263.448 768.006 263.463 764.095C263.506 752.889 265.242 743.446 268.464 732.784L268.475 732.39C279.244 700.679 299.991 670.207 330.576 654.965L330.597 654.636Z"/><path fill="#6D4E3D" d="M430.808 684.987C431.121 690.035 430.995 695.056 431.234 700.119C431.657 707.874 432.311 715.615 433.197 723.331C434.806 735.827 436.866 750.572 437.641 763.126C434.63 765.872 431.952 768.246 428.795 770.814C415.908 780.853 400.164 788.666 384.539 793.445C384.158 792.34 381.739 788.624 381.044 787.407C376.4 779.272 372.914 770.703 371.853 761.319L371.853 760.957C366.391 741.566 370.499 713.537 379.542 695.447L382.389 689.319C392.978 691.998 404.355 692.814 415.099 690.493C421.669 688.958 424.763 687.961 430.808 684.987Z"/><path fill="#5B3E32" d="M433.197 723.331C434.806 735.827 436.866 750.572 437.641 763.126C434.63 765.872 431.952 768.246 428.795 770.814C415.908 780.853 400.164 788.666 384.539 793.445C384.158 792.34 381.739 788.624 381.044 787.407C376.4 779.272 372.914 770.703 371.853 761.319C374.309 759.067 393.829 754.715 398.707 750.825C399.952 749.831 412.497 742.549 413.871 741.949L413.884 741.586C418.383 739.604 429.961 727.498 433.197 723.331Z"/><path fill="#BF8B62" d="M433.197 723.331C434.806 735.827 436.866 750.572 437.641 763.126C434.63 765.872 431.952 768.246 428.795 770.814C420.434 760.686 417.79 754.103 413.871 741.949L413.884 741.586C418.383 739.604 429.961 727.498 433.197 723.331Z"/><path fill="#EAB77B" d="M430.808 684.987C431.121 690.035 430.995 695.056 431.234 700.119C431.657 707.874 432.311 715.615 433.197 723.331C429.961 727.498 418.383 739.604 413.884 741.586C409.389 726.391 409.615 711.928 413.336 696.646L413.639 695.884L415.099 690.493C421.669 688.958 424.763 687.961 430.808 684.987Z"/><path fill="#F7E2C5" d="M415.099 690.493C421.669 688.958 424.763 687.961 430.808 684.987C430.761 686.769 430.951 688.636 429.978 690.039C426.581 692.082 417.501 695.237 413.639 695.884L415.099 690.493Z"/><path fill="#AD998F" d="M382.389 689.319C392.978 691.998 404.355 692.814 415.099 690.493L413.639 695.884L413.336 696.646C412.291 696.487 404.902 697.169 403.242 697.303C394.172 698.035 388.375 697.404 379.542 695.447L382.389 689.319Z"/><path fill="#EAB77B" d="M361.729 679.324C369.601 684.519 373.432 686.681 382.389 689.319L379.542 695.447C370.499 713.537 366.391 741.566 371.853 760.957L371.853 761.319C372.914 770.703 376.4 779.272 381.044 787.407C381.739 788.624 384.158 792.34 384.539 793.445C362.961 799.528 344.791 801.18 322.473 798.343C317.75 791.923 318.379 768.141 318.853 760.264L319.168 758.632C324.434 728.649 334.32 706.135 355.595 683.92L355.898 683.929C357.209 682.355 359.972 680.575 361.729 679.324Z"/><path fill="#BF8B62" d="M319.168 758.632C321.756 763.734 352.881 763.581 358.304 762.679C361.614 762.129 368.993 760.809 371.853 760.957L371.853 761.319C372.914 770.703 376.4 779.272 381.044 787.407C381.739 788.624 384.158 792.34 384.539 793.445C362.961 799.528 344.791 801.18 322.473 798.343C317.75 791.923 318.379 768.141 318.853 760.264L319.168 758.632Z"/><path fill="#F7E2C5" d="M361.729 679.324C369.601 684.519 373.432 686.681 382.389 689.319L379.542 695.447C370.603 692.997 363.446 689.143 355.898 683.929C357.209 682.355 359.972 680.575 361.729 679.324Z"/><path fill="#5B3E32" d="M268.464 732.784C280.013 742.212 288.917 748.245 302.856 754.203C307.979 756.394 314.102 758.193 318.853 760.264C318.379 768.141 317.75 791.923 322.473 798.343C320.416 798.255 314.771 796.894 312.452 796.396C295.446 792.742 278.471 785.629 263.988 775.871C263.999 772.378 263.448 768.006 263.463 764.095C263.506 752.889 265.242 743.446 268.464 732.784Z"/><path fill="#AD998F" d="M330.597 654.636C332.546 653.986 335.752 652.466 338.145 651.617C345.692 664.085 350.19 670.259 361.729 679.324C359.972 680.575 357.209 682.355 355.898 683.929L355.595 683.92C342.209 673.33 339.603 669.094 330.576 654.965L330.597 654.636Z"/><path fill="#EAB77B" d="M200.37 526.916C217.806 523.766 244.391 530.595 260.448 538.085C277.897 546.96 292.041 559.027 302.878 575.49C300.242 576.616 296.266 576.865 293.16 577.622L293.077 577.859C260.663 587.028 233.13 611.907 215.227 639.887L214.739 641.004C209.999 648.599 206.795 654.531 203.484 662.967C202.494 665.488 199.96 673.706 199.131 675.368C195.813 661.057 193.916 646.675 191.563 632.198C190.925 628.275 190.188 624.3 189.895 620.341C189.221 618.85 187.372 608.197 186.641 605.279C183.74 593.215 179.376 581.55 173.647 570.544C170.312 563.348 165.68 557.751 161.541 551.112C155.309 544.671 154.065 539.484 163.535 535.725C173.6 530.733 189.218 527.65 200.37 526.916Z"/><path fill="#6D4E3D" d="M200.37 526.916C217.806 523.766 244.391 530.595 260.448 538.085C256.456 539.767 254.33 540.786 250.585 542.931L250.18 543.176C228.4 554.863 210.464 574.95 199.872 597.162L199.529 597.286C197.67 603.355 192.505 612.987 189.895 620.341C189.221 618.85 187.372 608.197 186.641 605.279C183.74 593.215 179.376 581.55 173.647 570.544C170.312 563.348 165.68 557.751 161.541 551.112C155.309 544.671 154.065 539.484 163.535 535.725C173.6 530.733 189.218 527.65 200.37 526.916Z"/><path fill="#EAB77B" d="M163.535 535.725C173.6 530.733 189.218 527.65 200.37 526.916C202.048 526.963 202.793 526.649 203.779 527.491C202.644 529.365 200.933 529.982 199.354 531.969L199.101 532.015C188.768 542.549 182.795 549.314 176.437 563.096L176.477 563.404C175.559 565.794 174.615 568.174 173.647 570.544C170.312 563.348 165.68 557.751 161.541 551.112C155.309 544.671 154.065 539.484 163.535 535.725Z"/><path fill="#F7E2C5" d="M163.535 535.725C173.6 530.733 189.218 527.65 200.37 526.916C202.048 526.963 202.793 526.649 203.779 527.491C202.644 529.365 200.933 529.982 199.354 531.969L199.101 532.015C189.506 531.857 179.729 533.275 170.365 535.136C168.284 535.549 165.319 536.687 163.535 535.725Z"/><path fill="#BF8B62" d="M161.541 551.112C167.264 553.878 171.746 559.495 176.437 563.096L176.477 563.404C175.559 565.794 174.615 568.174 173.647 570.544C170.312 563.348 165.68 557.751 161.541 551.112Z"/><path fill="#5B3E32" d="M176.477 563.404C182.866 568.66 190.752 581.407 194.798 588.865C195.691 590.512 198.662 596.189 199.529 597.286C197.67 603.355 192.505 612.987 189.895 620.341C189.221 618.85 187.372 608.197 186.641 605.279C183.74 593.215 179.376 581.55 173.647 570.544C174.615 568.174 175.559 565.794 176.477 563.404Z"/><path fill="#AD998F" d="M200.37 526.916C217.806 523.766 244.391 530.595 260.448 538.085C256.456 539.767 254.33 540.786 250.585 542.931L250.18 543.176C235.7 535.37 215.523 532.889 199.354 531.969C200.933 529.982 202.644 529.365 203.779 527.491C202.793 526.649 202.048 526.963 200.37 526.916Z"/><path fill="#BF8B62" d="M199.872 597.162C200.214 599.007 201.58 602.331 202.533 604.04C208.376 614.519 210.512 629.679 215.227 639.887L214.739 641.004C209.999 648.599 206.795 654.531 203.484 662.967C202.494 665.488 199.96 673.706 199.131 675.368C195.813 661.057 193.916 646.675 191.563 632.198C190.925 628.275 190.188 624.3 189.895 620.341C192.505 612.987 197.67 603.355 199.529 597.286L199.872 597.162Z"/><path fill="#F7E2C5" d="M250.585 542.931C254.33 540.786 256.456 539.767 260.448 538.085C277.897 546.96 292.041 559.027 302.878 575.49C300.242 576.616 296.266 576.865 293.16 577.622C280.327 560.828 269.412 552.017 250.585 542.931Z"/><path fill="#EAB77B" d="M316.212 621.077C318.926 620.501 321.845 620.002 324.588 619.489C328.535 631.362 332.269 640.437 338.145 651.617C335.752 652.466 332.546 653.986 330.597 654.636L330.576 654.965C299.991 670.207 279.244 700.679 268.475 732.39L268.464 732.784C265.242 743.446 263.506 752.889 263.463 764.095C263.448 768.006 263.999 772.378 263.988 775.871C248.835 764.712 234.891 752.095 224.699 736.08C226.468 719.748 230.32 708.379 236.539 693.559L236.841 693.494C237.052 693.029 237.265 692.565 237.481 692.103C249.248 666.861 271.301 642.906 295.818 629.598C302.522 625.959 308.651 623.667 315.777 621.063L316.212 621.077Z"/><path fill="#BF8B62" d="M236.539 693.559L236.841 693.494C244.493 707.017 256.257 722.663 268.475 732.39L268.464 732.784C265.242 743.446 263.506 752.889 263.463 764.095C263.448 768.006 263.999 772.378 263.988 775.871C248.835 764.712 234.891 752.095 224.699 736.08C226.468 719.748 230.32 708.379 236.539 693.559Z"/><path fill="#F7E2C5" d="M316.212 621.077C318.926 620.501 321.845 620.002 324.588 619.489C328.535 631.362 332.269 640.437 338.145 651.617C335.752 652.466 332.546 653.986 330.597 654.636C326.065 646.535 318.189 630.145 316.212 621.077Z"/><path fill="#5B3E32" d="M214.739 641.004L215.071 641.831C216.838 646.281 218.133 652.153 219.891 656.782C224.432 668.743 229.986 682.573 236.539 693.559C230.32 708.379 226.468 719.748 224.699 736.08C217.637 727.82 206.64 702.75 203.388 692.232C202.082 688.011 200.516 680.231 199.131 675.368C199.96 673.706 202.494 665.488 203.484 662.967C206.795 654.531 209.999 648.599 214.739 641.004Z"/><path fill="#AD998F" d="M302.878 575.49C312.75 588.957 318.474 604.138 324.588 619.489C321.845 620.002 318.926 620.501 316.212 621.077L315.777 621.063C312.145 608.87 300.784 587.828 293.077 577.859L293.16 577.622C296.266 576.865 300.242 576.616 302.878 575.49Z"/><path fill="#FEFEFE" d="M455.851 475.033C458.838 478.56 462.416 482.13 465.598 485.571C471.18 490.256 476.729 495.05 482.571 499.41C490.065 505.004 522.856 527.731 530.596 526.924C531.783 526.801 532.468 526.132 533.137 525.181C537.048 519.622 544.001 499.202 550.571 498.009C550.721 497.982 550.874 497.978 551.026 497.962C551.123 499.822 550.847 500.182 552.781 501.674C555.113 503.473 563.886 512.085 566.041 512.286L566.876 511.908C568.514 513.985 571.916 518.672 572.929 521.001C581.737 571.023 589.413 622.596 581.536 673.242C580.471 680.088 580.005 683.181 574.849 687.908C572.316 690.493 569.719 693.016 567.063 695.474C559.421 696.074 549.3 695.633 541.596 695.314C505.034 693.799 471.48 685.009 437.255 672.594C434.956 668.914 433.794 665.791 432.216 661.771C434.003 655.101 437.803 645.442 440.059 638.44C448.115 613.438 451.013 597.012 451.231 570.804C458.244 565.246 462.485 559.727 468.136 552.893C443.741 561.927 408.371 602.794 379.186 594.344C362.589 589.538 343.853 557.455 336.48 541.759C342.083 540.43 344.973 539.719 350.412 537.689C365.105 531.551 377.206 520.493 384.639 506.411C397.425 519.868 401.881 527.158 409.449 543.666C409.914 533.843 408.634 529.325 404.61 520.327C407.81 522.687 411.268 525.77 414.335 528.375C411.066 520.799 408.846 517.715 402.38 512.597C407.045 508.563 413.889 503.545 418.918 499.706C430.62 490.775 442.394 481.096 455.851 475.033Z"/><path fill="#CBCBCB" d="M350.412 537.689C358.552 550.259 373.045 572.113 388.816 574.6C412.278 578.3 450.028 546.93 469.41 535.407C472.26 555.706 469.889 588.881 467.711 609.853C466.115 622.987 460.852 636.265 461.723 649.559C462.034 654.307 465.643 657.503 469.348 660.082C498.865 680.635 539.39 691.893 574.849 687.908C572.316 690.493 569.719 693.016 567.063 695.474C559.421 696.074 549.3 695.633 541.596 695.314C505.034 693.799 471.48 685.009 437.255 672.594C434.956 668.914 433.794 665.791 432.216 661.771C434.003 655.101 437.803 645.442 440.059 638.44C448.115 613.438 451.013 597.012 451.231 570.804C458.244 565.246 462.485 559.727 468.136 552.893C443.741 561.927 408.371 602.794 379.186 594.344C362.589 589.538 343.853 557.455 336.48 541.759C342.083 540.43 344.973 539.719 350.412 537.689Z"/><path fill="#CBCBCB" d="M465.598 485.571C471.18 490.256 476.729 495.05 482.571 499.41C490.065 505.004 522.856 527.731 530.596 526.924C531.783 526.801 532.468 526.132 533.137 525.181C537.048 519.622 544.001 499.202 550.571 498.009C550.721 497.982 550.874 497.978 551.026 497.962C551.123 499.822 550.847 500.182 552.781 501.674C555.113 503.473 563.886 512.085 566.041 512.286L566.876 511.908C568.514 513.985 571.916 518.672 572.929 521.001C568.92 519.865 554.829 511.656 550.225 509.154C548.01 513.009 535.515 532.64 533.096 534.832C520.887 538.195 469.895 497.091 465.598 485.571Z"/><path fill="#4B4B4B" d="M439.432 681.238C476.71 696.378 522.862 703.893 563.067 703.301C571.925 703.17 576.234 697.351 581.562 691.212C584.481 695.028 586.538 697.482 590.027 700.727C608.752 700.284 630.445 693.034 648.029 686.573C647.699 688.281 647.379 689.829 647.18 691.557C648.999 690.568 649.263 690.488 651.28 689.94C645.293 717.392 636.935 745.523 629.807 772.899C628.002 779.572 626.34 786.284 624.824 793.029C623.406 799.543 621.983 807.52 620.164 813.817C618.627 814.675 618.167 814.726 616.506 815.14C612.761 815.847 607.937 816.873 604.235 817.056C596.392 818.933 576.109 818.13 567.353 817.74C565.902 794.898 563.109 771.598 557.664 749.366C567.657 747.024 586.462 740.619 593.498 732.814C587.678 734.44 545.016 744.336 542.479 746.121C538.024 749.255 534.868 755.932 532.203 760.657C522.234 778.336 513.903 797.498 506.271 816.311L503.344 823.692C496.979 823.41 484.878 818.546 477.32 816.995C474.924 816.964 472.792 817.058 470.409 817.163C462.476 818.592 458.758 819.83 451.597 823.403C450.059 801.291 448.621 777.145 446.349 755.297C443.618 729.036 439.488 708.025 439.432 681.238Z"/><path fill="#393939" d="M439.432 681.238C476.71 696.378 522.862 703.893 563.067 703.301C571.925 703.17 576.234 697.351 581.562 691.212C584.481 695.028 586.538 697.482 590.027 700.727C608.752 700.284 630.445 693.034 648.029 686.573C647.699 688.281 647.379 689.829 647.18 691.557L646.732 692.272C592.786 714.95 538.788 715.292 481.958 706.622C474.683 715.685 467.463 722.152 457.893 728.742C458.084 738.136 460.257 812.788 461.679 815.539C464.014 816.672 467.753 816.96 470.409 817.163C462.476 818.592 458.758 819.83 451.597 823.403C450.059 801.291 448.621 777.145 446.349 755.297C443.618 729.036 439.488 708.025 439.432 681.238Z"/><path fill="#393939" d="M593.498 732.814C595.386 732.236 597.079 731.73 598.993 731.249C593.245 739.262 579.544 753.637 575.433 760.583C576.386 770.437 577.179 780.306 577.814 790.186C578.06 793.863 578.498 810.909 580.834 812.677C584.927 815.775 596.63 817.006 601.782 817.029L604.235 817.056C596.392 818.933 576.109 818.13 567.353 817.74C565.902 794.898 563.109 771.598 557.664 749.366C567.657 747.024 586.462 740.619 593.498 732.814Z"/><path fill="#838283" d="M647.18 691.557C648.999 690.568 649.263 690.488 651.28 689.94C645.293 717.392 636.935 745.523 629.807 772.899C628.002 779.572 626.34 786.284 624.824 793.029C623.406 799.543 621.983 807.52 620.164 813.817C618.627 814.675 618.167 814.726 616.506 815.14C625.505 773.697 637.521 733.156 646.732 692.272L647.18 691.557Z"/><path fill="#393939" d="M477.32 816.995C485.35 814.82 491.802 821.253 506.271 816.311L503.344 823.692C496.979 823.41 484.878 818.546 477.32 816.995Z"/><path fill="#AAB7BC" d="M394.006 325.333C394.834 328.844 395.418 332.904 396.018 336.506C396.939 340.475 397.147 341.02 399.574 344.197L400.125 344.345C403.492 345.225 407.756 345.464 410.443 346.491L410.505 347.007C408.903 347.731 408.354 347.662 406.63 347.768C405.664 348.064 401.165 349.506 400.419 349.48C396.421 353.088 395.521 359.111 394.821 364.326C393.772 372.001 394.21 382.64 394.151 390.574C394.01 409.666 394.543 429.066 393.944 448.092C393.688 456.203 373.125 454.108 367.775 454.093L334.087 453.988C335.128 443.091 335.059 420.62 317.58 427.362C311.308 413.712 301.034 415.529 291.432 425.016C281.54 416.404 273.981 420.943 267.393 431.049C266.664 432.609 265.239 435.424 264.685 436.933C262.388 443.522 261.355 447.122 261.478 454.196L238.153 454.139C230.061 454.833 216.861 456.775 216.453 445.53C216.125 436.492 216.334 427.63 216.392 418.595L216.309 379.243C216.278 370.747 216.476 360.94 215.999 352.543C215.372 339.301 228.637 342.156 237.948 342.141L266.615 342.116L363.946 341.962C368.929 341.956 386.749 342.749 390.148 341.696C391.64 340.141 391.838 338.575 392.435 336.468C392.482 335.038 393.75 327.278 394.006 325.333Z"/><path fill="#FEFEFE" d="M394.006 325.333C394.834 328.844 395.418 332.904 396.018 336.506C396.939 340.475 397.147 341.02 399.574 344.197L400.125 344.345C403.492 345.225 407.756 345.464 410.443 346.491L410.505 347.007C408.903 347.731 408.354 347.662 406.63 347.768C405.664 348.064 401.165 349.506 400.419 349.48C396.421 353.088 395.521 359.111 394.821 364.326L394.527 364.295C393.409 362.991 392.169 354.889 390.19 352.402C387.024 348.422 380.067 347.668 375.395 346.78C378.693 346.229 383.28 345.643 386.273 344.434C368.699 344.781 351.597 344.527 334.028 344.383C320.746 344.275 307.533 344.863 294.28 344.896C270.316 344.773 246.352 344.839 222.389 345.093C218.773 347.65 218.421 348.717 215.999 352.543C215.372 339.301 228.637 342.156 237.948 342.141L266.615 342.116L363.946 341.962C368.929 341.956 386.749 342.749 390.148 341.696C391.64 340.141 391.838 338.575 392.435 336.468C392.482 335.038 393.75 327.278 394.006 325.333Z"/><path fill="#FEFEFE" d="M232.446 435.468C231.793 433.658 231.755 432.74 232.602 431.05C233.121 430.585 233.811 430.039 234.533 430.007C243.926 429.597 254.838 429.827 264.184 429.836L264.583 430.959C263.555 432.205 258.983 434.239 256.353 436.498C251.244 436.465 236.371 436.765 232.446 435.468Z"/><path fill="#DBE0E3" d="M264.184 429.836L267.393 431.049C266.664 432.609 265.239 435.424 264.685 436.933C261.702 437.199 258.641 437.52 255.655 437.661C251.656 440.745 242.359 451.422 239.528 452.083C239.604 451.899 252.372 439.278 253.788 437.781C249.489 437.431 234.683 438.233 232.446 435.468C236.371 436.765 251.244 436.465 256.353 436.498C258.983 434.239 263.555 432.205 264.583 430.959L264.184 429.836Z"/><path fill="#452C1E" d="M326.278 382.46C305.142 382.531 306.266 383.039 305.652 360.973C305.416 352.479 315.728 352.709 321.568 353.283C332.293 354.336 378.21 351.165 385.068 355.193C388.393 359.353 388.085 369.02 387.805 374.386C387.3 384.081 377.639 382.131 371.023 382.505L364.477 382.481L361.288 382.474C360.224 382.402 358.812 382.478 357.717 382.5L353.194 382.504L350.315 382.431C344.093 382.367 337.639 382.499 331.398 382.545L326.278 382.46Z"/><path fill="#EAB77B" d="M313.407 355.893C323.88 355.008 335.348 355.885 345.756 355.556C351.662 355.369 359.312 355.437 364.583 355.539C382.325 355.881 387.293 352.396 385.51 373.517C384.997 378.021 382.981 379.534 378.628 379.676C373.398 379.847 368.035 380.088 362.834 379.902C348.918 379.404 334.216 380.833 320.403 379.994C316.26 380.026 309.299 380.773 308.524 375.493C307.694 369.826 305.493 356.895 313.407 355.893Z"/><path fill="#FAD082" d="M320.403 379.994C316.26 380.026 309.299 380.773 308.524 375.493C307.694 369.826 305.493 356.895 313.407 355.893C324.004 356.316 334.995 355.84 345.624 355.97C349.862 356.022 357.348 355.589 361.198 356.448C360.899 362.435 355.557 362.815 350.95 362.084C348.41 363.266 347.518 366.572 346.384 369.239C345.216 366.164 344.684 363.59 341.755 362.151C340.738 364.028 340.893 365.927 340.791 368.118C340.024 369.743 340.497 370.682 340.052 372.101C337.786 373.693 336.536 373.323 333.551 373.05C335.167 373.918 335.267 373.834 336.25 375.452C336.165 380.391 324.362 378.293 320.403 379.994Z"/><path fill="#452C1E" d="M339.111 362.613C339.843 362.492 341.083 362.33 341.755 362.151C340.738 364.028 340.893 365.927 340.791 368.118C340.024 369.743 340.497 370.682 340.052 372.101C337.786 373.693 336.536 373.323 333.551 373.05L332.974 372.947C332.289 371.461 332.582 364.746 332.602 362.657L339.111 362.613Z"/><path fill="#FAD082" d="M339.111 362.613C339.843 362.492 341.083 362.33 341.755 362.151C340.738 364.028 340.893 365.927 340.791 368.118C340.024 369.743 340.497 370.682 340.052 372.101C338.106 371.548 335.49 371.942 334.361 369.921C336.059 369.118 337.675 368.933 338.672 367.574C337.09 366.092 335.933 367.59 334.585 366.112C336.126 364.418 336.741 364.594 338.838 363.894L339.111 362.613Z"/><path fill="#5B3E32" d="M323.154 362.642C326.011 362.575 330.461 362.029 330.728 365.9C327.925 369.799 329.539 368.306 331.145 372.488L330.764 373.09L329.233 373.269C328.406 371.425 328.252 370.797 326.918 369.345C325.144 369.668 326.174 371.751 323.9 373.476L323.54 373.138C322.584 370.727 323.059 365.506 323.154 362.642Z"/><path fill="#5B3E32" d="M313.927 362.546C317.495 362.429 318.411 362.12 321.111 364.284C322.608 367.482 320.288 368.463 317.695 369.834L316.553 369.707L316.075 370.788C315.469 372.196 315.641 372.305 314.376 373.121C313.706 371.624 313.932 364.685 313.927 362.546Z"/><path fill="#452C1E" d="M350.95 362.084C351.83 364.724 352.607 370.538 351.016 372.888C349.629 371.56 349.774 368.95 349.724 367.016L349.709 366.267C348.798 368.362 347.448 371.741 346.359 373.628L343.239 366.152C342.983 368.574 343.013 370.571 341.84 372.657L341.301 372.456C340.687 370.613 340.787 370.023 340.791 368.118C340.893 365.927 340.738 364.028 341.755 362.151C344.684 363.59 345.216 366.164 346.384 369.239C347.518 366.572 348.41 363.266 350.95 362.084Z"/><path fill="#452C1E" d="M369.559 367.431C369.499 365.269 369.272 364.316 370.146 362.425C372.668 362.988 373.546 368.069 375.213 369.018L375.94 367.786C376.548 365.608 376.576 365.097 377.815 363.277L379.035 362.756C381.35 364.458 381.114 371.151 379.747 373.314L379.031 373.144C377.886 371.019 378.884 369.881 377.919 367.764L375.257 373.651C373.686 371.091 373.019 369.911 371.763 367.157C371.575 368.996 371.411 371.318 371.073 373.091C370.416 373.339 370.846 373.226 369.747 373.21C369.04 371.787 369.452 369.142 369.559 367.431Z"/><path fill="#5B3E32" d="M369.559 367.431L370.698 367.854C371.415 370.082 370.958 370.945 371.073 373.091C370.416 373.339 370.846 373.226 369.747 373.21C369.04 371.787 369.452 369.142 369.559 367.431Z"/><path fill="#452C1E" d="M361.342 371.515C367.446 370.283 363.637 365.313 366.235 362.912C368.911 365.651 367.593 376.479 359.62 372.185L361.342 371.515Z"/><path fill="#452C1E" d="M354.372 362.494L355.557 362.925C357.378 365.139 356.56 370.552 356.402 373.598L354.952 373.14C353.791 371.031 354.283 365.119 354.372 362.494Z"/><path fill="#452C1E" d="M359.62 372.185C358.33 369.689 357.703 364.987 359.45 362.725L360.128 362.938C361.089 365.198 360.684 367.94 361.242 370.991L361.342 371.515L359.62 372.185Z"/><path fill="#391B14" d="M238.887 373.719C246.302 373.783 255.809 373.153 262.929 374.403C268.605 375.4 267.361 394.12 265.374 397.947C264.685 399.274 263.321 399.537 261.997 399.892C256.376 399.969 250.71 400.204 245.108 400.256C240.752 400.296 234.635 400.971 233.535 395.389C232.428 389.765 232.11 381.706 234.413 376.353C235.155 374.681 237.277 374.08 238.887 373.719Z"/><path fill="#FAD082" d="M244.367 381.061C244.312 379.501 244.097 378.333 244.753 376.943C248.186 374.277 252.233 377.366 256.933 376.28C261.297 376.35 265.946 376.407 264.021 382.569L264.093 384.104C264.662 386.309 264.613 388.202 264.698 390.474L264.556 392.363C264.45 394.09 264.786 395.137 263.488 396.532C261.943 398.192 257.2 398.489 255.735 396.86L254.482 396.854C251.902 398.023 248.306 397.376 245.23 397.723C246.884 398.01 250.1 398.187 251.854 398.331C248.819 398.628 246.313 398.774 243.413 397.843C240.694 397.895 238.395 398.29 236.397 396.514C235.37 394.607 235.546 393.529 235.466 391.284C235.332 390.963 235.39 391.229 235.52 390.156C235.449 387.733 234.883 385.41 236.743 383.816L236.84 383.426C238.382 383.178 239.303 382.976 240.824 382.595L243.003 382.415L243.639 380.916L244.367 381.061Z"/><path fill="#FCC164" d="M256.933 376.28C261.297 376.35 265.946 376.407 264.021 382.569L264.093 384.104C264.662 386.309 264.613 388.202 264.698 390.474L264.556 392.363C264.45 394.09 264.786 395.137 263.488 396.532C261.943 398.192 257.2 398.489 255.735 396.86L254.482 396.854L254.591 392.504C254.486 389.587 253.469 384.433 255.964 382.856C257.167 380.777 257.461 378.618 256.933 376.28Z"/><path fill="#FCC164" d="M255.777 394.585L255.948 392.967C257.703 390.964 261.97 391.305 264.182 392.418L264.556 392.363C264.45 394.09 264.786 395.137 263.488 396.532C261.943 398.192 257.2 398.489 255.735 396.86L255.777 394.585Z"/><path fill="#EAB77B" d="M264.182 392.418L264.556 392.363C264.45 394.09 264.786 395.137 263.488 396.532C261.943 398.192 257.2 398.489 255.735 396.86L255.777 394.585C257.667 395.207 261.491 395.673 263.294 394.578C264.076 394.103 263.955 393.385 264.182 392.418Z"/><path fill="#FCC164" d="M256.933 376.28C261.297 376.35 265.946 376.407 264.021 382.569L255.964 382.856C257.167 380.777 257.461 378.618 256.933 376.28Z"/><path fill="#452C1E" d="M264.021 382.569L264.093 384.104L255.614 384.197L255.811 390.485L264.698 390.474L264.556 392.363L264.182 392.418C261.97 391.305 257.703 390.964 255.948 392.967L255.777 394.585L255.735 396.86L254.482 396.854L254.591 392.504C254.486 389.587 253.469 384.433 255.964 382.856L264.021 382.569Z"/><path fill="#1C140D" d="M243.003 382.415L243.639 380.916L244.367 381.061L244.609 390.709C244.562 393.008 244.272 395.667 245.23 397.723C246.884 398.01 250.1 398.187 251.854 398.331C248.819 398.628 246.313 398.774 243.413 397.843C240.694 397.895 238.395 398.29 236.397 396.514C235.37 394.607 235.546 393.529 235.466 391.284C235.332 390.963 235.39 391.229 235.52 390.156C235.449 387.733 234.883 385.41 236.743 383.816L236.84 383.426C238.382 383.178 239.303 382.976 240.824 382.595L243.003 382.415Z"/><path fill="#FCC164" d="M235.466 391.284L243.368 391.395L243.413 397.843C240.694 397.895 238.395 398.29 236.397 396.514C235.37 394.607 235.546 393.529 235.466 391.284Z"/><path fill="#FAD082" d="M236.743 383.816C239.59 383.864 242.731 383.51 244.055 386.696C242.584 390.647 239.011 390.131 235.52 390.156C235.449 387.733 234.883 385.41 236.743 383.816Z"/><path fill="#DF9B53" d="M244.609 390.709C245.098 393.398 244.641 393.241 246.179 394.972C249.617 395.642 250.881 393.297 254.591 392.504L254.482 396.854C251.902 398.023 248.306 397.376 245.23 397.723C244.272 395.667 244.562 393.008 244.609 390.709Z"/><path fill="#FAD082" d="M240.824 382.595C238.207 382.665 237.448 383.152 235.773 381.111C235.375 377.219 239.217 374.487 242.606 377.199C243.495 378.817 243.136 380.528 243.003 382.415L240.824 382.595Z"/><path fill="#FAD082" d="M366.325 442.851C348.419 452.048 341.993 426.753 357.28 421.842C360.442 420.826 364.112 422.932 366.702 424.728C369.095 423.287 369.778 423.083 372.465 422.233C376.62 423.414 379.795 424.327 382.112 428.501C383.533 431.071 383.814 434.119 382.886 436.905C380.391 444.522 373.048 446.011 366.325 442.851Z"/><path fill="#DF9B53" d="M366.325 442.851C348.419 452.048 341.993 426.753 357.28 421.842C360.442 420.826 364.112 422.932 366.702 424.728C361.078 431.374 360.358 436.111 366.325 442.851Z"/><path fill="#DBE0E3" d="M234.9 409.593C240.925 409.103 254.551 408.698 260.337 411.181C262.402 412.067 261.082 415.6 259.387 417.113C257.928 417.337 253.186 417.71 252.105 417.555C247.626 416.914 231.043 420.386 232.294 412.417C232.576 410.617 233.606 410.429 234.9 409.593Z"/><path fill="#FEFEFE" d="M272.052 410.309C274.961 409.542 294.571 408.869 297.662 411.249C299.112 412.365 298.97 412.58 299.33 414.11C297.565 419.37 288.608 417.403 283.731 417.553C279.747 417.658 271.257 418.757 270.18 413.763C270.74 411.77 270.69 411.87 272.052 410.309Z"/><path fill="#DBE0E3" d="M272.052 410.309C274.961 409.542 294.571 408.869 297.662 411.249C299.112 412.365 298.97 412.58 299.33 414.11C297.565 419.37 288.608 417.403 283.731 417.553C285.129 416.857 291.407 411.843 293.041 410.604C286.734 410.33 277.788 411.024 272.052 410.309Z"/><path fill="#DBE0E3" d="M310.515 410.18C318.551 410.014 328.445 409.036 336.096 410.953C339.084 411.701 337.553 415.518 336.441 417.248C330.914 418.033 323.611 417.37 317.892 417.679C312.625 417.964 307.153 416.546 310.515 410.18Z"/><path fill="#CBCBCB" d="M348.154 410.637C354.319 410.114 360.935 410.414 367.156 410.204C370.194 410.102 373.215 410.285 375.071 412.879C375.366 414.893 375.2 415.018 374.266 416.937C369.806 418.257 354.898 417.3 349.623 417.168C346.988 417.103 347.37 412.658 348.154 410.637Z"/><path fill="#FEFEFE" d="M289.251 373.215C292.034 374.042 294.156 378.925 294.616 381.572C295.765 388.187 294.496 392.488 290.816 397.796C289.172 397.716 289.972 397.848 288.385 396.813C287.955 394.337 290.874 390.484 291.06 386.892C291.282 382.603 288.371 376.805 289.251 373.215Z"/><path fill="#FEFEFE" d="M284.456 376.665C290.574 380.467 289.057 389.976 285.315 395.171C283.271 394.024 281.903 393.806 283.224 391.565C285.364 387.937 284.44 385.084 283.792 381.236C283.318 378.418 282.83 378.906 284.456 376.665Z"/><path fill="#FEFEFE" d="M339.068 382.901C345.71 382.7 345.311 384.855 345.795 390.918C343.44 391.73 341.359 392.45 339.419 390.736C338.462 388.461 338.929 385.489 339.068 382.901Z"/><path fill="#FEFEFE" d="M350.315 382.431L353.194 382.504C353.577 384.402 355.062 390.239 354.719 391.703C353.715 391.137 353.247 390.568 352.483 389.711L351.548 390.846C348.717 389.614 350.307 391.083 347.194 391.061C348.106 388.203 349.249 385.248 350.315 382.431Z"/><path fill="#FEFEFE" d="M279.185 380.138C280.03 380.463 280.029 380.361 280.65 380.948C281.911 382.146 282.63 383.807 282.639 385.547C282.655 388.62 281.748 390.19 279.646 392.203C278.673 391.467 278.808 391.576 277.996 390.706C278.328 388.581 278.39 386.081 278.251 383.946C278.07 381.149 277.449 382.265 279.185 380.138Z"/><path fill="#FEFEFE" d="M361.39 382.828L362.844 383.277C363.767 385.493 363.048 390.157 362.799 392.732C361.781 391.24 360.35 388.778 358.916 387.895C358.053 388.736 357.41 392.679 357.023 394.12C356.782 391.185 355.586 384.943 357.582 382.868C359.522 384.932 360.135 386.171 361.566 388.578C361.478 386.861 361.282 384.495 361.39 382.828Z"/><path fill="#FEFEFE" d="M364.477 382.481L371.023 382.505C370.087 384.024 368.548 386.005 367.465 387.495C368.598 388.542 370.425 389.947 370.829 391.299C369.438 391.381 369.084 390.407 367.414 389.22L365.778 390.764L365.244 390.556C365.107 387.578 364.858 385.421 364.477 382.481Z"/><path fill="#FEFEFE" d="M326.278 382.46L331.398 382.545C331.857 382.964 332.244 383.455 332.545 383.999C333.132 385.061 333.371 386.562 332.929 387.76L332.008 388.106C330.246 386.575 331.417 386.106 329.83 383.438L329.326 383.516C329.453 385.534 329.773 387.896 329.277 389.805L328.29 389.889C327.667 388.429 328.012 386.525 328.112 384.798L327.68 384.638L326.317 386.819L325.564 386.704C325.199 385.238 325.815 383.963 326.278 382.46Z"/><path fill="#FEFEFE" d="M625.849 477.083C644.677 489.209 665.796 514.631 682.839 531.005C676.727 536.747 674.955 538.948 672.016 546.95L678.848 539.962C675.23 548.952 673.875 552.535 674.694 562.23C676.085 559.126 677.026 556.163 678.44 553.067C683.583 541.806 692.183 533.472 701.66 525.706C706.034 542.156 715.209 553.08 728.075 563.743C732.12 566.822 735.997 568.903 740.459 571.312C740.182 571.692 739.902 572.071 739.621 572.448C729.099 586.565 711.148 607.893 692.497 610.808C682.367 612.391 670.56 603.693 662.966 597.562C659.782 576.494 655.963 560.768 650.326 540.511C647.11 530.784 643.951 521.209 638.028 512.701C639.665 528.319 645.227 549.072 648.492 565.099C653.474 589.513 657.306 614.148 659.976 638.922C660.834 646.464 662.693 654.943 662.794 662.393C662.821 664.409 660.41 668.709 659.364 670.547C653.738 677.908 622.39 687.366 612.44 689.695C606.57 691.069 598.832 692.337 592.828 693.616L588.442 688.031L584.573 683.932C591.08 655.691 590.909 624.194 588.759 595.37C587.619 578.113 585.462 560.939 582.302 543.936C580.886 536.29 578.995 528.827 577.367 521.235C577.084 519.92 577.483 518.87 577.996 517.65C579.36 511.981 580.667 506.496 582.267 500.883C582.822 498.454 583.553 495.062 584.687 492.921L585.865 492.956L586.253 493.516C590.024 497.405 592.679 500.192 596.067 504.444C599.009 508.135 603.717 515.506 607.033 518.26C614.459 514.164 621.249 494.851 623.534 486.877C624.479 483.655 625.251 480.386 625.849 477.083Z"/><path fill="#CBCBCB" d="M650.326 540.511C652.344 541.81 654.39 546 655.178 548.268C671.288 594.616 692.426 598.852 728.075 563.743C732.12 566.822 735.997 568.903 740.459 571.312C740.182 571.692 739.902 572.071 739.621 572.448C729.099 586.565 711.148 607.893 692.497 610.808C682.367 612.391 670.56 603.693 662.966 597.562C659.782 576.494 655.963 560.768 650.326 540.511Z"/><path fill="#CBCBCB" d="M588.442 688.031C602.595 685.337 615.031 684.563 629.697 680.326C639.239 677.569 650.118 672.913 658.892 670.664L659.364 670.547C653.738 677.908 622.39 687.366 612.44 689.695C606.57 691.069 598.832 692.337 592.828 693.616L588.442 688.031Z"/><path fill="#CBCBCB" d="M582.267 500.883C582.822 498.454 583.553 495.062 584.687 492.921L585.865 492.956L586.253 493.516C590.024 497.405 592.679 500.192 596.067 504.444C599.009 508.135 603.717 515.506 607.033 518.26C605.713 520.06 604.541 520.171 602.308 521.202C597.72 516.053 593.846 510.757 588.974 505.622C585.061 509.622 582.449 513.719 577.996 517.65C579.36 511.981 580.667 506.496 582.267 500.883Z"/><path fill="#DBE0E3" d="M582.267 500.883C582.822 498.454 583.553 495.062 584.687 492.921L585.865 492.956L586.253 493.516C585.853 496.51 585.81 498.253 583.742 500.474L582.267 500.883Z"/><path fill="#EAB77B" d="M602.41 199.219C613.82 188.019 631.854 175.928 646.09 168.653C652.206 165.528 667.748 158.377 674.911 160.788C677.36 161.612 679.218 166.468 680.238 168.911C693.335 192.123 684.679 243.097 675.352 268.072C673.599 265.463 669.186 259.155 668.017 256.679C664.182 250.202 660.259 244.455 656.547 237.754C657.7 237.049 659.24 236.157 660.125 235.154C661.559 233.509 662.224 231.331 661.953 229.165C661.413 225.123 658.298 222.385 655.279 220.074C659.415 213.499 660.094 210.113 652.946 205.362C646.399 203.048 636.627 206.158 630.561 208.82C633.523 205.457 636.526 202.13 639.569 198.84C637.916 197.648 636.496 195.901 634.614 194.5C629.647 199.785 625.712 204.1 621.656 210.17C617.276 207.205 614.111 205.291 609.542 202.71L602.41 199.219Z"/><path fill="#6D4E3D" d="M675.342 185.692C675.647 187.96 676.016 190.36 676.249 192.623C679.108 209.329 674.092 240.484 668.017 256.679C664.182 250.202 660.259 244.455 656.547 237.754C657.7 237.049 659.24 236.157 660.125 235.154C661.559 233.509 662.224 231.331 661.953 229.165C661.413 225.123 658.298 222.385 655.279 220.074C659.415 213.499 660.094 210.113 652.946 205.362C657.321 198.092 665.308 189.396 673.473 186.422L673.775 186.855L675.342 185.692Z"/><path fill="#452C1E" d="M675.342 185.692C675.647 187.96 676.016 190.36 676.249 192.623C676.151 192.948 675.879 193.402 675.71 193.722C674.594 192.047 674.196 188.946 673.775 186.855L675.342 185.692Z"/><path fill="#F7E2C5" d="M602.41 199.219C613.82 188.019 631.854 175.928 646.09 168.653C652.206 165.528 667.748 158.377 674.911 160.788C677.36 161.612 679.218 166.468 680.238 168.911C675.57 167.968 675.624 159.936 662.738 166.023C644.348 174.71 623.999 188.508 609.542 202.71L602.41 199.219Z"/><path fill="#5B3E32" d="M639.569 198.84C644.701 193.832 661.655 175.92 668.987 178.047C671.477 180.278 672.318 183.302 673.473 186.422C665.308 189.396 657.321 198.092 652.946 205.362C646.399 203.048 636.627 206.158 630.561 208.82C633.523 205.457 636.526 202.13 639.569 198.84Z"/><defs><linearGradient id="gradient_1" gradientUnits="userSpaceOnUse" x1="658.45667" y1="194.98311" x2="650.83887" y2="181.4743"><stop offset="0" stop-color="#1F0D08"/><stop offset="1" stop-color="#3A1B14"/></linearGradient></defs><path fill="url(#gradient_1)" d="M634.614 194.5C642.442 186.826 651.966 178.741 662.437 174.991C671.68 171.68 673.541 178.564 675.342 185.692L673.775 186.855L673.473 186.422C672.318 183.302 671.477 180.278 668.987 178.047C661.655 175.92 644.701 193.832 639.569 198.84C637.916 197.648 636.496 195.901 634.614 194.5Z"/><path fill="#EAB77B" d="M289.115 472.055C287.649 460.632 286.296 450.44 291.307 439.628C294.438 432.874 298.635 425.586 306.981 425.322C310.242 427.943 310.218 429.042 311.027 433.289C305.382 445.233 305.059 447.67 305.682 460.667C306.863 465.24 308.23 467.695 310.77 471.571C310.482 462.951 308.603 454.07 312.07 445.769C313.949 441.268 318.494 431.492 324.41 434.003C330.545 442.997 322.695 452.158 330.408 464.433C332.129 465.774 332.992 466.716 335.046 467.212C334.658 464.76 334.231 464.817 335.148 463.09C341.028 459.523 349.962 463.985 354.052 468.694C356.345 473.099 355.428 474.118 356.803 478.137C357.526 480.252 360.573 483.789 361.863 486.502C357.702 492.168 353.974 495.947 348.186 500.075C343.267 503.51 337.342 505.7 331.789 508.002C330.996 506.331 327.273 499.116 327.427 497.848C328.712 497.379 329.383 497.083 330.615 496.481L330.523 495.609C327.123 493.173 319.377 491.75 315.117 490.546C305.358 487.788 292.027 483.817 283.96 477.796C275.902 473.773 275.218 469.749 271.126 463.015C265.877 454.376 272.695 423.379 284.436 429.031C285.946 430.593 286.238 430.408 286.722 432.216C285.768 435.634 283.659 439.667 283.024 442.192C281.903 446.646 282.355 454.489 282.569 459.134C284.497 465.062 285.4 467.063 289.115 472.055Z"/><path fill="#BF8B62" d="M283.96 477.796C286.467 477.518 292.135 479.466 294.905 480.356C308.083 484.592 321.769 486.259 335.253 489.276C343.991 491.23 343.037 494.305 348.186 500.075C343.267 503.51 337.342 505.7 331.789 508.002C330.996 506.331 327.273 499.116 327.427 497.848C328.712 497.379 329.383 497.083 330.615 496.481L330.523 495.609C327.123 493.173 319.377 491.75 315.117 490.546C305.358 487.788 292.027 483.817 283.96 477.796Z"/><path fill="#BF8B62" d="M306.981 425.322C310.242 427.943 310.218 429.042 311.027 433.289C305.382 445.233 305.059 447.67 305.682 460.667C299.709 450.929 307.638 437.024 306.981 425.322Z"/><path fill="#BF8B62" d="M324.41 434.003C330.545 442.997 322.695 452.158 330.408 464.433C321.746 461.856 323.63 440.98 324.41 434.003Z"/><path fill="#BF8B62" d="M284.436 429.031C285.946 430.593 286.238 430.408 286.722 432.216C285.768 435.634 283.659 439.667 283.024 442.192C281.903 446.646 282.355 454.489 282.569 459.134C282.032 458.214 281.588 457.242 281.246 456.233C278.825 449.067 280.931 435.997 284.436 429.031Z"/><path fill="#DF9B53" d="M335.046 467.212C334.658 464.76 334.231 464.817 335.148 463.09C341.028 459.523 349.962 463.985 354.052 468.694C349.294 467.483 339.409 464.68 335.046 467.212Z"/><path fill="#FEFEFE" d="M469.048 463.636C476.285 465.063 484.29 465.934 491.284 467.279C495.259 468.043 504.263 474.09 508.791 476.225C516.973 479.771 525.197 483.217 533.463 486.563C536.906 487.916 550.173 492.494 552.205 493.936C555.84 496.514 564.183 507.788 566.876 511.908L566.041 512.286C563.886 512.085 555.113 503.473 552.781 501.674C550.847 500.182 551.123 499.822 551.026 497.962C551.415 497.457 551.485 497.123 551.742 496.514C551.059 493.329 546.795 493.225 545.051 494.348C537.162 499.432 532.045 511.088 528.203 519.247C507.37 507.224 481.006 491.479 464.564 473.616L462.382 471.049L469.048 463.636Z"/><path fill="#CBCBCB" d="M469.048 463.636C476.285 465.063 484.29 465.934 491.284 467.279C495.259 468.043 504.263 474.09 508.791 476.225C500.144 477.598 469.203 470.49 464.564 473.616L462.382 471.049L469.048 463.636Z"/><path fill="#EAB77B" d="M760.06 477.984C767.749 474.102 776.637 473.332 784.879 475.835C790.899 477.707 793.148 480.96 792.989 487.093L791.591 494.801C795.814 505.228 793.259 508.899 790.208 519.047C789.347 521.913 789.407 524.357 788.135 527.343C780.839 536.866 761.988 533.982 757.199 523.824C757.212 521.896 756.887 522.676 757.958 521.316C759.878 520.631 762.985 521.618 765.339 522.042C770.414 522.004 778.532 521.52 783.01 519.137L783.161 518.417C781.489 517.669 774.913 517.444 772.254 517.092C765.776 518.081 755.704 516.174 753.972 508.691C753.941 506.441 753.774 505.736 754.568 503.704C758.47 499.493 778.552 496.557 784.684 495.472C779.177 493.891 770.605 492.692 764.818 493.136C762.231 493.335 755.982 495.914 753.5 495.511C751.124 493.097 751.663 486.828 752.704 483.918C753.65 481.277 757.522 478.992 760.06 477.984Z"/><path fill="#BF8B62" d="M788.135 527.343C780.839 536.866 761.988 533.982 757.199 523.824C757.212 521.896 756.887 522.676 757.958 521.316C759.878 520.631 762.985 521.618 765.339 522.042C768.922 528.281 781.72 528.761 788.135 527.343Z"/><path fill="#F7E2C5" d="M760.06 477.984C767.749 474.102 776.637 473.332 784.879 475.835C790.899 477.707 793.148 480.96 792.989 487.093C789.864 484.227 790.646 481.914 785.586 479.808C775.995 475.816 770.091 475.803 760.34 478.992L760.06 477.984Z"/><path fill="#A46F4E" d="M753.972 508.691C760.29 514.368 765.645 514.147 772.254 517.092C765.776 518.081 755.704 516.174 753.972 508.691Z"/><path fill="#EAB77B" d="M742.547 441.747C748.426 438.943 754.193 442.645 756.214 448.402C758.967 455.025 755.341 464.874 754.689 471.912C754.582 473.065 750.465 475.343 749.633 476.259C742.997 482.936 743.508 492.545 748.051 500.14C746.864 504.871 746.305 506.341 747.228 511.234C748.549 514.511 749.411 515.42 751.527 518.228C748.87 526.405 751.64 530.046 757.601 535.088C755.94 537.198 755.186 535.725 752.173 540.339C747.338 537.446 742.989 534.397 739.047 530.317C732.986 524.308 729.937 518.076 727.11 510.206C733.077 501.073 734.58 506.578 733.463 492.733C732.769 484.131 740.512 473.411 741.021 464.219C741.364 458.003 741.21 452.744 740.397 446.485C740.191 444.283 741.064 443.128 742.547 441.747Z"/><path fill="#BF8B62" d="M747.228 511.234C748.549 514.511 749.411 515.42 751.527 518.228C748.87 526.405 751.64 530.046 757.601 535.088C755.94 537.198 755.186 535.725 752.173 540.339C747.338 537.446 742.989 534.397 739.047 530.317C745.433 523.888 746.044 519.599 747.228 511.234Z"/><path fill="#FEEED6" d="M742.547 441.747C748.426 438.943 754.193 442.645 756.214 448.402C753.925 447.991 751.759 444.741 749.957 443.874C747.767 442.82 745.032 443.14 742.547 441.747Z"/><path fill="#5B3E32" d="M600.716 828.016C605.787 826.578 611.755 826.047 616.586 824.545C622.52 823.929 647.711 836.982 650.38 842.775C650.212 844.375 650.507 843.703 649.565 844.904C632.695 848.335 609.657 847.697 592.555 846.521C592.426 846.525 592.297 846.529 592.168 846.532C572.624 846.252 573.107 844.003 573.05 826.477C581.554 827.128 592.756 827.035 600.716 828.016Z"/><path fill="#452C1E" d="M573.05 826.477C581.554 827.128 592.756 827.035 600.716 828.016C596.679 829.709 588.464 830.536 586.668 834.404C584.835 838.349 589.306 844.421 592.555 846.521C592.426 846.525 592.297 846.529 592.168 846.532C572.624 846.252 573.107 844.003 573.05 826.477Z"/><path fill="#AD998F" d="M616.586 824.545C622.52 823.929 647.711 836.982 650.38 842.775C650.212 844.375 650.507 843.703 649.565 844.904C646.68 842.605 644.823 840.293 641.317 837.848C636.959 834.809 618.215 827.309 616.586 824.545Z"/><path fill="#5B3E32" d="M472.665 825.684C480.813 825.574 487.356 827.213 494.539 832.027C497.901 833.325 505.687 846.687 502.727 849.695C499.409 853.068 481.177 853.515 476.875 853.548C468.215 853.678 455.043 853.761 447.227 849.691C443.498 847.749 449.561 838.852 451.373 836.536C456.797 829.608 464.178 826.592 472.665 825.684Z"/><path fill="#FEFEFE" d="M370.371 483.979C374.653 489.007 377.669 492.661 380.826 498.442C375.392 513.038 361.709 524.671 347.818 530.98C347.12 531.297 346.419 531.609 345.716 531.914C340.016 534.015 336.86 534.291 330.772 535.046C327.149 528.33 325.198 523.822 322.953 516.599C329.151 516.63 330.613 516.292 336.511 514.375C351.672 508.852 364.768 499.569 370.371 483.979Z"/><path fill="#CBCBCB" d="M322.953 516.599C329.151 516.63 330.613 516.292 336.511 514.375C339.276 520.945 341.972 525.837 345.716 531.914C340.016 534.015 336.86 534.291 330.772 535.046C327.149 528.33 325.198 523.822 322.953 516.599Z"/><path fill="#FEFEFE" d="M707.01 519.413C709.587 515.693 715.756 510.308 719.322 507.034C719.468 507.943 719.623 508.851 719.789 509.758C722.518 524.609 732.683 536.377 744.822 544.726C749.55 547.641 752.224 549.035 757.524 550.851C754.454 556.313 750.689 561.789 746.116 566.108C741.432 563.823 737.673 561.891 733.446 558.784C720.2 549.253 710.818 535.281 707.01 519.413Z"/><path fill="#CBCBCB" d="M744.822 544.726C749.55 547.641 752.224 549.035 757.524 550.851C754.454 556.313 750.689 561.789 746.116 566.108C741.432 563.823 737.673 561.891 733.446 558.784C737.349 554.155 740.802 549.349 744.822 544.726Z"/><path fill="#FEFEFE" d="M600.416 467.769C605.309 467.409 609.494 464.545 613.265 467.949C615.283 469.746 617.419 471.576 619.321 473.483C615.507 487.123 613.049 494.248 607.25 507.073C602.798 500.893 597.184 492.024 590.129 488.956C587.424 489.853 586.849 490.259 585.865 492.956L584.687 492.921C585.429 490.758 585.406 490.77 586.704 488.903C591.012 482.397 594.068 479.243 598.346 471.911L600.416 467.769Z"/><path fill="#DBE0E3" d="M600.416 467.769C605.309 467.409 609.494 464.545 613.265 467.949C609.012 469.456 602.813 471.339 598.346 471.911L600.416 467.769Z"/><path fill="#DBE0E3" d="M586.704 488.903C588.446 489.66 588.562 488.733 590.129 488.956C587.424 489.853 586.849 490.259 585.865 492.956L584.687 492.921C585.429 490.758 585.406 490.77 586.704 488.903Z"/><path fill="#EAB77B" d="M645.425 211.193C647.39 210.941 649.502 210.799 651.322 211.546C653.592 214.452 646.853 219.26 644.615 221.342C647.397 222.514 654.169 225.398 655.829 228.167C656.153 228.707 655.737 229.066 655.35 229.85C652.291 232.097 651.615 230.552 649.005 232.899C642.488 226.034 637.681 221.245 630.168 215.338C636.146 213.008 639.104 212.049 645.425 211.193Z"/><path fill="#4B4B4B" d="M648.029 686.573L652.454 684.556C652.099 686.338 651.787 688.206 651.28 689.94C649.263 690.488 648.999 690.568 647.18 691.557C647.379 689.829 647.699 688.281 648.029 686.573Z"/><path fill="#391B14" d="M816.888 327.704C823.213 327.225 829.582 329.486 834.04 334.052C841.221 341.407 841.617 349.15 841.495 358.734C845.582 361.388 849.445 364.255 849.252 369.613C848.951 377.983 851.689 393.316 850.265 401.043C849.971 402.73 849.224 404.305 848.105 405.602C843.699 410.672 827.661 409.524 820.114 409.844C794.99 411.304 788.088 415.227 788.544 386.678C788.632 381.153 787.517 375.196 788.294 369.55C788.902 365.135 791.746 363.388 794.893 361.008C792.195 343.936 797.986 329.8 816.888 327.704ZM820.125 359.798L829.16 359.511C828.721 349.275 827.842 339.337 814.626 341.069C805.317 346.134 806.336 350.777 806.558 360.413C810.609 360.145 816.409 360.154 820.125 359.798Z"/><path fill="#FAD082" d="M818.142 362.946C822.59 362.31 831.166 362.436 835.898 362.387C841.906 362.374 845.058 363.119 846.229 369.796C847.236 374.957 848.022 392.919 847.409 398.118C847.159 400.241 846.623 403.039 844.753 404.35C841.011 406.975 803.47 408.312 798.036 407.469C795.457 407.069 794.125 405.05 792.657 403.134C791.407 393.976 791.98 384.112 790.987 374.9C789.42 360.359 808.34 363.132 818.142 362.946Z"/><path fill="#EAB77B" d="M792.657 403.134C791.407 393.976 791.98 384.112 790.987 374.9C789.42 360.359 808.34 363.132 818.142 362.946C815.988 364.322 815.197 364.175 812.54 364.411C805.572 366.214 801.164 368.292 797.017 374.806C792.89 381.287 794.485 390.208 794.237 398.074C795.606 400.309 797.713 404.465 800.701 404.658C818.563 405.812 835.831 395.665 842.989 379.158C844.495 375.684 842.326 370.354 845.039 369.217L846.229 369.796C847.236 374.957 848.022 392.919 847.409 398.118C847.159 400.241 846.623 403.039 844.753 404.35C841.011 406.975 803.47 408.312 798.036 407.469C795.457 407.069 794.125 405.05 792.657 403.134Z"/><path fill="#FCC164" d="M818.142 362.946C822.59 362.31 831.166 362.436 835.898 362.387C828.687 368.405 821.127 364.766 812.54 364.411C815.197 364.175 815.988 364.322 818.142 362.946Z"/><path fill="#391B14" d="M818.121 373.526C827.065 374.32 828.479 381.153 822.635 387.46C823.185 389.969 824.313 393.121 823.741 395.435C822.633 396.825 822.902 396.389 820.675 396.871C820.258 396.872 819.841 396.869 819.424 396.862C817.132 396.824 816.684 396.878 815.256 395.409C814.623 393.226 815.423 390.308 815.832 387.938C809.551 382.807 810.251 376.288 818.121 373.526Z"/><path fill="#FAD082" d="M817.122 330.67C835.587 331.587 838.199 343.99 838.674 359.319L831.737 359.406C831.511 348.039 830.907 339.058 817.34 337.379C804.163 340.351 802.865 348.537 804.531 360.388C802.255 360.732 799.893 360.887 797.594 361.083C795.304 345.679 800.198 333.13 817.122 330.67Z"/></svg>