<?xml version="1.0" encoding="utf-8" ?><svg xmlns="http://www.w3.org/2000/svg" xmlns:xlink="http://www.w3.org/1999/xlink" width="1024" height="1024" viewBox="0 0 1024 1024"><path d="M598.828 271.983C667.445 196.878 675.603 251.083 674.975 318.964C687.373 336.391 698.178 353.512 709.312 371.702C714.911 380.848 721.572 388.81 727.233 398.649C725.147 403.132 723.765 404.039 719.08 406.094C723.791 412.812 724.107 414.66 717.219 420.032C723.283 436.654 694.354 455.376 682.676 462.521C703.946 479.555 733.718 520.525 711.87 547.81C706.179 554.917 695.966 559.975 687.929 564.126C690.407 574.644 692.159 582.927 696.075 592.995C715.664 585.036 724.727 577.347 733.588 557.271C749.832 520.468 729.992 486.566 757.457 452.786C763.915 444.695 772.313 438.367 781.871 434.389C797.36 428.024 816.202 427.631 832.176 433.891C848.061 440.117 859.63 459.204 852.051 475.882C846.818 487.396 832.424 494.926 828.915 508.208C824.421 522.981 824.289 539.677 822.423 554.961C817.576 594.647 798.287 628.89 759.009 642.546C740.324 649.043 723.629 648.783 704.597 644.508C712.714 669.746 721.778 700.024 719.136 726.926C719.056 727.737 720.554 731.123 720.92 731.971C725.595 735.174 733.892 742.053 737.18 744.121C748.992 767.45 709.143 763.802 699.041 755.336C692.868 750.163 689 743.973 683.444 738.436L682.95 737.948C680.966 734.013 677.14 733.208 673.097 731.5C667.762 729.245 665.391 726.792 660.905 723.369C637.216 705.296 607.52 688.74 576.78 691.942C561.071 693.776 541.614 701.566 531.636 714.287C527.588 719.447 522.357 729.86 523.152 736.441C523.838 740.82 523.238 748.562 520.466 752.02C515.413 756.751 502.306 756.944 495.626 757.398C486.009 758.053 472.437 759.4 464.323 753.968C459.988 751.066 464.774 744.763 466.766 741.801C468.073 741.217 470.809 739.51 472.397 738.721C478.032 735.921 482.49 734.996 488.552 733.739C465.152 700.277 458.975 682.606 481.967 645.606C476.02 640.644 477.618 638.59 480.087 631.897L463.228 628.248C461.365 630.385 459.696 632.879 457.017 633.523C454.217 632.349 453.289 623.143 451.692 619.657C448.659 621.762 445.414 623.403 441.638 623.579C427.286 621.95 401.819 617.666 388.371 613.116C390.078 597.045 393.766 583.001 397.093 567.24C391.08 564.704 373.13 554.008 375.091 546.558C377.803 543.668 397.595 542.556 402.561 542.365C403.168 539.23 403.827 535.294 404.655 532.278C409.082 532.524 411.142 532.578 415.386 533.553L416.238 533.745C417.028 520.7 419.234 522.695 427.814 513.944C433.246 508.404 432.013 507.959 440.296 507.244C442.965 504.678 445.029 502.281 447.551 499.691C439.647 493.158 397.504 459.593 394.654 453.549C395.036 452.171 395.506 451.064 397.013 450.483C423.689 440.2 449.587 462.535 467.316 480.448C472.904 477.176 478.336 473.468 483.937 470.354C467.791 462.869 443.701 450.049 437.199 432.246C436.979 431.642 436.765 431.036 436.558 430.428C437.037 428.508 437.363 426.936 438.133 425.107C430.205 418.472 429.099 417.453 433.926 408.046C430.48 406.099 427.11 404.697 429.579 400.083C439.741 381.097 449.739 361.15 460.616 342.637C464.413 336.262 468.267 329.921 472.177 323.615C469.622 302.888 468.363 278.672 473.978 258.318C482.956 225.775 514.206 247.96 530.003 260.883C534.904 264.973 539.704 269.182 544.399 273.507C561.587 269.729 581.411 268.634 598.828 271.983Z"/><path fill="#FEFEFE" d="M448.16 581.497C447.305 577.585 444.71 571.72 445.883 568.513C448.218 565.97 454.615 565.71 458.35 565.202L451.974 572.317C452.976 576.241 454.572 580.239 455.994 584.054L449.353 593.114L456.565 607.901C454.143 612.199 451.097 615.423 451.692 619.657C448.659 621.762 445.414 623.403 441.638 623.579C440.963 617.216 439.361 613.7 437.054 607.766C438.951 605.153 442.393 601.39 444.585 598.847C443.142 596.038 441.491 593.125 439.971 590.338L448.16 581.497Z"/><defs><linearGradient id="gradient_0" gradientUnits="userSpaceOnUse" x1="564.41559" y1="442.87607" x2="554.14087" y2="337.58298"><stop offset="0" stop-color="#432C2C"/><stop offset="1" stop-color="#715760"/></linearGradient></defs><path fill="url(#gradient_0)" d="M435.893 415.648C441.552 404.708 458.083 393.623 467.472 383.642C486.805 363.09 504.487 325.603 537.577 347.047C560.005 361.582 580.353 338.08 606.216 338.316C642.753 338.651 661.448 367.275 685.429 389.904C688.911 392.935 694.849 398.283 698.6 400.499C709.035 406.663 710.609 402.423 717.438 413.125C712.853 416.634 710.41 417.717 713.134 423.874C693.627 432.94 678.043 435.226 656.72 434.903C648.477 435.289 636.712 433.809 628.802 432.039C623.333 431.1 619.896 429.815 614.761 427.72C608.827 425.135 603.276 421.745 598.266 417.646C586.258 407.949 577.261 396.074 561.093 393.241C534.561 388.592 526.236 409.607 508.396 421.909C498.31 428.235 492.005 430.364 480.436 433.407C464.609 436.177 456.823 435.199 441.905 430.474L444.891 424.112C441.739 421.105 439.08 418.918 435.893 415.648Z"/><path fill="#302120" d="M685.429 389.904C688.911 392.935 694.849 398.283 698.6 400.499C709.035 406.663 710.609 402.423 717.438 413.125C712.853 416.634 710.41 417.717 713.134 423.874C693.627 432.94 678.043 435.226 656.72 434.903C660.84 434.436 661.841 434.063 665.238 431.544C673.311 425.557 680.426 413.605 683.015 404.015C684.099 400.004 684.741 394.167 685.429 389.904Z"/><path fill="#684E51" d="M614.761 427.72C606.676 398.702 662.86 401.075 647.48 425.232C643.69 431.184 634.271 429.795 628.802 432.039C623.333 431.1 619.896 429.815 614.761 427.72Z"/><path fill="#684E51" d="M480.436 433.407C476.432 431.104 471.159 425.415 472.4 420.384C474.652 411.258 487.186 409.715 494.896 411.586C501.561 413.203 504.895 416.423 508.396 421.909C498.31 428.235 492.005 430.364 480.436 433.407Z"/><path d="M512.018 344.123C519.762 344.107 526.076 347.787 532.194 352.679C537.269 356.737 547.634 367.407 541.457 374.338C539.044 377.045 534.215 376.954 530.746 377.014C532.21 388.655 532.315 397.192 521.844 404.745C500.913 414.709 483.789 379.252 510.348 364.542C504.058 356.957 497.999 346.899 512.018 344.123Z"/><path fill="#FEFEFE" d="M510.741 356.484C509.51 354.732 509.128 354.419 508.702 352.395C510.28 347.366 519.581 350.954 522.779 352.614C529.657 356.193 535.166 361.934 538.459 368.953L538.452 369.633C533.491 378.484 514.537 362.131 510.741 356.484Z"/><path fill="#D2D0CE" d="M510.741 356.484C520.03 360.676 526.251 370.339 538.459 368.953L538.452 369.633C533.491 378.484 514.537 362.131 510.741 356.484Z"/><path fill="#FEFEFE" d="M512.617 368.943C519.589 368.87 523.392 374.862 526.472 380.115C515.621 372.595 509.559 377.426 506.854 389.341C507.074 394.055 507.907 396.428 509.471 400.749C498.699 389.473 499.278 377.546 512.617 368.943Z"/><path fill="#FEFEFE" d="M513.906 382.199C515.604 381.815 517.289 382.887 517.66 384.588C518.031 386.288 516.945 387.965 515.242 388.323C513.557 388.676 511.902 387.605 511.536 385.923C511.169 384.241 512.227 382.579 513.906 382.199Z"/><path d="M598.961 342.59C606.428 342.005 617.069 343.509 611.903 353.55C606.703 363.66 595.821 370.863 585.483 374.809L584.847 374.915C581.625 375.479 576.08 375.591 574.005 373.755C564.602 365.431 581.886 349.134 589.531 345.841C593.785 344.01 595.455 343.45 598.961 342.59Z"/><path fill="#FEFEFE" d="M576.084 368.175C576.514 367.01 576.984 365.861 577.494 364.729C580.629 357.932 588.101 351.657 595.105 349.136C599.01 347.73 605.006 346.749 606.672 351.671C606.314 354.682 604.604 355.933 602.407 358.126C597.802 362.971 583.132 373.778 576.494 368.973L576.084 368.175Z"/><path fill="#D2D0CE" d="M576.084 368.175C587.264 369.205 594.062 359.303 602.407 358.126C597.802 362.971 583.132 373.778 576.494 368.973L576.084 368.175Z"/><path d="M603.007 376.548C609.131 376.291 621.298 377.275 624.431 385.457C625.153 387.339 620.552 389.542 618.822 389.292C612.384 388.362 607.455 386.472 600.735 386.708L600.014 386.738C596.086 387.803 584.814 394.987 582.423 392.459C583.11 384.5 596.494 378.521 603.007 376.548Z"/><path fill="#2C313B" d="M571.98 665.772C581.308 665.785 591.05 664.339 600.293 663.042C633.88 658.329 665.101 648.598 694.42 631.281C703.346 655.971 714.295 692.789 715.047 719.382C702.99 729.199 679.67 734.33 668.078 721.834C651.971 708.83 633.834 697.73 614.117 691.235C607.628 689.102 600.99 687.452 594.257 686.298C585.891 684.861 558.512 682.377 550.673 686.321L550.51 687.066C553.759 689.347 558.986 689.116 563.083 689.328C555.962 691.421 549.098 694.304 542.619 697.924C530.875 704.635 524.003 711.873 520.39 724.933C508.618 725.601 499.458 725.547 487.783 723.244C468.261 695.629 469.756 679.989 485.179 650.838C486.339 649.137 486.176 648.714 487.733 648.166C490.948 648.846 492.522 650.026 495.46 651.119C512.285 657.38 531.26 662.652 548.998 664.452C552.604 658.852 555.376 653.632 558.685 647.914C562.003 653.646 566.378 662.411 571.98 665.772Z"/><path fill="#21242B" d="M571.98 665.772C581.308 665.785 591.05 664.339 600.293 663.042C633.88 658.329 665.101 648.598 694.42 631.281C703.346 655.971 714.295 692.789 715.047 719.382C702.99 729.199 679.67 734.33 668.078 721.834C672.149 721.043 678.981 721.68 683.339 721.274C700.745 719.652 704.991 706.302 702.831 691.045C700.898 677.392 695.143 658.236 683.835 649.41C675.595 650.86 662.822 656.774 653.927 659.466C629.673 666.808 594.613 672.763 569.516 671.8C565.862 668.571 562.182 663.209 559.221 659.179C555.796 663.012 553.447 666.579 549.465 670.047C528.936 669.328 503.671 660.045 485.179 650.838C486.339 649.137 486.176 648.714 487.733 648.166C490.948 648.846 492.522 650.026 495.46 651.119C512.285 657.38 531.26 662.652 548.998 664.452C552.604 658.852 555.376 653.632 558.685 647.914C562.003 653.646 566.378 662.411 571.98 665.772Z"/><path fill="#DEAF89" d="M452.284 369.162C463.161 344.55 483.541 313.189 505.241 297.498C530.296 279.208 561.605 271.651 592.244 276.499C620.914 281.146 653.594 299.893 670.683 323.477C671.509 327.396 673.681 332.246 675.187 336.063C678.796 345.207 683.911 356.352 685.335 366.106L686.208 367.862C686.724 371.743 688.373 381.609 687.875 384.963C670.913 369.811 658.267 351.791 637.795 340.909C615.691 329.159 599.915 332.465 577.467 339.299C566.236 343.858 550.684 351.746 539.859 342.334C520.473 333.302 509.833 331.8 492.483 346.991C480.082 357.849 452.067 400.2 436.562 401.773L435.738 401.36C435.312 399.769 435.699 398.395 436.57 397.042C442.123 388.419 446.891 377.795 452.284 369.162Z"/><path fill="#FEFEFE" d="M452.284 369.162C456.139 367.426 461.307 361.956 464.472 358.836C481.89 341.672 509.774 308.942 534.609 334.243C536.86 336.536 538.937 339.187 539.859 342.334C520.473 333.302 509.833 331.8 492.483 346.991C480.082 357.849 452.067 400.2 436.562 401.773L435.738 401.36C435.312 399.769 435.699 398.395 436.57 397.042C442.123 388.419 446.891 377.795 452.284 369.162Z"/><path fill="#FEFEFE" d="M577.467 339.299C578.034 336.408 583.022 332.633 585.456 331.046C619.761 308.693 655.996 335.679 679.494 360.725C681.146 362.487 683.509 364.588 685.335 366.106L686.208 367.862C686.724 371.743 688.373 381.609 687.875 384.963C670.913 369.811 658.267 351.791 637.795 340.909C615.691 329.159 599.915 332.465 577.467 339.299Z"/><path fill="#DEAF89" d="M517.949 421.373C528.845 411.826 536.954 398.231 553.213 397.446C568.684 396.699 580.586 408.723 590.979 418.464C611.811 435.674 625.958 438.642 652.715 440.081C676.255 440.006 687.231 438.888 709.937 431.755C685.526 464.205 652.329 470.124 614.272 475.849C578.689 481.203 539.422 481.044 504.597 471.582C500.541 470.48 491.33 467.675 487.85 465.835C486.217 465.507 482.931 463.997 481.211 463.244C468.346 457.681 456.883 449.318 447.659 438.765C450.161 439.15 452.676 439.452 455.199 439.672C478.373 441.749 499.857 436.447 517.949 421.373Z"/><path fill="#FEFEFE" d="M517.949 421.373C528.845 411.826 536.954 398.231 553.213 397.446C568.684 396.699 580.586 408.723 590.979 418.464C591.03 422.641 591.452 430.477 589.696 434.018C588.831 435.898 589.46 435.201 587.898 436.316C586.381 436.074 584.135 435.219 582.75 436.038C575.778 440.161 577.135 466.705 556.198 463.91C551.368 463.266 547.407 461.113 544.531 457.149C542.635 454.535 541.2 451.216 539.975 448.235C534.905 448.376 533.207 448.97 530.474 444.113C521.033 442.761 517.959 429.284 517.949 421.373Z"/><path d="M540.783 437.391C506.757 423.309 544.593 398.741 559.883 419.909C566.285 428.773 544.561 436.013 547.489 441.293C549.683 442.559 552.492 442.622 554.983 442.674C566.919 442.925 572.631 438.345 580.575 430.665C578.655 429.984 577.706 430.011 577.021 428.04L577.676 426.992C583.547 424.283 587.575 429.253 589.696 434.018C588.831 435.898 589.46 435.201 587.898 436.316C586.381 436.074 584.135 435.219 582.75 436.038C575.778 440.161 577.135 466.705 556.198 463.91C551.368 463.266 547.407 461.113 544.531 457.149C542.635 454.535 541.2 451.216 539.975 448.235C534.905 448.376 533.207 448.97 530.474 444.113C533.449 443.04 539.134 442.937 542.395 442.778L540.783 437.391Z"/><path fill="#7A4524" d="M532.678 419.917C538.024 415.218 545.186 416.439 551.432 418.133C561.562 425.823 549.419 430.276 542.729 432.795C535.624 429.973 531.396 428.362 532.678 419.917Z"/><path fill="#60341B" d="M551.432 418.133C561.562 425.823 549.419 430.276 542.729 432.795C535.624 429.973 531.396 428.362 532.678 419.917C537.684 430.938 548.174 428.239 551.432 418.133Z"/><path fill="#DF6863" d="M570.71 446.492C571.139 446.576 570.824 446.477 571.84 447.018C572.452 450.398 567.138 455.403 564.436 456.962C559.599 459.752 556.367 459.441 551.268 458.027C551.09 455.037 553.906 451.375 556.743 450.299C560.029 451.045 556.32 450.963 558.674 452.745C564.094 450.449 563.085 448.713 570.71 446.492Z"/><path fill="#B3845A" d="M652.715 440.081C676.255 440.006 687.231 438.888 709.937 431.755C685.526 464.205 652.329 470.124 614.272 475.849C578.689 481.203 539.422 481.044 504.597 471.582C500.541 470.48 491.33 467.675 487.85 465.835C492.723 465.277 501.47 469.011 505.68 469.768C511.797 470.868 546.705 475.113 550.352 473.111C554.449 473.492 557.718 474.125 561.591 472.679L561.781 473.351C564.731 474.382 577.095 472.652 580.829 472.227C610.025 468.902 636.622 460.009 659.236 440.739C656.596 440.652 655.344 440.614 652.715 440.081Z"/><path d="M550.352 473.111C549.725 470.697 549.506 471.367 550.341 469.545C553.608 467.353 559.875 469.479 561.591 472.679C557.718 474.125 554.449 473.492 550.352 473.111Z"/><path fill="#FEFEFE" d="M677.318 572.243C678.998 569.855 680.419 567.899 682.251 565.608C685.356 572.944 686.003 580.276 688.433 587.813C692.022 598.94 696.56 609.859 700.947 620.698C691.04 627.204 683.064 631.962 672.212 637.02C637.766 652.717 611.043 657.146 573.409 660.581C567.599 652.239 561.762 644.159 559.644 634.048C557.271 622.725 556.092 611.305 554.768 599.825C560.341 603.542 565.822 606.355 572.434 607.71C586.606 610.615 602.894 606.537 605.849 590.194C605.49 587.194 605.385 584.467 605.25 581.454L609.124 577.513C623.218 577.613 633.531 577.377 647.505 574.711C659.34 582.048 665.456 575.621 677.318 572.243Z"/><path fill="#D2D0CE" d="M677.318 572.243C678.998 569.855 680.419 567.899 682.251 565.608C685.356 572.944 686.003 580.276 688.433 587.813C692.022 598.94 696.56 609.859 700.947 620.698C691.04 627.204 683.064 631.962 672.212 637.02C672.696 634.615 673.058 632.188 673.298 629.747C674.582 615.83 671.688 600.284 662.594 589.288C651.179 586.391 618.473 588.501 605.849 590.194C605.49 587.194 605.385 584.467 605.25 581.454L609.124 577.513C623.218 577.613 633.531 577.377 647.505 574.711C659.34 582.048 665.456 575.621 677.318 572.243Z"/><path fill="#FEFEFE" d="M676.905 465.517L681.95 468.895C695.476 479.473 702.251 491.333 709.719 506.562C722.039 532.865 710.942 548.464 686.399 559.162C685.081 559.74 683.751 560.291 682.411 560.816C682.117 556.056 681.876 551.306 681.31 546.571C678.756 535.902 675.115 527.297 667.23 519.443C664.91 517.132 659.156 514.125 660.387 510.896C662.848 509.239 665.492 509.487 668.7 508.127L668.933 507.286C666.312 504.237 662.34 505.423 658.73 505.891L658.467 505.446L658.02 504.712C656.588 502.34 656.302 501.093 653.456 500.652L652.632 501.437C651.987 504.73 653.497 506.243 655.289 509.09C647.115 506.67 645.481 506.884 640.392 513.489C631.524 515.762 629.126 517.577 627.383 527.077C620.452 530.665 613.432 534.078 606.328 537.311C606.737 528.284 605.439 525.459 599.515 518.761C598.717 518.357 595.944 516.247 595.063 515.606C619.434 502.789 631.04 494.727 649.735 474.784C660.291 471.726 666.79 469.758 676.905 465.517Z"/><path fill="#D2D0CE" d="M709.719 506.562C722.039 532.865 710.942 548.464 686.399 559.162C685.081 559.74 683.751 560.291 682.411 560.816C682.117 556.056 681.876 551.306 681.31 546.571C693.564 540.936 706.115 531.727 708.938 517.521C709.517 514.606 709.288 510.269 709.661 507.033L709.719 506.562Z"/><path fill="#D2D0CE" d="M676.905 465.517L681.95 468.895C669.551 478.957 657.909 480.212 644.325 487.338C639.522 489.857 634.641 496.284 630.271 499.63C620.595 507.476 610.56 513.176 599.515 518.761C598.717 518.357 595.944 516.247 595.063 515.606C619.434 502.789 631.04 494.727 649.735 474.784C660.291 471.726 666.79 469.758 676.905 465.517Z"/><path fill="#D2D0CE" d="M514.386 537.703C523.177 537.11 534.975 537.008 543.186 534.179C545.704 533.311 553.609 525.674 556.72 522.672C568.177 511.617 599.909 513.519 601.834 532.139C603.763 550.804 569.375 550.133 558.098 544.661C553.434 542.921 547.702 541.435 542.811 541.627C536.439 542.486 531.099 549.794 524.939 550.928C505.932 554.404 486.641 556.845 467.469 559.282C449.583 561.555 431.651 564.52 413.616 565.009C399.115 565.401 388.23 560.284 379.674 548.623C416.246 547.178 453.428 541.471 490.033 539.442C495.808 539.122 501.711 538.47 507.48 538.357C509.475 538.026 512.307 537.878 514.386 537.703Z"/><path d="M575.476 520.679C597.598 518.847 605.934 541.401 575.36 543.784C569.924 543.563 563.872 543.217 559.156 540.144C554.861 537.346 554.518 532.249 557.542 528.29C561.851 522.648 568.898 521.663 575.476 520.679Z"/><path fill="#FEFEFE" d="M572.573 525.559C578.808 525.17 589.842 525.418 591.202 533.51C589.066 538.08 581.371 533.685 577.449 532.691L576.871 532.549C570.538 533.285 569.257 533.929 564.718 538.494C553.732 531.107 565.804 527.378 572.573 525.559Z"/><path fill="#B3845A" d="M574.408 537.527C576.327 537.494 577.871 537.375 579.393 538.461L578.513 538.989C576.911 539.011 574.055 539.325 573.107 538.49L574.408 537.527Z"/><path d="M508.429 539.395C510.227 538.624 512.278 538.706 514.008 539.618C516.687 541.031 518.031 544.111 517.245 547.036C516.459 549.961 513.751 551.952 510.725 551.83C507.698 551.709 505.159 549.508 504.609 546.53C504.06 543.551 505.646 540.589 508.429 539.395Z"/><path fill="#D2D0CE" d="M509.566 543.229C510.67 542.511 512.146 542.805 512.892 543.89C513.638 544.976 513.383 546.459 512.316 547.233C511.602 547.751 510.662 547.841 509.863 547.468C509.063 547.094 508.528 546.316 508.467 545.436C508.405 544.555 508.826 543.711 509.566 543.229Z"/><path fill="#FEFEFE" d="M525.973 560.792C546.811 572.468 534.711 578.444 549.923 595.306C551.153 612.809 552.845 624.6 555.77 642.068C552.284 647.732 549.168 653.551 545.973 659.382C535.618 657.358 525.33 655.006 515.124 652.329C503.939 649.314 493.131 645.043 482.906 639.6L484.38 633.009C492.112 634.704 500.234 636.692 508.106 637.241C511.056 630.421 514.018 616.734 515.698 609.295C519.255 593.156 522.681 576.987 525.973 560.792Z"/><path fill="#8D5531" d="M622.002 535.265C624.707 533.755 633.518 529.236 636.118 529.7C640.693 531.824 642.803 534.664 645.228 539.021C651.489 548.441 651.702 557.749 651.475 568.645C634.712 572.637 624.667 572.906 607.511 572.999C595.878 583.879 593.038 586.39 576.414 585.252C580.099 584.291 584.429 583.672 586.67 580.549C583.642 579.005 582.062 579.754 578.784 580.471C576.926 579.093 575.736 579.825 574.72 578.02L575.266 576.676C577.172 576.061 578.081 575.791 578.364 573.655C574.75 570.18 561.087 576.267 560.176 568.108C562.891 565.147 570.224 567.45 574.535 565.423C572.792 562.749 562.912 561.43 559.085 560.513C562.032 556.711 564.213 555.228 568.042 552.497C586.423 554.557 593.334 550.795 608.618 541.64C611.774 539.749 618.398 536.868 622.002 535.265Z"/><path fill="#7A4524" d="M645.228 539.021C651.489 548.441 651.702 557.749 651.475 568.645C634.712 572.637 624.667 572.906 607.511 572.999C595.878 583.879 593.038 586.39 576.414 585.252C580.099 584.291 584.429 583.672 586.67 580.549C589.342 581.695 598.076 576.79 600.73 574.36C608.367 567.365 623.213 567.477 633.311 565.065C639.651 563.55 642.371 563.033 648.935 560.745C647.584 554.414 645.471 545.319 645.228 539.021Z"/><path fill="#B3845A" d="M622.002 535.265C624.707 533.755 633.518 529.236 636.118 529.7C639.049 534.777 640.27 536.506 642.189 542.224C640.032 545.22 637.976 548.41 634.032 548.695C625.296 549.325 623.271 541.458 622.002 535.265Z"/><path fill="#DEAF89" d="M764.508 453.767C782.308 436.995 804.888 430.401 828.611 438.77C838.815 442.37 843.594 448.624 847.912 458.155C850.741 478.076 840.357 480.334 829.684 493.764C826.767 488.852 824.004 484.993 820.698 480.348C804.794 461.202 788.655 455.071 764.508 453.767Z"/><path fill="#B3845A" d="M847.912 458.155C850.741 478.076 840.357 480.334 829.684 493.764C826.767 488.852 824.004 484.993 820.698 480.348C824.115 477.772 828.1 473.289 831.531 470.213C837.185 465.143 841.642 462.209 847.912 458.155Z"/><path fill="#D2D0CE" d="M406.789 452.596C420.965 451.778 433.139 456.157 443.736 465.571C468.407 487.489 496.118 509.485 519.414 532.743L512.621 533.376L497.217 534.192L400.008 454.111L406.789 452.596Z"/><path fill="#DEAF89" d="M748.189 487.628C749.365 487.482 750.542 487.352 751.722 487.239C773.735 485.057 789.605 491.524 806.357 505.187C811.814 509.874 816.141 514.469 820.037 520.583C819.211 528.223 818.717 538.142 817.36 545.369C811.64 537.994 807.561 534.2 800.351 528.085C783.5 516.013 767.399 512.271 747.11 514.629C747.334 505.503 747.531 496.745 748.189 487.628Z"/><path fill="#B3845A" d="M806.357 505.187C811.814 509.874 816.141 514.469 820.037 520.583C819.211 528.223 818.717 538.142 817.36 545.369C811.64 537.994 807.561 534.2 800.351 528.085C801.731 525.367 805.68 508.664 806.357 505.187Z"/><path fill="#FEFEFE" d="M490.232 473.091C495.485 474.44 500.878 476.222 506.03 477.466C509.65 485.425 512.688 492.399 517.809 499.603C521.101 504.233 525.79 508.977 528.812 513.521C529.813 513.999 530.269 514.132 531.335 514.463C533.491 513.714 545.177 498.615 548.803 495.164L552.153 500.374C554.185 505.875 552.85 514.183 550.694 519.579C549.241 523.217 545.27 527.242 542.551 530.18C536.962 531.639 531.449 531.747 525.721 532.574C517.044 524.481 507.446 516.269 499.133 507.976C500.042 503.678 501.002 501.524 499.444 497.493L498.572 496.761C495.946 497.685 495.512 501.621 495.007 504.138C487.918 498.029 479.01 490.591 472.257 484.201C478.528 479.823 483.302 476.55 490.232 473.091Z"/><path fill="#D2D0CE" d="M548.803 495.164L552.153 500.374C545.084 503.55 531.457 527.465 528.812 513.521C529.813 513.999 530.269 514.132 531.335 514.463C533.491 513.714 545.177 498.615 548.803 495.164Z"/><path fill="#E34A45" d="M401.836 568.461C409.172 569.888 415.071 570.044 422.557 569.428L428.28 578.029L429.881 579.912C430.771 581.082 431.692 582.256 432.528 583.463C436.326 588.75 436.599 592.678 439.284 598.372L432.36 606.612L436.593 619.65C422.867 616.863 408.411 613.493 394.756 611.036C398.31 608.416 402.449 605.518 405.867 602.802C403.957 601.951 403.91 602.045 402.553 600.542L393.163 607.139L399.831 575.97L401.836 568.461Z"/><path fill="#E34A45" d="M426.457 587.518L432.528 583.463C436.326 588.75 436.599 592.678 439.284 598.372L432.36 606.612L436.593 619.65C422.867 616.863 408.411 613.493 394.756 611.036C398.31 608.416 402.449 605.518 405.867 602.802C408.468 601.19 411.061 599.202 413.546 597.389C417.284 595.098 423.168 590.301 426.457 587.518Z"/><path fill="#BA3633" d="M401.836 568.461C409.172 569.888 415.071 570.044 422.557 569.428L428.28 578.029C421.223 576.94 407.799 576.716 399.831 575.97L401.836 568.461Z"/><path d="M422.568 585.693C424.292 586.838 424.493 587.081 426.457 587.518C423.168 590.301 417.284 595.098 413.546 597.389C412.694 596.439 412.16 595.145 411.552 593.967C414.97 591.208 419.012 588.34 422.568 585.693Z"/><path fill="#302120" d="M402.553 600.542L411.552 593.967C412.16 595.145 412.694 596.439 413.546 597.389C411.061 599.202 408.468 601.19 405.867 602.802C403.957 601.951 403.91 602.045 402.553 600.542Z"/><path fill="#302120" d="M429.881 579.912C430.771 581.082 431.692 582.256 432.528 583.463L426.457 587.518C424.493 587.081 424.292 586.838 422.568 585.693C425.464 583.614 427.233 582.276 429.881 579.912Z"/><defs><linearGradient id="gradient_1" gradientUnits="userSpaceOnUse" x1="798.95734" y1="536.27118" x2="746.01501" y2="535.67188"><stop offset="0" stop-color="#74401E"/><stop offset="1" stop-color="#985E36"/></linearGradient></defs><path fill="url(#gradient_1)" d="M747.082 517.171C767.317 514.426 784.095 519.572 800.258 531.691C798.101 541.207 795.942 548.148 793.547 557.271C777.098 542.552 766.485 540.333 744.947 540.53C746.198 532.923 746.637 524.857 747.082 517.171Z"/><path fill="#E34A45" d="M512.857 566.513C514.933 565.012 517.985 562.742 520.479 562.317L521.01 562.906L520.746 564.358C516.856 586.34 510.002 608.53 506.607 630.135L504.202 626.509C498.525 620.193 483.455 594.614 478.896 586.392C488.896 580.131 502.617 572.351 512.857 566.513Z"/><path fill="#BA3633" d="M478.896 586.392C488.896 580.131 502.617 572.351 512.857 566.513L513.374 569.06C506.016 574.524 490.821 583.715 482.348 588.653C487.498 596.51 503.494 618.822 504.202 626.509C498.525 620.193 483.455 594.614 478.896 586.392Z"/><path fill="#C14846" d="M512.857 566.513C514.933 565.012 517.985 562.742 520.479 562.317L521.01 562.906L520.746 564.358C517.314 565.846 516.195 567.509 513.374 569.06L512.857 566.513Z"/><path fill="#7A4524" d="M791.094 461.432C802.495 466.585 810.787 473.196 818.854 482.608C822.293 486.496 825.384 491.764 828.052 496.221C823.808 504.225 822.648 508.013 820.635 516.915C815.869 510.501 813.488 507.641 807.446 502.37C796.808 494.31 789.665 489.524 776.69 486.29C779.82 476.682 785.196 469.557 791.094 461.432Z"/><path fill="#60341B" d="M818.854 482.608C822.293 486.496 825.384 491.764 828.052 496.221C823.808 504.225 822.648 508.013 820.635 516.915C815.869 510.501 813.488 507.641 807.446 502.37C811.204 495.496 814.936 489.345 818.854 482.608Z"/><path fill="#FEFEFE" d="M581.228 484.112C602.889 482.715 620.531 480.313 641.91 476.289C637.721 480.57 633.686 484.513 628.946 488.184C620.974 495.143 614.075 498.763 605.629 504.26C578.801 521.722 586.109 506.631 573.003 493.101C572.619 492.86 572.872 493.057 572.498 492.283C573.592 490.067 579.189 485.749 581.228 484.112Z"/><path fill="#D2D0CE" d="M581.228 484.112C602.889 482.715 620.531 480.313 641.91 476.289C637.721 480.57 633.686 484.513 628.946 488.184C625.904 486.472 598.334 491.953 592.544 492.04C589.125 492.092 576.142 492.446 573.003 493.101C572.619 492.86 572.872 493.057 572.498 492.283C573.592 490.067 579.189 485.749 581.228 484.112Z"/><path fill="#DEAF89" d="M744.371 543.038C764.969 542.655 777.261 545.884 792.488 560.247C789.332 566.776 782.427 581.805 778.192 586.579C777.752 585.907 777.307 585.238 776.858 584.571C767.3 570.396 756.28 562.468 739.532 559.182C741.711 553.435 742.942 548.926 744.371 543.038Z"/><path fill="#E34A45" d="M474.931 588.783C475.442 589.469 477.102 591.607 477.469 592.228L502.675 631.875C490.419 629.771 473.434 625.285 461.806 624.197C460.635 625.204 459.657 626.067 458.55 627.143L455.711 617.975L461.451 608.501L458.333 601.642C457.478 600.259 456.509 597.795 455.837 596.238C460.987 595.069 464.017 594.613 468.777 592.27L474.931 588.783Z"/><path fill="#C14846" d="M468.777 592.27C469.852 592.997 470.936 593.674 471.906 594.534C467.427 596.458 461.959 598.452 458.333 601.642C457.478 600.259 456.509 597.795 455.837 596.238C460.987 595.069 464.017 594.613 468.777 592.27Z"/><path fill="#BA3633" d="M474.931 588.783C475.442 589.469 477.102 591.607 477.469 592.228C475.141 593.02 474.082 593.412 471.906 594.534C470.936 593.674 469.852 592.997 468.777 592.27L474.931 588.783Z"/><path fill="#7A4524" d="M738.438 561.77C747.137 563.36 749.665 564.058 757.051 568.784C766.369 574.967 769.902 579.295 776.126 588.745C771.329 596.132 764.466 601.946 756.391 605.462C751.468 595.04 747.79 590.421 739.01 582.903C735.657 581.086 732.214 579.318 728.833 577.543C732.49 572.116 735.191 567.445 738.438 561.77Z"/><path fill="#8D5531" d="M738.438 561.77C747.137 563.36 749.665 564.058 757.051 568.784C753.125 575.262 747.583 584.318 739.01 582.903C735.657 581.086 732.214 579.318 728.833 577.543C732.49 572.116 735.191 567.445 738.438 561.77Z"/><path fill="#B3845A" d="M670.683 323.477C681.095 333.333 693.143 357.687 701.059 370.176C707.441 380.243 714.056 389.002 721.135 398.541C717.686 400.379 715.992 401.698 712.092 401.445C702.088 396.643 695.541 392.928 687.875 384.963C688.373 381.609 686.724 371.743 686.208 367.862L685.335 366.106C683.911 356.352 678.796 345.207 675.187 336.063C673.681 332.246 671.509 327.396 670.683 323.477Z"/><path fill="#D2D0CE" d="M686.208 367.862C696.537 375.916 702.519 384.651 711.691 393.499C711.957 396.453 712.085 398.451 712.092 401.445C702.088 396.643 695.541 392.928 687.875 384.963C688.373 381.609 686.724 371.743 686.208 367.862Z"/><path fill="#B3845A" d="M792.488 560.247C801.164 569.343 803.813 574.169 809.01 585.702C802.765 600.137 798.378 606.47 787.664 618.027C786.381 605.375 784.431 597.897 778.192 586.579C782.427 581.805 789.332 566.776 792.488 560.247Z"/><path fill="#E34A45" d="M511.452 558.32C513.745 558.131 513.761 557.76 515.509 558.615C515.243 561.548 506.859 565.474 504.324 566.839L500.923 568.728C488.431 576.266 470.14 587.821 456.598 591.827C458.088 589.018 458.63 588.046 460.586 585.476C459.985 583.548 459.347 581.295 458.672 579.422C457.828 577.405 457.614 576.627 457.125 574.489L457.53 573.876C458.954 570.94 462.147 567.327 464.288 564.788C468.739 563.459 477.534 562.578 482.334 561.968L511.452 558.32Z"/><path fill="#BA3633" d="M511.452 558.32C513.745 558.131 513.761 557.76 515.509 558.615C515.243 561.548 506.859 565.474 504.324 566.839L500.923 568.728L498.365 564.911C486.248 567.734 474.56 569.47 463.001 572.065C461.214 572.686 459.347 573.392 457.53 573.876C458.954 570.94 462.147 567.327 464.288 564.788C468.739 563.459 477.534 562.578 482.334 561.968L511.452 558.32Z"/><path fill="#C14846" d="M511.452 558.32C513.745 558.131 513.761 557.76 515.509 558.615C515.243 561.548 506.859 565.474 504.324 566.839C504.07 565.747 503.777 564.68 503.489 563.596C507.418 562.045 508.548 561.364 511.452 558.32Z"/><path fill="#E34A45" d="M503.489 563.596C503.777 564.68 504.07 565.747 504.324 566.839L500.923 568.728L498.365 564.911C500.075 564.56 501.799 564.058 503.489 563.596Z"/><path fill="#C14846" d="M457.53 573.876C459.347 573.392 461.214 572.686 463.001 572.065C461.991 573.92 459.937 577.992 458.672 579.422C457.828 577.405 457.614 576.627 457.125 574.489L457.53 573.876Z"/><path fill="#8D5531" d="M762.178 456.494C773.97 456.358 780.114 457.421 791.094 461.432C785.196 469.557 779.82 476.682 776.69 486.29C767.652 483.321 758.263 484.022 748.963 484.556C751.423 473.046 755.063 465.67 762.178 456.494Z"/><path fill="#DEAF89" d="M475.953 305.741C474.235 291.582 475.92 262.596 483.434 250.799C491.528 238.09 516.202 257.28 524.015 263.335C521.687 265.848 519.129 268.164 516.118 269.832C509.839 265.103 491.933 249.193 487.153 262.62C483.077 274.07 483.208 287.222 483.549 299.236C481.154 301.427 478.611 303.916 475.953 305.741Z"/><path fill="#60341B" d="M776.126 588.745C782.629 600.536 784.409 606.73 785.085 620.176C776.095 627.577 771.469 630.184 761.019 635.16C760.91 622.899 760.733 617.232 756.391 605.462C764.466 601.946 771.329 596.132 776.126 588.745Z"/><path fill="#B3845A" d="M753.95 607.015C758.18 618.656 758.626 623.945 758.504 636.09C748.805 639.256 741.465 641.094 731.065 641.71C733.095 631.514 734.14 625.182 731.923 614.645C737.702 612.729 749.314 610.357 753.95 607.015Z"/><path fill="#FEFEFE" d="M491.23 266.301C491.872 264.124 491.418 264.594 492.874 263.176C500.292 260.823 515.609 276.772 520.676 281.806C516.604 283.879 512.599 286.083 508.669 288.414C500.856 293.743 496.21 297.637 489.201 303.922C487.276 291.468 488.95 278.571 491.23 266.301Z"/><path fill="#D2D0CE" d="M491.23 266.301C491.872 264.124 491.418 264.594 492.874 263.176C500.292 260.823 515.609 276.772 520.676 281.806C516.604 283.879 512.599 286.083 508.669 288.414C506.786 278.133 502.814 268.359 491.23 266.301Z"/><path fill="#DEAF89" d="M604.978 273.157C613.755 262.7 642.982 233.829 656.914 243.209C657.38 247.051 659.782 261.809 657.726 264.462C657.132 261.744 655.688 255.196 653.901 253.801C644.618 246.555 622.838 272.045 617.934 277.216L604.978 273.157Z"/><path fill="#8D5531" d="M493.333 730.361C502.701 731.095 508.19 731.506 517.632 731.068C517.626 735.198 517.949 745.352 516.74 748.809C513.701 750.958 508.249 750.865 504.345 751.157C499.337 752.617 479.015 752.465 473.488 752.399C475.486 750.44 476.108 749.769 478.473 748.333C480.524 747.249 482.8 746.277 484.335 744.615L484.248 743.889C476.109 741.46 473.973 746.868 467.702 749.96C475.262 740.844 484.955 740.019 496.245 736.71L493.333 730.361Z"/><path fill="#7A4524" d="M478.473 748.333C482.117 753.155 500.691 744.123 510.732 747.358C513.344 748.283 513.998 748.464 516.74 748.809C513.701 750.958 508.249 750.865 504.345 751.157C499.337 752.617 479.015 752.465 473.488 752.399C475.486 750.44 476.108 749.769 478.473 748.333Z"/><path fill="#60341B" d="M510.732 747.358C513.344 748.283 513.998 748.464 516.74 748.809C513.701 750.958 508.249 750.865 504.345 751.157C506.627 749.026 507.941 748.599 510.732 747.358Z"/><path fill="#DEAF89" d="M716.929 589.249L726.858 579.768C741.278 585.469 747.552 593.176 753.95 607.015C749.314 610.357 737.702 612.729 731.923 614.645C729.229 602.356 726.221 597.47 716.929 589.249Z"/><path fill="#FEFEFE" d="M623.388 279.459C630.617 270.647 639.831 261.661 650.139 256.689C651.177 259.153 651.629 261.003 652.309 263.557C654.597 275.29 654.166 285.824 652.624 297.654C647.171 293.041 639.314 287.502 632.902 284.032C629.755 282.599 626.514 280.971 623.388 279.459Z"/><path fill="#D2D0CE" d="M623.388 279.459C630.617 270.647 639.831 261.661 650.139 256.689C651.177 259.153 651.629 261.003 652.309 263.557C643.219 267.534 636.354 274.638 632.902 284.032C629.755 282.599 626.514 280.971 623.388 279.459Z"/><path fill="#8D5531" d="M688.005 734.42C700.05 733.107 702.555 732.717 713.64 727.795C714.56 731.255 715.046 732.703 716.454 735.991C720.91 738.892 733.468 746.097 734.02 751.55L733.465 751.882C729.578 750.174 727.606 746.137 723.553 746.083C723.424 748.757 728.77 751.893 729.554 754.682C728.066 756.635 725.084 757.196 722.946 756.028C720.691 753.292 718.168 749.073 714.921 748.537L713.713 748.906C713.045 751.048 717.626 754.986 719.141 756.874C707.702 753.9 702.907 752.658 695.009 742.903C692.74 740.451 690.151 737.074 688.005 734.42Z"/><path fill="#7A4524" d="M688.005 734.42C700.05 733.107 702.555 732.717 713.64 727.795C714.56 731.255 715.046 732.703 716.454 735.991C712.919 737.313 696.392 742.217 695.009 742.903C692.74 740.451 690.151 737.074 688.005 734.42Z"/><path fill="#60341B" d="M800.258 531.691C807.329 537.108 811.9 542.086 816.714 549.654C815.946 562.435 813.769 569.664 810.441 581.902C805.388 571.775 801.714 565.323 793.547 557.271C795.942 548.148 798.101 541.207 800.258 531.691Z"/><path fill="#D2D0CE" d="M540.145 555.703C545.147 561.34 553.414 560.602 554.425 566.107C553.231 569.725 550.826 571.296 549.299 576.023C552.725 585.552 558.749 591.505 567.678 596.182C574.678 599.849 587.834 601.354 592.589 593.492C593.153 589.769 597.33 584.312 601.059 587.087C601.789 588.859 601.304 590.166 600.956 592.097C590.694 614.41 552.936 601.861 546.487 582.428C542.251 569.664 544.949 568.526 532.947 559.677C535.367 557.894 537.458 557.004 540.145 555.703Z"/><path fill="#9D9B9C" d="M592.589 593.492C593.153 589.769 597.33 584.312 601.059 587.087C601.789 588.859 601.304 590.166 600.956 592.097C597.846 592.001 595.515 592.363 592.589 593.492Z"/><path fill="#B3845A" d="M656.914 243.209C669.244 257.402 669.696 294.533 669.515 313.206L657.249 301.059C659.061 290.856 659.77 274.825 657.726 264.462C659.782 261.809 657.38 247.051 656.914 243.209Z"/><path fill="#FEFEFE" d="M511.853 478.625C520.538 480.669 532.637 482.144 541.673 483.164C543.173 485.487 545.009 487.941 545.772 490.535C545.371 492.156 545.786 491.486 544.392 492.551C538.313 497.886 535.611 501.869 531.362 508.695C525.496 502.555 518.936 492.983 515.083 485.468C513.957 483.19 512.821 480.976 511.853 478.625Z"/><path fill="#D2D0CE" d="M511.853 478.625C520.538 480.669 532.637 482.144 541.673 483.164C543.173 485.487 545.009 487.941 545.772 490.535C545.371 492.156 545.786 491.486 544.392 492.551C542.644 490.917 517.985 485.446 515.083 485.468C513.957 483.19 512.821 480.976 511.853 478.625Z"/><path fill="#60341B" d="M710.975 613.695C716.344 614.848 723.907 616.662 729.374 615.007C730.625 627.117 730.667 629.481 728.187 641.656C721.717 641.503 715.275 640.737 708.948 639.369C711.99 628.964 712.288 624.632 710.975 613.695Z"/><path fill="#FEFEFE" d="M441.368 518.062C439.297 517.62 434.596 517.044 433.572 515.248C435.554 511.975 439.779 512.267 443.011 512.87C453.898 514.898 460.681 520.293 466.764 529.336C464.846 530.76 464.553 530.912 462.277 531.637C460.219 528.834 456.882 524.056 453.004 524.054L452.671 524.873C453.31 526.929 454.702 528.157 456.16 529.803C453.79 531.719 453.686 531.632 450.583 531.454C429.389 519.385 424.896 533.225 420.847 532.337C420.558 531.576 420.479 531.302 420.65 530.457C423.24 517.629 435.382 521.014 445.494 522.92L441.368 518.062Z"/><path fill="#FEFEFE" d="M656.358 556.324C654.552 547.429 652.477 539.091 646.607 531.914C644.335 529.136 639.98 524.608 636.373 524.565C635.022 524.549 634.576 524.391 633.284 523.994C633.278 521.845 637.492 518.447 639.347 518.539C654.252 519.278 663.333 541.824 664.801 552.563C661.62 555.176 660.439 555.602 656.358 556.324Z"/><path fill="#8D5531" d="M714.586 591.028C723.826 598.971 726.222 603.162 729.374 615.007C723.907 616.662 716.344 614.848 710.975 613.695C709.099 606.968 707.201 602.719 703.031 597.025C707.161 595.032 710.595 593.278 714.586 591.028Z"/><path fill="#D2D0CE" d="M676.372 548.587C676.774 555.743 677.535 560.908 674.49 567.661C666.902 570.608 662.333 572.238 654.213 573.83C657.248 566.689 656.806 564.062 656.358 556.324C660.439 555.602 661.62 555.176 664.801 552.563C664.989 554.98 664.918 557.172 665.994 559.287L666.732 559.403C667.888 557.409 667.591 554.801 667.582 552.428C671.364 552.155 673.42 550.814 676.372 548.587Z"/><path fill="#FEFEFE" d="M667.582 552.428C666.98 540.536 663.672 530.22 654.504 522.009C651.413 519.241 648.06 517.78 645.89 514.157L646.216 513.286C648.537 512.514 651.399 513.28 653.405 514.6C666.948 523.514 672.597 533.233 676.372 548.587C673.42 550.814 671.364 552.155 667.582 552.428Z"/><path fill="#FEFEFE" d="M558.996 503.885C562.162 500.441 564.518 497.97 568.45 495.347C571.132 498.331 578.195 507.063 578.696 510.888C577.163 511.799 576.75 511.438 574.628 511.431C566.421 512.605 564.386 513.007 556.769 516.427C557.208 512.618 557.951 507.508 558.996 503.885Z"/><path fill="#D2D0CE" d="M558.996 503.885C562.162 500.441 564.518 497.97 568.45 495.347C571.132 498.331 578.195 507.063 578.696 510.888C577.163 511.799 576.75 511.438 574.628 511.431C572.047 506.814 570.834 505.49 567.158 501.932C564.166 502.789 562.041 503.284 558.996 503.885Z"/><path fill="#B3845A" d="M700.289 604.454C699.394 602.403 698.63 601.258 698.905 599.107L699.605 598.644C703.563 600.31 706.956 607.96 707.869 612.057C709.252 616.559 711.444 639.445 703.456 637.306C700.628 634.739 699.941 631.929 698.748 628.374C710.515 621.092 704.537 614.866 700.289 604.454Z"/><path fill="#DEAF89" d="M700.289 604.454C699.394 602.403 698.63 601.258 698.905 599.107L699.605 598.644C703.563 600.31 706.956 607.96 707.869 612.057C706.776 612.495 707.187 612.349 705.88 612.242C704.202 610.743 704.576 609.641 704.099 606.874C703.259 605.407 701.923 605.133 700.289 604.454Z"/><path fill="#FEFEFE" d="M555.776 572.33C562.263 577.767 564.402 583.237 572.937 587.784C578.702 590.855 585.654 589.509 587.704 591.692L587.154 593.186C573.98 596.488 552.926 588.801 555.776 572.33Z"/><path fill="#B3845A" d="M524.015 263.335C528.27 266.5 533.564 271.496 537.696 275.092L525.468 279.217L516.118 269.832C519.129 268.164 521.687 265.848 524.015 263.335Z"/><path fill="#B3845A" d="M548.807 484.225C557.747 484.784 564.259 484.805 573.085 484.502C569.915 486.655 567.764 488.354 564.795 490.801C562.695 492.437 558.793 496.36 556.714 498.339C555.062 495.329 549.097 486.423 548.807 484.225Z"/><path fill="#D2D0CE" d="M474.376 521.117C480.018 525.655 485.625 530.237 491.196 534.863C486.193 535.189 479.927 535.423 475.042 536.029C473.333 531.129 472.049 528.126 469.214 523.711C471.839 522.931 472.278 522.839 474.376 521.117Z"/><path fill="#BA3633" d="M440.414 567.145C440.645 571.236 441.102 572.75 442.422 576.453C443.779 581.134 441.904 582.203 438.715 585.184C436.733 582.541 434.716 579.955 432.965 577.154C431.354 575.021 429.229 571.499 427.726 569.16C430.855 568.359 437.019 567.641 440.414 567.145Z"/><path fill="#E34A45" d="M432.965 577.154C435.752 573.64 438.826 575.148 442.422 576.453C443.779 581.134 441.904 582.203 438.715 585.184C436.733 582.541 434.716 579.955 432.965 577.154Z"/><path fill="#FEFEFE" d="M452.037 503.057C459.618 508.909 467.066 514.931 474.376 521.117C472.278 522.839 471.839 522.931 469.214 523.711C461.96 515.234 457.208 512.413 446.969 508.46L452.037 503.057Z"/><path fill="#8D5531" d="M432.365 531.546C440.424 531.373 443.677 532.747 449.532 538.223C447.142 538.419 444.607 538.478 442.199 538.579C439.116 538.462 428.739 536.36 425.06 535.679C427.862 533.707 429.295 533.041 432.365 531.546Z"/><path fill="#B3845A" d="M483.549 299.236L484.68 308.475L476.851 316.969C476.577 313.867 475.968 308.692 475.953 305.741C478.611 303.916 481.154 301.427 483.549 299.236Z"/><path fill="#FEFEFE" d="M542.994 545.852C544.791 546.034 547.227 546.508 549.064 546.807C549.061 549.473 549.553 554.722 547.559 556.422C544.715 554.638 541.142 552.318 540.734 548.772C541.416 546.786 541.196 547.407 542.994 545.852Z"/><path fill="#9D9B9C" d="M535.859 550.647C537.522 552.29 538.704 553.877 540.145 555.703C537.458 557.004 535.367 557.894 532.947 559.677C531.571 559.204 527.884 556.448 526.492 555.472C530.055 553.877 532.451 552.584 535.859 550.647Z"/><path fill="#D2D0CE" d="M456.16 529.803C457.819 532.02 459.877 534.103 459.596 536.843C456.74 539.282 452.675 534.04 451.068 532.055L450.583 531.454C453.686 531.632 453.79 531.719 456.16 529.803Z"/><path fill="#60341B" d="M564.967 577.191C568.614 576.966 571.6 576.277 575.266 576.676L574.72 578.02C575.736 579.825 576.926 579.093 578.784 580.471C572.894 582.263 569.712 580.265 564.967 577.191Z"/><path fill="#D2D0CE" d="M466.764 529.336C467.857 531.655 469.012 534.003 469.971 536.374L464.465 536.985L462.277 531.637C464.553 530.912 464.846 530.76 466.764 529.336Z"/><path fill="#FEFEFE" d="M554.472 548.946L561.928 551.045L557.613 554.197L554.234 558.465L554.472 548.946Z"/><path fill="#E34A45" d="M410.645 537.097C415.604 537.938 419.493 538.475 424.388 539.719L424.648 540.377L414.061 541.663L410.645 537.097Z"/><path d="M288.217 678.088C296.155 672.829 330.706 658.687 339.999 657.092C342.317 659.992 344.834 663.588 347.158 666.626L345.93 672.181C353.605 667.997 355.02 668.81 358.325 676.519C359.909 676.178 361.498 675.862 363.092 675.572C364.805 675.26 367.506 674.763 369.138 675.265C378.051 678.01 402.345 687.482 409.093 692.121C405.563 694.756 403.815 695.798 399.938 697.833C404.479 700.008 428.105 707.89 426.149 713.381C423.367 715.89 419.202 717.008 415.634 718.219C419.726 720.43 441.8 732.956 440.136 737.442C437.097 740.039 432.359 740.464 428.302 741.249C431.055 743.024 434.636 744.687 437.62 746.173C447.525 744.946 456.922 743.348 466.766 741.801C464.774 744.763 459.988 751.066 464.323 753.968C472.437 759.4 486.009 758.053 495.626 757.398C502.306 756.944 515.413 756.751 520.466 752.02C523.238 748.562 523.838 740.82 523.152 736.441C557.626 735.468 591.338 734.263 625.883 735.538C639.091 736.025 652.263 736.677 665.458 737.294C669.723 737.494 679.395 738.532 682.95 737.948L683.444 738.436C689 743.973 692.868 750.163 699.041 755.336C709.143 763.802 748.992 767.45 737.18 744.121C747.255 746.585 757.198 748.417 764.96 755.686C781.976 749.988 791.795 748.85 808.791 755.201C814.814 757.451 819.785 757.147 825.061 761.627C825.763 763.327 826.284 764.038 825.84 765.801C821.542 770.177 791.217 779.372 785.136 778.892C774.575 778.06 752.673 771.926 743.499 766.587C729.155 769.641 716.682 772.007 701.998 773.324C698.884 773.603 684.402 774.754 682.813 775.552L684.583 778.456C684.605 780.398 684.842 781.612 683.849 783.253C679.4 786.931 651.802 793.904 645.402 792.985C638.547 792 617.099 788.775 611.386 784.962C610.871 783.827 610.869 783.899 610.791 782.663L610.19 778.633C598.05 777.881 573.576 778.969 560.469 778.444C560.226 778.618 559.983 778.793 559.739 778.967L559.676 779.269C555.078 779.199 553.778 776.905 546.558 777.92C537.799 777.314 525.701 776.769 516.772 777.735C506.943 778.799 481.537 797.198 474.565 797.501C462.383 798.031 435.373 790.287 422.511 787.444C418.696 786.601 412.113 783.858 408.277 783.425C399.88 782.477 390.672 782.693 382.215 782.331C378.811 782.185 369.659 781.376 367.26 782.379C358.936 785.862 353.385 792.116 344.742 796.561C323.525 793.596 303.633 789.536 282.83 784.434C277.964 783.24 273.663 777.665 269.87 778.243C261.73 779.486 255.761 786.925 245.838 787.228C239.593 787.42 233.54 787.246 227.423 787.218L188.967 787.136L146.408 787.422C139.41 787.498 114.628 789.274 110.787 784.59C110.014 779.962 113.872 778.601 117.579 777.747C117.953 775.365 117.807 764.133 117.826 761.163L118.063 722.977C160.32 722.715 207.14 721.889 249.231 722.948C249.945 724.912 250.718 728.493 251.248 730.63C256.902 727.896 262.629 725.317 268.423 722.894C247.949 711.547 238.545 713.229 267.204 700.039C274.629 696.622 281.619 692.248 289.374 689.237C291.784 689.881 298.766 692.035 299.937 688.492C298.531 686.128 295.408 686.152 292.869 685.743C290.274 683.103 289.514 681.454 288.217 678.088ZM121.654 778.501L207.949 778.541L231.193 778.623C234.639 778.64 241.842 778.82 244.967 778.373C244.906 761.372 245.029 744.372 245.336 727.374L176.186 727.015C158.299 726.996 139.887 727.465 122.055 727.059C122.144 744.208 122.01 761.356 121.654 778.501Z"/><path fill="#9D9B9C" d="M523.152 736.441C557.626 735.468 591.338 734.263 625.883 735.538C639.091 736.025 652.263 736.677 665.458 737.294C669.723 737.494 679.395 738.532 682.95 737.948L683.444 738.436C689 743.973 692.868 750.163 699.041 755.336C709.143 763.802 748.992 767.45 737.18 744.121C747.255 746.585 757.198 748.417 764.96 755.686C781.976 749.988 791.795 748.85 808.791 755.201C814.814 757.451 819.785 757.147 825.061 761.627C825.763 763.327 826.284 764.038 825.84 765.801C821.542 770.177 791.217 779.372 785.136 778.892C774.575 778.06 752.673 771.926 743.499 766.587C729.155 769.641 716.682 772.007 701.998 773.324C698.884 773.603 684.402 774.754 682.813 775.552L684.583 778.456C684.605 780.398 684.842 781.612 683.849 783.253C679.4 786.931 651.802 793.904 645.402 792.985C638.547 792 617.099 788.775 611.386 784.962C610.871 783.827 610.869 783.899 610.791 782.663L610.19 778.633C598.05 777.881 573.576 778.969 560.469 778.444C560.226 778.618 559.983 778.793 559.739 778.967L559.676 779.269C555.078 779.199 553.778 776.905 546.558 777.92C537.799 777.314 525.701 776.769 516.772 777.735C506.943 778.799 481.537 797.198 474.565 797.501C462.383 798.031 435.373 790.287 422.511 787.444C418.696 786.601 412.113 783.858 408.277 783.425C399.88 782.477 390.672 782.693 382.215 782.331C378.811 782.185 369.659 781.376 367.26 782.379C358.936 785.862 353.385 792.116 344.742 796.561C323.525 793.596 303.633 789.536 282.83 784.434C277.964 783.24 273.663 777.665 269.87 778.243C261.73 779.486 255.761 786.925 245.838 787.228C239.593 787.42 233.54 787.246 227.423 787.218L188.967 787.136L146.408 787.422C139.41 787.498 114.628 789.274 110.787 784.59C110.014 779.962 113.872 778.601 117.579 777.747C117.459 779.941 117.249 780.592 118.227 782.15C123.355 784.276 184.595 782.412 195.123 782.903C211.906 783.685 246.954 783.689 262.319 779.167C261.902 777.032 261.57 774.619 261.22 772.449C268.931 772.9 274.953 773.009 282.589 772.647C280.889 774.193 279.324 775.176 279.279 777.553C283.307 781.299 335.593 790.722 344.319 792.288C349.676 787.339 355.653 780.79 360.813 775.447C373.562 775.815 386.442 776.997 399.202 777.524C404.805 777.755 410.79 778.091 416.281 779.118C421.715 784.54 422.465 783.639 430.011 785.019C444.533 787.673 458.931 791.207 473.462 793.802C484.971 788.01 496.325 781.917 507.514 775.53C509.568 774.342 513.225 772.668 513.803 770.518C511.649 766.302 461.492 761.18 455.008 762.663C449.772 763.861 434.705 770.633 428.912 773.146L426.673 765.43C432.533 764.242 450.904 761.443 453.733 756.495C451.848 752.774 441.692 748.273 437.62 746.173C447.525 744.946 456.922 743.348 466.766 741.801C464.774 744.763 459.988 751.066 464.323 753.968C472.437 759.4 486.009 758.053 495.626 757.398C502.306 756.944 515.413 756.751 520.466 752.02C523.238 748.562 523.838 740.82 523.152 736.441Z"/><path d="M610.19 778.633C622.147 777.66 638.608 766.212 651.431 767.819C661.757 769.113 672.04 773.569 682.356 775.472L682.813 775.552L684.583 778.456C684.605 780.398 684.842 781.612 683.849 783.253C679.4 786.931 651.802 793.904 645.402 792.985C638.547 792 617.099 788.775 611.386 784.962C610.871 783.827 610.869 783.899 610.791 782.663L610.19 778.633Z"/><path fill="#9D9B9C" d="M684.583 778.456C684.605 780.398 684.842 781.612 683.849 783.253C679.4 786.931 651.802 793.904 645.402 792.985C638.547 792 617.099 788.775 611.386 784.962C610.871 783.827 610.869 783.899 610.791 782.663C613.044 783.323 618.004 783.752 620.697 784.299C626.931 785.565 633.351 787.001 639.588 788.077C650.93 790.033 660.076 786.175 670.786 783.177C676.587 781.553 679.535 782.217 684.583 778.456Z"/><defs><linearGradient id="gradient_2" gradientUnits="userSpaceOnUse" x1="632.29907" y1="767.66516" x2="663.53607" y2="789.56989"><stop offset="0" stop-color="#E86561"/><stop offset="1" stop-color="#EC9681"/></linearGradient></defs><path fill="url(#gradient_2)" d="M648.108 772.072C656.597 773.2 665.421 775.61 673.869 777.503C665.922 779.911 657.104 782.079 649.026 784.224C640.456 783.454 631.1 781.767 622.618 780.21C630.946 776.994 639.458 774.276 648.108 772.072Z"/><path d="M764.96 755.686C781.976 749.988 791.795 748.85 808.791 755.201C814.814 757.451 819.785 757.147 825.061 761.627C819.573 765.904 797.338 772.847 790.39 774.505C781.608 776.6 754.13 767.037 746.387 761.963C752.21 758.351 758.373 757.15 764.96 755.686Z"/><path fill="#EC786D" d="M787.318 754.606C794.24 755.484 807.551 759.487 814.777 761.475C808.569 764.175 793.03 769.305 786.339 770.778C779.396 769.586 764.891 764.727 757.84 762.465C767.743 759.575 777.242 756.816 787.318 754.606Z"/><path d="M208.331 738.538C209.286 738.51 212.03 738.374 212.66 738.811C216.417 741.41 219.541 751.82 221.234 756.201C223.537 749.753 225.291 745.207 228.01 738.965C230.105 738.851 232.398 738.926 234.512 738.949C234.604 748.303 234.591 757.658 234.471 767.012C232.672 767.034 230.781 767.305 229.35 766.356C228.361 764.674 228.747 761.954 228.817 759.875C228.887 757.484 228.556 753.262 228.425 750.73C227.04 754.276 224.972 764.21 220.055 763.138C216.896 760.615 215.035 754.448 213.507 750.487C213.498 755.151 214.052 760.282 213.214 764.886C212.747 767.456 209.56 767.535 207.927 766.136C207.181 762.331 207.189 741.426 208.331 738.538Z"/><path d="M155.887 739.063C160.428 739.001 168.969 738.391 172.674 740.459C182.133 745.739 176.785 754.969 168.535 757.57L162.297 757.575L162.137 767.028L155.506 766.994C156.275 760.45 155.945 746.106 155.887 739.063ZM169.622 751.443C170.493 749.577 170.667 749.425 170.553 747.446C168.693 743.966 165.829 744.113 162.174 743.869C162.054 746.424 161.696 748.767 162.557 751.117C164.754 753.341 166.873 752.391 169.622 751.443Z"/><path d="M186.843 739.072C189.411 738.999 192.369 739.085 194.969 739.106C198.068 748.334 201.037 757.605 203.878 766.917L196.812 767.009L195.224 760.546C192.089 760.302 189.534 760.428 186.398 760.537C185.98 762.639 185.299 764.926 184.731 767.012L177.696 766.999C180.627 757.919 183.634 747.996 186.843 739.072Z"/><path d="M138.186 738.629C141.489 738.42 145.333 739.06 148.008 741.099C148.543 742.269 148.845 742.564 148.104 743.936C145.845 748.121 138.242 742.371 136.463 745.844C139.762 748.738 158.914 757.399 147.792 764.636C145.597 766.065 142.106 767.064 139.514 767.42C134.136 767.264 132.465 765.831 127.77 763.162C129.169 761.545 130.846 759.955 132.374 758.439C134.844 759.703 140.513 763.215 142.83 760.091C142.114 757.117 134.376 753.954 131.794 751.005C125.836 744.202 131.827 740.469 138.186 738.629Z"/><path fill="#EC786D" d="M302.171 693.469C303.618 690.597 306.231 686.561 304.269 683.523C300.807 681.261 297.436 684.291 295.094 680.22L295.339 679.564C301.787 674.664 325.968 665.823 334.321 662.888C330.546 671.213 327.28 674.827 324.082 684.541C326.527 687.948 336.926 688.767 341.206 689.32L343.159 692.058C345.599 692.559 348.04 692.868 350.194 694.045L350.603 695.417C336.369 697.984 321.587 701.556 307.335 704.541C310.639 696.799 312.509 692.934 302.171 693.469Z"/><path fill="#DF6863" d="M343.159 692.058C337.157 691.674 323.931 692.506 324.082 684.541C326.527 687.948 336.926 688.767 341.206 689.32L343.159 692.058Z"/><path fill="#EC786D" d="M260.212 708.481C266.363 705.315 285.957 693.779 293.065 694.315C295.257 694.48 296.659 697.757 297.667 699.717C300.184 699.357 302.923 698.786 305.444 698.318C303.936 701.756 302.158 704.985 303.913 708.57C310.603 708.521 324.788 705.381 331.657 703.744C330.134 705.418 326.513 709.533 324.71 710.666C317.002 717.883 310.291 724.221 303.054 731.906C300.577 726.244 297.363 714.348 293.237 710.381C292.048 709.243 290.551 708.478 288.932 708.18C285.985 707.612 279.139 708.35 275.771 708.391C270.59 708.454 265.402 708.479 260.212 708.481Z"/><path fill="#E34A45" d="M303.913 708.57C310.603 708.521 324.788 705.381 331.657 703.744C330.134 705.418 326.513 709.533 324.71 710.666C322.435 709.475 321.353 709.414 318.974 709.998C312.778 708.924 308.412 710.994 303.925 708.927L303.913 708.57Z"/><path fill="#DF6863" d="M303.925 708.927C308.412 710.994 312.778 708.924 318.974 709.998C314.73 713.131 305.793 716.217 303.925 708.927Z"/><path fill="#EC786D" d="M309.446 762.044C320.125 777.319 321.932 779.775 339.456 773.756C342.598 772.677 347.787 771.616 351.17 770.759C352.797 773.082 353.021 773.54 353.995 776.207C350.412 779.803 346.626 783.96 343.113 787.678C329.06 783.435 302.1 779.141 286.746 776.262C294.353 771.587 301.92 766.847 309.446 762.044Z"/><path fill="#EC786D" d="M426.277 779.23C436.109 775.192 445.774 770.905 455.712 767.083C457.153 770.987 458.907 777.023 462.512 779.422C465.142 781.173 488.957 775.396 493.647 774.742C493.988 775.656 494.318 776.527 494.627 777.454C487.018 780.894 479.772 786.049 472.086 789.199C456.974 785.701 441.468 782.643 426.277 779.23Z"/><path fill="#EC786D" d="M324.503 726.66L327.517 725.888L327.813 726.323C321.413 733.436 314.713 739.689 308.469 747.382C294.88 743.789 279.012 740.755 266.02 736.731C266.524 735.933 268.364 733.154 268.668 732.467L270.254 730.11C271.463 728.568 272.533 727.162 273.873 725.725C279.374 728.368 298.302 738.55 303.76 736.632C306.622 735.627 307.297 731.845 313.879 729.696L324.503 726.66Z"/><path fill="#E34A45" d="M273.873 725.725C279.374 728.368 298.302 738.55 303.76 736.632C306.622 735.627 307.297 731.845 313.879 729.696C313.485 731.688 313.104 733.584 312.639 735.561C304.755 746.715 293.932 739.487 283.558 735.349C279.393 730.487 276.266 729.939 270.254 730.11C271.463 728.568 272.533 727.162 273.873 725.725Z"/><path fill="#DF6863" d="M313.879 729.696L324.503 726.66C321.31 729.347 316.133 733.384 312.639 735.561C313.104 733.584 313.485 731.688 313.879 729.696Z"/><path fill="#DF6863" d="M270.254 730.11C276.266 729.939 279.393 730.487 283.558 735.349C277.875 734.438 275.146 730.465 268.668 732.467L270.254 730.11Z"/><path fill="#EC786D" d="M401.882 734.932C404.93 733.483 409.911 731.441 411.229 728.431C410.804 726.048 409.719 726.052 408.053 723.414C407.863 721.414 407.643 722.281 408.459 720.671L409.696 720.316C413.032 721.074 414.449 722.453 417.101 724.597C422.645 728.062 428.521 731.517 433.969 735.032C427.982 736.477 390.758 746.585 387.767 745.754C387.523 744.108 388.391 742.902 389.261 741.462C392.219 739.73 394.323 738.858 397.472 737.518L401.882 734.932Z"/><path fill="#E34A45" d="M401.882 734.932C404.93 733.483 409.911 731.441 411.229 728.431C410.804 726.048 409.719 726.052 408.053 723.414C407.863 721.414 407.643 722.281 408.459 720.671L409.696 720.316C413.032 721.074 414.449 722.453 417.101 724.597C415.077 725.758 414.849 727.352 413.548 729.43C410.374 734.497 403.301 737.298 397.472 737.518L401.882 734.932Z"/><path fill="#DF6863" d="M352.228 708.586L358.442 713.443C360.283 714.671 362.366 716.139 364.23 717.275C368.08 715.492 371.278 713.918 375.006 711.903L373.367 716.454L371.346 722.382C370.458 724.739 369.203 728.344 368.183 730.557L363.123 727.658C354.981 724.224 342.888 717.947 334.856 713.916L340.693 711.768C344.507 710.715 348.41 709.582 352.228 708.586Z"/><path fill="#EC786D" d="M363.123 727.658C361.621 725.412 361.155 725.329 361.56 723.233C363.754 720.74 368.972 720.522 371.346 722.382C370.458 724.739 369.203 728.344 368.183 730.557L363.123 727.658Z"/><path fill="#E34A45" d="M352.228 708.586L358.442 713.443C356.289 713.861 356.437 713.478 355.143 714.752L354.934 715.453C352.71 714.725 345.654 714.675 342.607 714.432C345.887 713.576 349.43 712.83 352.435 711.314C348.543 711.653 344.572 712.137 340.693 711.768C344.507 710.715 348.41 709.582 352.228 708.586Z"/><path fill="#E34A45" d="M375.006 711.903L373.367 716.454C369.997 715.716 369.71 718.22 364.528 717.776L364.23 717.275C368.08 715.492 371.278 713.918 375.006 711.903Z"/><path fill="#C14846" d="M358.442 713.443C360.283 714.671 362.366 716.139 364.23 717.275L364.528 717.776C363.989 718.146 362.503 719.111 362.087 719.479C361.491 716.663 358.142 715.537 355.553 715.757L354.934 715.453L355.143 714.752C356.437 713.478 356.289 713.861 358.442 713.443Z"/><path fill="#E34A45" d="M355.553 715.757C358.142 715.537 361.491 716.663 362.087 719.479C361.437 720.336 361.861 720.053 360.811 720.322C358.596 719.263 357.276 717.557 355.553 715.757Z"/><path fill="#E34A45" d="M344.776 759.878C347.018 754.61 346.631 752.919 352.663 753.748L366.431 756.597C377.158 759.428 381.308 763.112 389.96 770.193C390.704 770.694 391.452 771.148 392.122 771.735L392.468 772.622C383.5 772.444 376.317 772.133 367.242 771.528C366.644 771.393 367.041 771.512 366.122 770.982C366.493 767.732 370.443 766.615 368.724 763.543C363.143 760.472 351.363 760.311 344.776 759.878Z"/><path fill="#EC786D" d="M367.242 771.528C368.86 768.904 368.821 769.625 371.34 767.923C371.289 767.21 371.252 766.497 371.229 765.783C372.709 765.124 371.914 765.295 373.738 765.563C377.705 769.124 383.94 769.684 389.343 770.146L389.96 770.193C390.704 770.694 391.452 771.148 392.122 771.735L392.468 772.622C383.5 772.444 376.317 772.133 367.242 771.528Z"/><path fill="#C14846" d="M352.663 753.748L366.431 756.597C364.938 756.99 362.887 758.726 361.628 758.903C359.412 759.215 355.301 758.143 353.399 756.883C352.823 756.502 352.766 754.506 352.663 753.748Z"/><path fill="#EC786D" d="M396.159 712.777C403.36 712.389 410.644 712.515 417.859 712.549C407.237 716.659 396.695 720.974 386.239 725.491C381.677 727.455 377.045 729.253 372.353 730.882C374.035 724.954 376.172 719.164 378.745 713.565C384.337 713.054 390.507 712.97 396.159 712.777Z"/><path fill="#EC786D" d="M338.913 662.701L342.147 669.016C341.664 671.462 340.779 674.526 341.77 676.799C345.953 679.709 349.659 671.089 353.336 676.015C354.695 678.176 356.508 680.886 357.66 683.1C358.952 685.086 360.322 687.764 361.484 689.884L328.49 683.146C332.258 676.239 335.474 669.786 338.913 662.701Z"/><path fill="#DF6863" d="M353.336 676.015C354.695 678.176 356.508 680.886 357.66 683.1C355.973 683.024 354.761 683.212 353.528 682.156C352.615 680.38 353.134 678.095 353.336 676.015Z"/><path fill="#EC786D" d="M319.622 742.311C326.561 737.932 335.867 736.098 343.841 733.36C349.907 738.419 354.16 740.354 359.927 744.812C358.613 747.937 357.006 748.271 353.776 749.799C345.205 748.321 327.252 745.024 319.622 742.311Z"/><path fill="#EC786D" d="M257.65 712.695C268.043 712.145 280.475 712.441 291 712.438C293.585 718.515 296.997 725.903 298.551 732.162C295.395 731.048 287.648 727.125 284.334 725.544C275.412 721.317 266.517 717.034 257.65 712.695Z"/><path fill="#EC786D" d="M408.008 751.938C420.055 753.44 431.127 754.262 443.275 756.375C437.562 758.084 432.074 759.45 426.292 760.891C416.76 763.389 407.188 765.732 397.581 767.92C400.656 761.835 402.927 756.533 408.008 751.938Z"/><path fill="#EC786D" d="M265.938 727.824C263.914 731.46 261.149 734.963 261.406 739.011C262.461 740.912 261.738 740.126 263.866 741.236C268.761 741.777 275.113 743.529 280.04 744.707C283.544 745.538 287.245 746.503 290.792 746.981L285.051 749.125C281.336 751.228 279.352 752.477 275.322 753.764C269.216 751.895 258.132 746.171 253.706 741.326C248.348 735.461 261.85 729.993 265.938 727.824Z"/><path fill="#DF6863" d="M263.866 741.236C268.761 741.777 275.113 743.529 280.04 744.707C283.544 745.538 287.245 746.503 290.792 746.981L285.051 749.125C284.642 748.484 284.14 747.602 283.248 747.594C277.559 747.541 274.511 748.419 269.346 745.03C266.774 743.691 265.609 743.666 263.866 741.236Z"/><path fill="#E34A45" d="M263.866 741.236C268.761 741.777 275.113 743.529 280.04 744.707C276.821 745.497 272.734 745.147 269.346 745.03C266.774 743.691 265.609 743.666 263.866 741.236Z"/><path fill="#DF6863" d="M401.219 724.021L407.294 727.574C404.933 728.926 401.96 730.367 399.503 731.639L401.882 734.932L397.472 737.518C394.323 738.858 392.219 739.73 389.261 741.462C388.504 739.82 387.6 739.536 386.043 738.839C385.119 740.282 384.542 741.609 383.054 742.323C380.401 742.085 380.256 740.246 377.841 739.465L376.639 739.41C377.22 738.578 377.28 738.3 377.7 737.366C377.275 735.211 377.484 735.94 375.935 734.098C384.263 731.171 393.006 727.395 401.219 724.021Z"/><path fill="#E34A45" d="M401.219 724.021L407.294 727.574C404.933 728.926 401.96 730.367 399.503 731.639L397.138 732.387C399.296 729.137 401.799 730.083 402.73 727.314L402.138 726.945L401.256 727.392C394.035 730.997 385.139 730.295 379.963 736.202C379.732 736.465 379.508 739.149 379.49 739.664L377.841 739.465L376.639 739.41C377.22 738.578 377.28 738.3 377.7 737.366C377.275 735.211 377.484 735.94 375.935 734.098C384.263 731.171 393.006 727.395 401.219 724.021Z"/><path fill="#302120" d="M397.138 732.387L399.503 731.639L401.882 734.932L397.472 737.518C394.323 738.858 392.219 739.73 389.261 741.462C388.504 739.82 387.6 739.536 386.043 738.839L386.015 738.473C389.038 737.285 394.17 734.135 397.138 732.387Z"/><path fill="#60341B" d="M379.49 739.664C381.834 739.553 383.033 738.61 386.015 738.473L386.043 738.839C385.119 740.282 384.542 741.609 383.054 742.323C380.401 742.085 380.256 740.246 377.841 739.465L379.49 739.664Z"/><path fill="#EC786D" d="M314.034 761.509C323.407 761.436 331.302 762.423 340.594 763.537C344.182 763.627 350.282 764.575 353.977 765.202C347.269 767.404 337.22 770.725 330.352 771.756C329.296 772.187 325.12 773.273 323.798 773.653C320.156 770.028 316.985 765.7 314.034 761.509Z"/><path fill="#DF6863" d="M340.594 763.537C344.182 763.627 350.282 764.575 353.977 765.202C347.269 767.404 337.22 770.725 330.352 771.756C333.173 767.151 337.619 771.351 340.594 763.537Z"/><path fill="#EC786D" d="M390.773 693.272L400.169 693.034C392.383 696.382 380.601 703.513 373.238 708.056C371.43 709.233 369.258 710.379 367.354 711.442L372.583 693.651C378.645 693.46 384.708 693.333 390.773 693.272Z"/><path fill="#E34A45" d="M314.198 747.008C316.378 747.507 318.49 747.924 320.596 748.674L314.827 757.431C311.065 757.645 308.514 758.093 304.998 759.724C302.822 757.472 293.371 755.704 289.922 755.105C288.748 752.901 288.732 753.667 289.151 751.68C290.5 749.888 293.109 749.049 295.267 748.079C301.14 749.992 304.046 751.054 310.108 751.483L314.198 747.008Z"/><path fill="#C14846" d="M377.559 756.086C378.804 752.266 378.603 749.071 378.643 745.074C384.361 751.824 384.843 751.792 393.488 749.732C394.212 752.98 394.161 753.685 394.045 756.916L396.975 756.276C396.895 757.69 396.716 759.622 396.832 760.973L393.412 766.777C389.922 764.808 386.349 762.06 383.077 759.679L377.559 756.086Z"/><path fill="#DF6863" d="M394.045 756.916L396.975 756.276C396.895 757.69 396.716 759.622 396.832 760.973L393.412 766.777C389.922 764.808 386.349 762.06 383.077 759.679C386.422 757.84 390.254 757.511 394.045 756.916Z"/><path fill="#EC786D" d="M289.922 755.105C293.371 755.704 302.822 757.472 304.998 759.724C301.262 761.931 298.902 762.986 294.886 764.725L295.628 766.261C294.347 769.929 286.533 775.603 286.973 766.725C284.558 767.281 281.501 767.701 279.012 768.113L289.922 755.105Z"/><path fill="#302120" d="M294.886 764.725L295.628 766.261C294.347 769.929 286.533 775.603 286.973 766.725C289.067 766.42 292.725 765.311 294.886 764.725Z"/><path fill="#EC786D" d="M366.843 679.558C371.893 679.156 386.754 686.522 392.824 688.716C390.448 689.041 387.788 689.236 385.38 689.467C379.01 689.438 372.612 688.394 368.111 692.698L361.501 680.806L366.843 679.558Z"/><path fill="#EC786D" d="M459.439 766.022C469.899 767.013 482.848 768.837 493.287 770.418C490.996 771.051 488.979 771.418 486.656 771.863C479.078 773.205 471.512 774.621 463.96 776.109C462.228 772.75 460.903 769.507 459.439 766.022Z"/><path fill="#E34A45" d="M395.91 701.174C397.565 701.269 398.577 702.005 400.052 702.796C404.552 704.778 409.036 706.861 413.703 708.399C411.842 708.447 408.907 708.622 407.138 708.557C402.373 709.332 385.665 709.263 379.582 709.554C383.831 706.986 391.314 701.774 395.91 701.174Z"/><path fill="#EC786D" d="M395.91 701.174C397.565 701.269 398.577 702.005 400.052 702.796C399.32 706.718 398.996 706.727 395.474 708.55C393.371 708.561 390.082 709.179 389.448 706.888C390.996 704.747 393.866 703.285 395.91 701.174Z"/><path fill="#DF6863" d="M400.052 702.796C404.552 704.778 409.036 706.861 413.703 708.399C411.842 708.447 408.907 708.622 407.138 708.557C404.707 708.238 398.23 708.515 395.474 708.55C398.996 706.727 399.32 706.718 400.052 702.796Z"/><path fill="#DF6863" d="M348.628 731.624C349.462 730.207 349.816 729.226 351.265 728.496C356.38 727.773 363.565 733.151 368.069 735.94C370.902 735.49 373.185 734.841 375.935 734.098C377.484 735.94 377.275 735.211 377.7 737.366C377.28 738.3 377.22 738.578 376.639 739.41C364.604 739.357 358.912 738.064 348.628 731.624Z"/><path fill="#EC786D" d="M367.823 694.376C367.202 696.883 366.534 699.378 365.82 701.861L363.506 711.432C360.067 709.153 356.673 706.807 353.326 704.395C353.078 702.375 352.762 703.041 353.54 701.735C355.046 700.323 355.158 700.012 356.229 698.194C361.037 697.195 363.352 696.717 367.823 694.376Z"/><path fill="#DF6863" d="M367.823 694.376C367.202 696.883 366.534 699.378 365.82 701.861L365.528 701.05C363.225 699.809 357.007 701.433 353.54 701.735C355.046 700.323 355.158 700.012 356.229 698.194C361.037 697.195 363.352 696.717 367.823 694.376Z"/><path fill="#E34A45" d="M325.09 736.238C328.688 732.301 334.864 724.637 338.332 721.468C343.772 719.627 352.618 729.159 334.446 732.816L333.279 733.295C330.537 734.177 327.795 735.237 325.09 736.238Z"/><path fill="#DF6863" d="M333.279 733.295L332.323 731.799C332.368 728.145 336.701 723.552 340.63 725.246L341.048 726.488C339.901 731.383 337.15 729.167 334.446 732.816L333.279 733.295Z"/><path fill="#DF6863" d="M404.564 747.036C410.249 745.544 416.225 743.866 421.947 742.636L436.949 751.096C431.254 750.782 407.782 747.703 405.224 748.06C404.453 748.421 403.853 748.9 403.14 749.392C401.84 749.255 401.231 749.347 400.124 748.774C401.585 748.472 402.814 748.166 404.256 747.782L404.564 747.036Z"/><path fill="#D2D0CE" d="M249.656 747.876C251.656 749.624 256.149 772.247 256.354 775.986L249.491 777.204C249.48 767.428 249.535 757.652 249.656 747.876Z"/><path fill="#EC786D" d="M262.563 755.644C265.699 757.202 268.776 765.067 270.172 768.288L264.374 767.947L259.869 767.464C258.814 763.885 257.974 760.566 257.092 756.938L262.563 755.644Z"/><path fill="#C14846" d="M324.119 751.289C326.354 751.716 328.554 752.308 330.701 753.06C333.031 753.864 338.842 756.051 339.894 758.247L339.429 758.887L337.968 758.791C332.252 758.116 326.517 757.61 320.771 757.274C321.682 755.384 323.054 753.143 324.119 751.289Z"/><path fill="#E34A45" d="M393.488 749.732C396.954 748.697 401.004 747.396 404.564 747.036L404.256 747.782C402.814 748.166 401.585 748.472 400.124 748.774C401.231 749.347 401.84 749.255 403.14 749.392C403.853 748.9 404.453 748.421 405.224 748.06L403.013 751.141C401.072 754.392 399.057 757.943 396.832 760.973C396.716 759.622 396.895 757.69 396.975 756.276L394.045 756.916C394.161 753.685 394.212 752.98 393.488 749.732Z"/><path fill="#E34A45" d="M396.975 756.276C397.421 753.884 399.552 752.033 401.515 750.779L403.013 751.141C401.072 754.392 399.057 757.943 396.832 760.973C396.716 759.622 396.895 757.69 396.975 756.276Z"/><path fill="#DF6863" d="M282.928 755.017L283.141 755.226C283.143 757.284 276.232 765.542 274.55 767.708L272.028 762.768L268.189 755.742C270.518 756.744 272.93 757.869 275.252 758.912L282.928 755.017Z"/><path fill="#E34A45" d="M392.122 771.735C397.61 772.913 409.365 769.792 415.045 768.489C414.753 770.099 414.378 771.894 414.242 773.5C406.974 773.57 399.707 773.277 392.468 772.622L392.122 771.735Z"/><path fill="#EC786D" d="M415.045 768.489L422.044 766.496L424.451 773.994C421.097 773.827 417.583 773.596 414.242 773.5C414.378 771.894 414.753 770.099 415.045 768.489Z"/><path fill="#E34A45" d="M362.015 742.62C366.042 743.115 372.216 741.858 374.542 745.167C375.15 747.211 374.671 748.347 374.22 750.523L373.301 750.688C368.882 747.01 366.981 745.601 362.015 742.62Z"/><path fill="#DF6863" d="M359.927 744.812C363.116 747.433 366.736 750.559 370.01 752.99C364.54 752.06 359.047 750.67 353.776 749.799C357.006 748.271 358.613 747.937 359.927 744.812Z"/><path fill="#EC786D" d="M338.075 701.919C342.791 702.181 343.308 702.816 346.847 705.757L340.606 707.596C338.862 708.161 336 708.657 334.126 709.041C336.136 706.435 336.974 704.981 338.075 701.919Z"/><path fill="#E34A45" d="M341.206 689.32C346.924 690.501 353.423 692.005 359.112 692.986C355.801 694.244 354.077 694.637 350.603 695.417L350.194 694.045C348.04 692.868 345.599 692.559 343.159 692.058L341.206 689.32Z"/><path fill="#DF6863" d="M351.17 770.759C354.449 770.139 357.822 769.431 361.13 769.047L353.995 776.207C353.021 773.54 352.797 773.082 351.17 770.759Z"/><path fill="#E34A45" d="M347.122 700.173C350.117 699.396 353.195 698.814 356.229 698.194C355.158 700.012 355.046 700.323 353.54 701.735C352.762 703.041 353.078 702.375 353.326 704.395C351.52 703.331 348.918 701.411 347.122 700.173Z"/><path fill="#EC786D" d="M319.716 721.097C322.851 720.905 326.498 720.953 329.675 720.924C328.356 721.435 326.745 721.956 325.388 722.431C323.23 723.067 319.254 724.414 317.277 723.461C317.82 722.01 318.162 722.178 319.716 721.097Z"/><path fill="#DF6863" d="M501.82 773.711C499.371 775.046 497.149 776.252 494.627 777.454C494.318 776.527 493.988 775.656 493.647 774.742C496.468 774.246 498.974 774.001 501.82 773.711Z"/><path fill="#60341B" d="M335.823 750.148C338.782 750.511 340.67 750.904 343.229 752.421C339.885 752.617 338.707 751.923 335.823 750.148Z"/><path d="M546.558 777.92C553.778 776.905 555.078 779.199 559.676 779.269C566.448 780.892 585.11 784.401 588.951 789.543C588.884 791.368 588.987 791.709 587.952 793.25C584.31 795.752 560.134 802.825 554.188 802.991C547.559 803.176 523.888 799.486 517.84 794.87C517.387 794.524 517.046 791.715 516.748 790.764C520.966 786.576 539.962 780.337 546.558 777.92Z"/><path fill="#9D9B9C" d="M588.951 789.543C588.884 791.368 588.987 791.709 587.952 793.25C584.31 795.752 560.134 802.825 554.188 802.991C547.559 803.176 523.888 799.486 517.84 794.87C517.387 794.524 517.046 791.715 516.748 790.764C517.499 792.05 517.714 792.623 519.459 793.081C526.432 794.913 547.159 798.846 553.675 798.588C559.606 798.354 583.715 791.919 588.951 789.543Z"/><path fill="#EC786D" d="M550.044 782.045C557.971 783.129 568.455 786.18 576.248 788.472C569.073 790.549 561.748 792.504 554.539 794.495C546.922 793.972 535.622 791.544 527.836 790.172C534.759 787.365 542.873 784.015 550.044 782.045Z"/><path d="M439.141 677.662C443.34 678.386 447.057 680.26 450.899 682.037C449.846 687.915 446.11 702.074 443.83 707.355L442.749 707.953C440.083 707.439 434.73 699.93 432.652 697.425C434.441 690.923 436.234 683.688 439.141 677.662Z"/><path fill="#E34A45" d="M437.867 693.797L438.255 692.914C439.667 689.615 439.763 686.233 441.642 683.3C448.44 681.646 443.614 695.174 442.985 697.333C442.578 698.77 442.697 698.955 441.639 699.93C438.644 699.738 437.851 696.35 437.867 693.797Z"/><path fill="#DF6863" d="M437.867 693.797C441.086 694.288 441.347 694.528 442.985 697.333C442.578 698.77 442.697 698.955 441.639 699.93C438.644 699.738 437.851 696.35 437.867 693.797Z"/><path d="M425.019 639.817L425.854 640.306C427.013 646.207 424.42 657.72 422.396 663.436C420.848 662.457 419.406 661.416 417.911 660.358C416.405 659.361 414.789 658.092 413.323 657.001C413.455 651.113 414.584 646.773 415.981 641.04C419.518 640.185 421.438 639.959 425.019 639.817Z"/><path fill="#E34A45" d="M420.271 643.695C423.644 645.598 421.003 653.891 419.878 657.001C415.762 653.52 417.274 647.402 420.271 643.695Z"/></svg>